{"glyphs":{"0":{"ha":966,"x_min":66,"x_max":900,"o":"m 639 507 q 603 775 639 697 q 484 852 568 852 q 363 775 399 852 q 328 507 328 697 q 363 237 328 315 q 484 158 399 158 q 603 237 567 158 q 639 507 639 315 m 900 505 q 791 117 900 254 q 484 -20 683 -20 q 175 117 283 -20 q 66 505 66 254 q 175 894 66 758 q 484 1031 283 1031 q 791 894 683 1031 q 900 505 900 758 z "},"1":{"ha":966,"x_min":157,"x_max":871,"o":"m 163 180 l 393 180 l 393 835 l 157 786 l 157 964 l 392 1013 l 640 1013 l 640 180 l 871 180 l 871 0 l 163 0 l 163 180 z "},"2":{"ha":966,"x_min":110,"x_max":846,"o":"m 400 192 l 846 192 l 846 0 l 110 0 l 110 192 l 479 518 q 553 606 529 563 q 576 694 576 648 q 529 809 576 766 q 401 852 481 852 q 268 826 340 852 q 113 749 195 800 l 113 971 q 287 1016 201 1000 q 456 1031 373 1031 q 738 951 637 1031 q 839 728 839 871 q 796 573 839 645 q 616 382 753 502 l 400 192 z "},"3":{"ha":966,"x_min":93,"x_max":856,"o":"m 647 546 q 803 454 749 519 q 856 288 856 389 q 741 59 856 137 q 404 -20 625 -20 q 248 -7 326 -20 q 93 31 170 5 l 93 232 q 238 177 166 195 q 380 158 311 158 q 539 194 484 158 q 595 297 595 230 q 538 402 595 366 q 371 437 481 437 l 267 437 l 267 606 l 376 606 q 523 636 475 606 q 571 730 571 667 q 524 821 571 789 q 392 852 477 852 q 264 838 329 852 q 136 796 200 824 l 136 987 q 290 1020 214 1009 q 439 1031 366 1031 q 734 966 636 1031 q 832 771 832 901 q 785 626 832 682 q 647 546 739 569 z "},"4":{"ha":966,"x_min":62,"x_max":903,"o":"m 511 798 l 225 374 l 511 374 l 511 798 m 468 1013 l 758 1013 l 758 374 l 903 374 l 903 184 l 758 184 l 758 0 l 511 0 l 511 184 l 62 184 l 62 408 l 468 1013 z "},"5":{"ha":966,"x_min":107,"x_max":869,"o":"m 147 1013 l 796 1013 l 796 821 l 355 821 l 355 664 q 415 676 385 672 q 478 681 446 681 q 766 588 663 681 q 869 330 869 496 q 757 73 869 166 q 446 -20 645 -20 q 275 -3 359 -20 q 107 47 191 14 l 107 253 q 264 182 190 205 q 404 158 338 158 q 554 204 499 158 q 608 330 608 251 q 554 456 608 410 q 404 503 499 503 q 284 488 348 503 q 147 443 220 473 l 147 1013 z "},"6":{"ha":966,"x_min":86,"x_max":892,"o":"m 503 500 q 400 455 434 500 q 366 322 366 411 q 400 189 366 233 q 503 144 434 144 q 606 189 572 144 q 640 322 640 233 q 606 455 640 411 q 503 500 572 500 m 825 986 l 825 799 q 704 844 761 829 q 593 859 647 859 q 411 794 476 859 q 335 602 346 729 q 432 651 380 635 q 546 668 484 668 q 797 577 701 668 q 892 339 892 486 q 785 78 892 176 q 500 -20 679 -20 q 194 114 302 -20 q 86 492 86 247 q 213 886 86 743 q 559 1029 339 1029 q 695 1019 629 1029 q 825 986 761 1008 z "},"7":{"ha":966,"x_min":93,"x_max":856,"o":"m 93 1013 l 856 1013 l 856 865 l 461 0 l 207 0 l 581 821 l 93 821 l 93 1013 z "},"8":{"ha":966,"x_min":85,"x_max":880,"o":"m 484 453 q 371 413 410 453 q 332 298 332 373 q 371 184 332 224 q 484 144 410 144 q 595 184 556 144 q 633 298 633 224 q 595 413 633 374 q 484 453 556 453 m 293 539 q 154 625 201 567 q 107 768 107 682 q 203 964 107 897 q 484 1031 298 1031 q 763 964 667 1031 q 859 768 859 897 q 811 625 859 682 q 672 539 764 567 q 828 447 775 511 q 880 285 880 382 q 780 57 880 134 q 484 -20 680 -20 q 185 57 286 -20 q 85 285 85 134 q 137 447 85 382 q 293 539 190 511 m 354 742 q 388 649 354 682 q 484 616 421 616 q 578 649 545 616 q 611 742 611 682 q 578 834 611 802 q 484 867 545 867 q 388 834 421 867 q 354 742 354 802 z "},"9":{"ha":966,"x_min":72,"x_max":878,"o":"m 139 22 l 139 210 q 258 166 201 180 q 371 151 315 151 q 553 216 488 151 q 629 408 618 281 q 531 357 583 374 q 418 340 479 340 q 167 431 262 340 q 72 669 72 522 q 178 931 72 833 q 463 1029 284 1029 q 769 896 661 1029 q 878 518 878 762 q 751 124 878 267 q 403 -20 624 -20 q 267 -9 332 -20 q 139 22 201 1 m 461 510 q 564 554 530 510 q 599 688 599 599 q 564 821 599 776 q 461 865 530 865 q 358 821 393 865 q 323 688 323 776 q 358 554 323 599 q 461 510 393 510 z "},"\u0000":{"ha":833,"x_min":69,"x_max":764,"o":"m 69 -245 l 69 979 l 764 979 l 764 -245 l 69 -245 m 147 -168 l 686 -168 l 686 901 l 147 901 l 147 -168 z "}," ":{"ha":484,"x_min":0,"x_max":0,"o":""},"!":{"ha":633,"x_min":195,"x_max":439,"o":"m 195 1013 l 439 1013 l 439 624 l 404 340 l 229 340 l 195 624 l 195 1013 m 195 241 l 439 241 l 439 0 l 195 0 l 195 241 z "},"\"":{"ha":724,"x_min":132,"x_max":591,"o":"m 591 1013 l 591 636 l 431 636 l 431 1013 l 591 1013 m 293 1013 l 293 636 l 132 636 l 132 1013 l 293 1013 z "},"#":{"ha":1164,"x_min":94,"x_max":1069,"o":"m 618 997 l 553 736 l 732 736 l 798 997 l 947 997 l 882 736 l 1069 736 l 1069 591 l 846 591 l 799 406 l 991 406 l 991 260 l 764 260 l 699 0 l 549 0 l 614 260 l 435 260 l 370 0 l 218 0 l 283 260 l 94 260 l 94 406 l 317 406 l 364 591 l 172 591 l 172 736 l 401 736 l 467 997 l 618 997 m 694 591 l 515 591 l 468 406 l 647 406 l 694 591 z "},"$":{"ha":966,"x_min":109,"x_max":872,"o":"m 539 -204 l 429 -204 l 429 0 q 264 19 344 3 q 110 62 185 35 l 110 240 q 268 179 188 200 q 429 155 347 157 l 429 366 l 407 370 q 177 459 245 398 q 109 635 109 520 q 192 824 109 756 q 429 899 275 892 l 429 1055 l 539 1055 l 539 901 q 675 884 607 896 q 811 854 743 873 l 811 682 q 675 727 743 711 q 539 746 608 743 l 539 551 l 561 547 q 803 457 733 520 q 872 269 872 393 q 789 78 872 144 q 539 1 707 11 l 539 -204 m 429 567 l 429 744 q 352 718 381 741 q 323 659 323 694 q 350 596 323 618 q 429 567 376 573 m 539 346 l 539 157 q 628 180 598 158 q 657 248 657 203 q 630 316 657 294 q 539 346 603 339 z "},"%":{"ha":1392,"x_min":45,"x_max":1348,"o":"m 1076 418 q 1002 376 1028 418 q 975 257 975 334 q 1001 137 975 179 q 1076 96 1027 96 q 1151 137 1125 96 q 1177 257 1177 179 q 1151 376 1177 334 q 1076 418 1124 418 m 1076 532 q 1275 458 1202 532 q 1348 257 1348 385 q 1275 55 1348 129 q 1076 -20 1202 -20 q 877 55 950 -20 q 804 257 804 129 q 877 458 804 385 q 1076 532 950 532 m 454 -20 l 304 -20 l 937 1031 l 1088 1031 l 454 -20 m 315 1031 q 514 957 441 1031 q 586 755 586 884 q 514 553 586 627 q 315 479 441 479 q 117 553 189 479 q 45 755 45 627 q 117 957 45 884 q 315 1031 189 1031 m 315 917 q 240 875 267 917 q 214 755 214 833 q 240 635 214 677 q 315 593 267 593 q 390 635 364 593 q 416 755 416 677 q 390 875 416 833 q 315 917 363 917 z "},"&":{"ha":1211,"x_min":83,"x_max":1153,"o":"m 542 672 l 819 367 q 874 473 855 414 q 896 607 892 532 l 1107 607 q 1059 387 1097 484 q 954 218 1021 291 l 1153 0 l 865 0 l 799 74 q 649 3 728 26 q 482 -20 570 -20 q 194 74 304 -20 q 83 317 83 168 q 132 492 83 416 q 290 640 180 568 q 248 712 262 676 q 235 787 235 748 q 321 964 235 898 q 550 1031 407 1031 q 679 1021 612 1031 q 818 991 745 1011 l 818 803 q 697 851 754 836 q 586 867 640 867 q 505 847 534 867 q 476 790 476 827 q 493 738 476 767 q 542 672 509 708 m 407 504 q 340 432 363 472 q 318 343 318 391 q 376 210 318 265 q 514 155 433 155 q 599 169 559 155 q 672 211 638 183 l 407 504 z "},"'":{"ha":425,"x_min":132,"x_max":293,"o":"m 293 1013 l 293 636 l 132 636 l 132 1013 l 293 1013 z "},"(":{"ha":635,"x_min":119,"x_max":524,"o":"m 524 -183 l 322 -183 q 169 135 218 -16 q 119 435 119 286 q 169 735 119 583 q 322 1054 219 888 l 524 1054 q 393 740 437 893 q 350 436 350 586 q 393 132 350 286 q 524 -183 436 -22 z "},")":{"ha":635,"x_min":111,"x_max":515,"o":"m 111 -183 q 241 132 198 -22 q 285 436 285 286 q 241 740 285 586 q 111 1054 198 893 l 313 1054 q 466 735 416 888 q 515 435 515 583 q 466 135 515 286 q 313 -183 416 -16 l 111 -183 z "},"*":{"ha":726,"x_min":28,"x_max":699,"o":"m 699 825 l 475 708 l 699 590 l 647 494 l 421 619 l 421 386 l 306 386 l 306 619 l 79 494 l 28 590 l 254 708 l 28 825 l 79 921 l 306 798 l 306 1031 l 421 1031 l 421 798 l 647 921 l 699 825 z "},"+":{"ha":1164,"x_min":147,"x_max":1017,"o":"m 663 871 l 663 515 l 1017 515 l 1017 355 l 663 355 l 663 0 l 501 0 l 501 355 l 147 355 l 147 515 l 501 515 l 501 871 l 663 871 z "},",":{"ha":528,"x_min":74,"x_max":386,"o":"m 142 262 l 386 262 l 386 56 l 218 -197 l 74 -197 l 142 56 l 142 262 z "},"-":{"ha":576,"x_min":75,"x_max":501,"o":"m 75 498 l 501 498 l 501 301 l 75 301 l 75 498 z "},".":{"ha":528,"x_min":142,"x_max":386,"o":"m 142 262 l 386 262 l 386 0 l 142 0 l 142 262 z "},"/":{"ha":507,"x_min":0,"x_max":507,"o":"m 357 1013 l 507 1013 l 150 -129 l 0 -129 l 357 1013 z "},":":{"ha":555,"x_min":155,"x_max":400,"o":"m 155 760 l 400 760 l 400 497 l 155 497 l 155 760 m 155 262 l 400 262 l 400 0 l 155 0 l 155 262 z "},";":{"ha":555,"x_min":87,"x_max":400,"o":"m 155 262 l 400 262 l 400 56 l 232 -197 l 87 -197 l 155 56 l 155 262 m 155 760 l 400 760 l 400 497 l 155 497 l 155 760 z "},"<":{"ha":1164,"x_min":147,"x_max":1017,"o":"m 1017 660 l 363 435 l 1017 211 l 1017 41 l 147 355 l 147 515 l 1017 829 l 1017 660 z "},"=":{"ha":1164,"x_min":147,"x_max":1017,"o":"m 147 669 l 1017 669 l 1017 510 l 147 510 l 147 669 m 147 361 l 1017 361 l 1017 200 l 147 200 l 147 361 z "},">":{"ha":1164,"x_min":147,"x_max":1017,"o":"m 147 660 l 147 829 l 1017 515 l 1017 355 l 147 41 l 147 211 l 802 435 l 147 660 z "},"?":{"ha":806,"x_min":96,"x_max":715,"o":"m 481 342 l 236 342 l 236 375 q 258 474 236 431 q 353 583 281 517 l 396 623 q 453 689 435 658 q 471 751 471 720 q 438 826 471 799 q 347 852 406 852 q 229 830 292 852 q 96 762 165 807 l 96 975 q 245 1017 178 1004 q 376 1031 313 1031 q 629 963 542 1031 q 715 766 715 896 q 689 647 715 700 q 599 534 663 595 l 555 496 q 495 428 509 454 q 481 372 481 403 l 481 342 m 236 241 l 481 241 l 481 0 l 236 0 l 236 241 z "},"@":{"ha":1389,"x_min":92,"x_max":1291,"o":"m 564 366 q 599 234 564 282 q 696 186 635 186 q 792 234 756 186 q 828 366 828 283 q 792 495 828 448 q 694 543 755 543 q 599 495 635 543 q 564 366 564 448 m 842 161 q 776 86 821 113 q 671 60 731 60 q 481 144 554 60 q 408 364 408 229 q 481 585 408 500 q 671 669 555 669 q 776 642 731 669 q 842 567 821 615 l 842 656 l 983 656 l 983 186 q 1116 267 1067 199 q 1164 441 1164 335 q 1144 569 1164 509 q 1084 677 1124 628 q 923 805 1020 760 q 714 850 827 850 q 564 829 635 850 q 431 768 492 808 q 274 596 330 702 q 218 368 218 491 q 255 179 218 267 q 359 22 291 90 q 515 -79 427 -44 q 703 -114 603 -114 q 873 -82 788 -114 q 1019 4 959 -50 l 1092 -106 q 907 -207 1007 -172 q 704 -241 807 -241 q 467 -197 578 -241 q 269 -68 356 -153 q 137 129 182 17 q 92 368 92 240 q 138 604 92 492 q 269 800 184 715 q 468 930 355 884 q 704 977 582 977 q 980 919 856 977 q 1187 751 1104 861 q 1264 607 1238 685 q 1291 444 1291 530 q 1180 159 1291 260 q 868 57 1069 57 l 842 57 l 842 161 z "},"A":{"ha":1075,"x_min":7,"x_max":1068,"o":"m 742 184 l 334 184 l 269 0 l 7 0 l 382 1013 l 693 1013 l 1068 0 l 806 0 l 742 184 m 399 372 l 676 372 l 538 775 l 399 372 z "},"B":{"ha":1059,"x_min":127,"x_max":961,"o":"m 533 621 q 627 648 595 621 q 659 728 659 675 q 627 807 659 780 q 533 835 595 835 l 389 835 l 389 621 l 533 621 m 542 178 q 660 211 621 178 q 700 311 700 244 q 661 410 700 377 q 542 443 621 443 l 389 443 l 389 178 l 542 178 m 785 542 q 915 452 869 517 q 961 290 961 386 q 862 72 961 144 q 561 0 763 0 l 127 0 l 127 1013 l 519 1013 q 825 949 730 1013 q 920 745 920 885 q 885 619 920 671 q 785 542 850 567 z "},"C":{"ha":1019,"x_min":69,"x_max":930,"o":"m 930 56 q 781 -1 859 18 q 618 -20 703 -20 q 217 122 365 -20 q 69 505 69 263 q 217 889 69 748 q 618 1031 365 1031 q 781 1012 703 1031 q 930 956 859 993 l 930 746 q 787 819 858 795 q 639 842 717 842 q 419 752 499 842 q 339 505 339 663 q 419 259 339 349 q 639 170 499 170 q 787 193 717 170 q 930 265 858 216 l 930 56 z "},"D":{"ha":1153,"x_min":127,"x_max":1080,"o":"m 389 815 l 389 197 l 482 197 q 727 277 642 197 q 811 507 811 356 q 727 736 811 658 q 482 815 643 815 l 389 815 m 127 1013 l 403 1013 q 746 980 633 1013 q 940 868 859 947 q 1046 710 1011 800 q 1080 507 1080 621 q 1046 303 1080 393 q 940 144 1011 213 q 745 33 859 66 q 403 0 631 0 l 127 0 l 127 1013 z "},"E":{"ha":949,"x_min":127,"x_max":847,"o":"m 127 1013 l 832 1013 l 832 815 l 389 815 l 389 627 l 806 627 l 806 429 l 389 429 l 389 197 l 847 197 l 847 0 l 127 0 l 127 1013 z "},"F":{"ha":949,"x_min":127,"x_max":832,"o":"m 127 1013 l 832 1013 l 832 815 l 389 815 l 389 627 l 806 627 l 806 429 l 389 429 l 389 0 l 127 0 l 127 1013 z "},"G":{"ha":1140,"x_min":69,"x_max":1038,"o":"m 1038 75 q 835 4 940 28 q 618 -20 730 -20 q 217 122 365 -20 q 69 505 69 263 q 220 890 69 750 q 632 1031 370 1031 q 826 1012 733 1031 q 1000 956 918 993 l 1000 746 q 832 818 916 794 q 664 842 748 842 q 424 754 508 842 q 339 505 339 667 q 420 257 339 345 q 652 170 502 170 q 727 175 692 170 q 790 191 762 180 l 790 387 l 631 387 l 631 562 l 1038 562 l 1038 75 z "},"H":{"ha":1162,"x_min":127,"x_max":1035,"o":"m 127 1013 l 389 1013 l 389 627 l 774 627 l 774 1013 l 1035 1013 l 1035 0 l 774 0 l 774 429 l 389 429 l 389 0 l 127 0 l 127 1013 z "},"I":{"ha":517,"x_min":127,"x_max":389,"o":"m 127 1013 l 389 1013 l 389 0 l 127 0 l 127 1013 z "},"J":{"ha":517,"x_min":-78,"x_max":389,"o":"m 127 1013 l 389 1013 l 389 98 q 286 -184 389 -91 q -25 -278 183 -278 l -78 -278 l -78 -81 l -37 -81 q 86 -35 44 -81 q 127 98 127 10 l 127 1013 z "},"K":{"ha":1076,"x_min":127,"x_max":1118,"o":"m 127 1013 l 389 1013 l 389 643 l 765 1013 l 1068 1013 l 581 533 l 1118 0 l 791 0 l 389 399 l 389 0 l 127 0 l 127 1013 z "},"L":{"ha":885,"x_min":127,"x_max":847,"o":"m 127 1013 l 389 1013 l 389 197 l 847 197 l 847 0 l 127 0 l 127 1013 z "},"M":{"ha":1382,"x_min":127,"x_max":1254,"o":"m 127 1013 l 460 1013 l 690 471 l 922 1013 l 1254 1013 l 1254 0 l 1007 0 l 1007 741 l 774 195 l 608 195 l 375 741 l 375 0 l 127 0 l 127 1013 z "},"N":{"ha":1162,"x_min":127,"x_max":1035,"o":"m 127 1013 l 419 1013 l 787 318 l 787 1013 l 1035 1013 l 1035 0 l 743 0 l 375 694 l 375 0 l 127 0 l 127 1013 z "},"O":{"ha":1181,"x_min":69,"x_max":1111,"o":"m 590 842 q 405 753 471 842 q 339 505 339 665 q 405 258 339 346 q 590 170 471 170 q 776 258 710 170 q 842 505 842 346 q 776 753 842 665 q 590 842 710 842 m 590 1031 q 972 891 834 1031 q 1111 505 1111 751 q 972 120 1111 260 q 590 -20 834 -20 q 208 120 347 -20 q 69 505 69 260 q 208 891 69 751 q 590 1031 347 1031 z "},"P":{"ha":1018,"x_min":127,"x_max":961,"o":"m 127 1013 l 561 1013 q 858 927 754 1013 q 961 682 961 841 q 858 437 961 523 q 561 351 754 351 l 389 351 l 389 0 l 127 0 l 127 1013 m 389 823 l 389 541 l 533 541 q 650 577 609 541 q 692 682 692 614 q 650 787 692 750 q 533 823 609 823 l 389 823 z "},"Q":{"ha":1181,"x_min":69,"x_max":1111,"o":"m 618 -18 l 597 -18 q 208 120 347 -18 q 69 505 69 258 q 208 891 69 751 q 590 1031 347 1031 q 974 892 836 1031 q 1111 505 1111 754 q 1038 211 1111 334 q 828 25 965 87 l 1032 -203 l 783 -203 l 618 -18 m 590 842 q 405 753 471 842 q 339 505 339 665 q 404 256 339 342 q 590 170 468 170 q 776 258 710 170 q 842 505 842 346 q 776 753 842 665 q 590 842 710 842 z "},"R":{"ha":1069,"x_min":127,"x_max":1042,"o":"m 498 564 q 616 594 581 564 q 652 694 652 625 q 616 793 652 764 q 498 823 581 823 l 389 823 l 389 564 l 498 564 m 389 383 l 389 0 l 127 0 l 127 1013 l 526 1013 q 820 945 726 1013 q 913 733 913 878 q 864 568 913 633 q 718 473 816 504 q 814 418 772 461 q 900 288 857 375 l 1042 0 l 764 0 l 640 252 q 565 355 603 328 q 463 383 526 383 l 389 383 z "},"S":{"ha":1000,"x_min":100,"x_max":899,"o":"m 832 981 l 832 766 q 669 823 749 804 q 519 842 590 842 q 381 816 426 842 q 336 736 336 790 q 367 672 336 695 q 476 633 397 650 l 587 611 q 827 508 756 577 q 899 311 899 439 q 799 62 899 144 q 496 -20 700 -20 q 302 -1 399 -20 q 109 53 205 17 l 109 273 q 296 196 205 222 q 471 170 387 170 q 602 198 556 170 q 647 279 647 227 q 616 353 647 327 q 493 399 585 378 l 392 421 q 170 525 240 454 q 100 717 100 596 q 197 949 100 868 q 478 1031 295 1031 q 650 1018 562 1031 q 832 981 738 1006 z "},"T":{"ha":947,"x_min":7,"x_max":940,"o":"m 7 1013 l 940 1013 l 940 815 l 604 815 l 604 0 l 343 0 l 343 815 l 7 815 l 7 1013 z "},"U":{"ha":1128,"x_min":127,"x_max":1000,"o":"m 127 1013 l 389 1013 l 389 406 q 430 226 389 280 q 564 172 471 172 q 698 226 657 172 q 739 406 739 280 l 739 1013 l 1000 1013 l 1000 406 q 892 85 1000 191 q 564 -20 785 -20 q 235 85 343 -20 q 127 406 127 191 l 127 1013 z "},"V":{"ha":1075,"x_min":7,"x_max":1068,"o":"m 7 1013 l 269 1013 l 538 265 l 806 1013 l 1068 1013 l 693 0 l 382 0 l 7 1013 z "},"W":{"ha":1532,"x_min":41,"x_max":1489,"o":"m 41 1013 l 292 1013 l 467 277 l 640 1013 l 892 1013 l 1065 277 l 1240 1013 l 1489 1013 l 1250 0 l 949 0 l 765 770 l 583 0 l 282 0 l 41 1013 z "},"X":{"ha":1071,"x_min":26,"x_max":1043,"o":"m 692 517 l 1043 0 l 771 0 l 534 346 l 300 0 l 26 0 l 378 517 l 40 1013 l 313 1013 l 534 686 l 755 1013 l 1029 1013 l 692 517 z "},"Y":{"ha":1006,"x_min":-14,"x_max":1019,"o":"m -14 1013 l 272 1013 l 503 652 l 733 1013 l 1019 1013 l 633 427 l 633 0 l 372 0 l 372 427 l -14 1013 z "},"Z":{"ha":1007,"x_min":62,"x_max":945,"o":"m 78 1013 l 929 1013 l 929 854 l 386 197 l 945 197 l 945 0 l 62 0 l 62 158 l 606 815 l 78 815 l 78 1013 z "},"[":{"ha":635,"x_min":119,"x_max":541,"o":"m 119 1055 l 541 1055 l 541 903 l 350 903 l 350 -31 l 541 -31 l 541 -183 l 119 -183 l 119 1055 z "},"\\":{"ha":507,"x_min":0,"x_max":507,"o":"m 357 -129 l 0 1013 l 150 1013 l 507 -129 l 357 -129 z "},"]":{"ha":635,"x_min":94,"x_max":515,"o":"m 515 -183 l 94 -183 l 94 -31 l 285 -31 l 285 903 l 94 903 l 94 1055 l 515 1055 l 515 -183 z "},"^":{"ha":1164,"x_min":140,"x_max":1023,"o":"m 665 1013 l 1023 635 l 860 635 l 582 839 l 304 635 l 140 635 l 498 1013 l 665 1013 z "},"_":{"ha":694,"x_min":0,"x_max":694,"o":"m 694 -199 l 694 -328 l 0 -328 l 0 -199 l 694 -199 z "},"`":{"ha":694,"x_min":64,"x_max":447,"o":"m 256 1111 l 447 856 l 314 856 l 64 1111 l 256 1111 z "},"a":{"ha":937,"x_min":60,"x_max":828,"o":"m 457 342 q 343 316 381 342 q 304 240 304 290 q 335 168 304 194 q 421 142 366 142 q 536 191 490 142 q 583 314 583 240 l 583 342 l 457 342 m 828 433 l 828 0 l 583 0 l 583 113 q 473 12 534 43 q 325 -20 412 -20 q 133 49 207 -20 q 60 228 60 118 q 152 424 60 361 q 440 486 243 486 l 583 486 l 583 505 q 538 590 583 563 q 396 616 492 616 q 251 601 318 616 q 126 554 184 585 l 126 739 q 283 768 204 758 q 440 778 361 778 q 737 697 646 778 q 828 433 828 616 z "},"b":{"ha":994,"x_min":117,"x_max":932,"o":"m 521 157 q 640 214 599 157 q 681 379 681 271 q 640 545 681 488 q 521 602 599 602 q 401 544 443 602 q 359 379 359 487 q 401 214 359 271 q 521 157 443 157 m 359 648 q 471 746 410 715 q 611 778 532 778 q 842 666 751 778 q 932 379 932 555 q 842 92 932 203 q 611 -20 751 -20 q 471 12 532 -20 q 359 110 410 43 l 359 0 l 117 0 l 117 1055 l 359 1055 l 359 648 z "},"c":{"ha":823,"x_min":60,"x_max":730,"o":"m 730 736 l 730 538 q 631 588 681 572 q 528 604 581 604 q 369 545 426 604 q 313 379 313 486 q 369 213 313 273 q 528 154 426 154 q 636 171 585 154 q 730 221 687 188 l 730 22 q 615 -9 673 1 q 497 -20 556 -20 q 176 86 292 -20 q 60 379 60 191 q 176 672 60 567 q 497 778 292 778 q 615 767 557 778 q 730 736 673 757 z "},"d":{"ha":994,"x_min":62,"x_max":878,"o":"m 633 648 l 633 1055 l 878 1055 l 878 0 l 633 0 l 633 110 q 523 12 583 43 q 383 -20 463 -20 q 153 92 243 -20 q 62 379 62 203 q 153 666 62 555 q 383 778 243 778 q 523 746 462 778 q 633 648 583 715 m 473 157 q 592 214 551 157 q 633 379 633 271 q 592 545 633 488 q 473 602 551 602 q 355 545 396 602 q 314 379 314 488 q 355 214 314 271 q 473 157 396 157 z "},"e":{"ha":942,"x_min":60,"x_max":875,"o":"m 875 382 l 875 313 l 307 313 q 369 184 316 227 q 517 142 422 142 q 674 164 593 142 q 839 233 754 187 l 839 46 q 667 -3 753 14 q 494 -20 581 -20 q 174 85 288 -20 q 60 379 60 190 q 172 671 60 565 q 481 778 284 778 q 767 670 660 778 q 875 382 875 562 m 625 463 q 585 574 625 532 q 479 616 545 616 q 365 577 409 616 q 310 463 321 537 l 625 463 z "},"f":{"ha":604,"x_min":26,"x_max":616,"o":"m 616 1055 l 616 896 l 482 896 q 410 877 431 896 q 390 812 390 859 l 390 760 l 597 760 l 597 586 l 390 586 l 390 0 l 147 0 l 147 586 l 26 586 l 26 760 l 147 760 l 147 812 q 216 996 147 937 q 431 1055 286 1055 l 616 1055 z "},"g":{"ha":994,"x_min":62,"x_max":878,"o":"m 633 129 q 523 31 583 62 q 383 0 463 0 q 153 110 244 0 q 62 389 62 219 q 153 668 62 559 q 383 777 244 777 q 523 745 463 777 q 633 647 583 714 l 633 760 l 878 760 l 878 77 q 762 -203 878 -106 q 427 -300 646 -300 q 289 -289 355 -300 q 155 -256 222 -278 l 155 -66 q 280 -121 219 -103 q 403 -139 341 -139 q 578 -87 522 -139 q 633 77 633 -35 l 633 129 m 473 602 q 356 546 398 602 q 314 389 314 490 q 355 230 314 284 q 473 176 395 176 q 591 232 549 176 q 633 389 633 288 q 591 546 633 490 q 473 602 549 602 z "},"h":{"ha":989,"x_min":117,"x_max":880,"o":"m 880 463 l 880 0 l 636 0 l 636 75 l 636 353 q 632 490 636 452 q 616 545 627 527 q 578 582 602 568 q 522 595 553 595 q 403 536 446 595 q 359 374 359 477 l 359 0 l 117 0 l 117 1055 l 359 1055 l 359 648 q 476 746 414 715 q 612 778 538 778 q 812 697 744 778 q 880 463 880 616 z "},"i":{"ha":476,"x_min":117,"x_max":359,"o":"m 117 760 l 359 760 l 359 0 l 117 0 l 117 760 m 117 1055 l 359 1055 l 359 857 l 117 857 l 117 1055 z "},"j":{"ha":476,"x_min":-46,"x_max":359,"o":"m 117 760 l 359 760 l 359 14 q 286 -219 359 -139 q 74 -300 213 -300 l -46 -300 l -46 -140 l -4 -140 q 91 -109 65 -140 q 117 14 117 -78 l 117 760 m 117 1055 l 359 1055 l 359 857 l 117 857 l 117 1055 z "},"k":{"ha":924,"x_min":117,"x_max":950,"o":"m 117 1055 l 359 1055 l 359 481 l 639 760 l 921 760 l 550 411 l 950 0 l 656 0 l 359 317 l 359 0 l 117 0 l 117 1055 z "},"l":{"ha":476,"x_min":117,"x_max":359,"o":"m 117 1055 l 359 1055 l 359 0 l 117 0 l 117 1055 z "},"m":{"ha":1447,"x_min":115,"x_max":1337,"o":"m 821 633 q 930 741 867 704 q 1069 778 994 778 q 1269 697 1200 778 q 1337 463 1337 616 l 1337 0 l 1093 0 l 1093 396 q 1094 414 1094 405 q 1095 441 1095 424 q 1071 558 1095 522 q 994 595 1047 595 q 887 538 925 595 q 848 373 850 481 l 848 0 l 604 0 l 604 396 q 583 558 604 522 q 505 595 561 595 q 397 537 435 595 q 359 374 359 480 l 359 0 l 115 0 l 115 760 l 359 760 l 359 648 q 462 745 404 713 q 590 778 520 778 q 729 740 669 778 q 821 633 789 702 z "},"n":{"ha":989,"x_min":117,"x_max":880,"o":"m 880 463 l 880 0 l 636 0 l 636 75 l 636 354 q 632 490 636 452 q 616 545 627 527 q 578 582 602 568 q 522 595 553 595 q 403 536 446 595 q 359 374 359 477 l 359 0 l 117 0 l 117 760 l 359 760 l 359 648 q 476 746 414 715 q 612 778 538 778 q 812 697 744 778 q 880 463 880 616 z "},"o":{"ha":954,"x_min":60,"x_max":895,"o":"m 478 604 q 355 546 397 604 q 313 379 313 488 q 355 212 313 270 q 478 154 397 154 q 600 212 557 154 q 642 379 642 270 q 600 546 642 488 q 478 604 557 604 m 478 778 q 784 672 674 778 q 895 379 895 566 q 784 86 895 192 q 478 -20 674 -20 q 171 86 281 -20 q 60 379 60 192 q 171 672 60 566 q 478 778 281 778 z "},"p":{"ha":994,"x_min":117,"x_max":932,"o":"m 359 110 l 359 -289 l 117 -289 l 117 760 l 359 760 l 359 648 q 471 746 410 715 q 611 778 532 778 q 842 666 751 778 q 932 379 932 555 q 842 92 932 203 q 611 -20 751 -20 q 471 12 532 -20 q 359 110 410 43 m 521 602 q 401 544 443 602 q 359 379 359 487 q 401 214 359 271 q 521 157 443 157 q 640 214 599 157 q 681 379 681 271 q 640 545 681 488 q 521 602 599 602 z "},"q":{"ha":994,"x_min":62,"x_max":878,"o":"m 473 602 q 355 545 396 602 q 314 379 314 488 q 355 214 314 271 q 473 157 396 157 q 592 214 551 157 q 633 379 633 271 q 592 545 633 488 q 473 602 551 602 m 633 110 q 523 12 583 43 q 383 -20 463 -20 q 153 92 243 -20 q 62 379 62 203 q 153 666 62 555 q 383 777 243 777 q 523 745 463 777 q 633 647 583 714 l 633 760 l 878 760 l 878 -289 l 633 -289 l 633 110 z "},"r":{"ha":685,"x_min":117,"x_max":681,"o":"m 681 553 q 617 575 649 568 q 554 582 586 582 q 410 522 460 582 q 359 350 359 462 l 359 0 l 117 0 l 117 760 l 359 760 l 359 635 q 467 744 406 709 q 612 778 528 778 q 639 777 625 778 q 680 772 653 776 l 681 553 z "},"s":{"ha":827,"x_min":72,"x_max":761,"o":"m 710 736 l 710 551 q 559 600 632 584 q 422 616 487 616 q 320 599 353 616 q 286 546 286 582 q 312 501 286 517 q 403 478 337 486 l 446 472 q 696 394 632 448 q 761 224 761 340 q 671 41 761 102 q 404 -20 582 -20 q 249 -8 329 -20 q 83 28 168 4 l 83 212 q 232 159 156 177 q 387 142 309 142 q 494 161 458 142 q 530 220 530 181 q 506 268 530 252 q 407 293 481 284 l 364 298 q 137 374 202 319 q 72 541 72 429 q 155 720 72 661 q 408 778 237 778 q 549 768 475 778 q 710 736 623 758 z "},"t":{"ha":664,"x_min":18,"x_max":632,"o":"m 382 975 l 382 760 l 632 760 l 632 586 l 382 586 l 382 264 q 403 192 382 211 q 486 174 424 174 l 611 174 l 611 0 l 403 0 q 199 60 259 0 q 139 264 139 120 l 139 586 l 18 586 l 18 760 l 139 760 l 139 975 l 382 975 z "},"u":{"ha":989,"x_min":109,"x_max":872,"o":"m 109 296 l 109 760 l 353 760 l 353 684 q 352 529 353 622 q 351 404 351 435 q 356 272 351 313 q 372 214 361 232 q 411 177 387 190 q 467 164 435 164 q 586 222 543 164 q 629 385 629 281 l 629 760 l 872 760 l 872 0 l 629 0 l 629 110 q 513 12 574 43 q 378 -20 452 -20 q 177 61 246 -20 q 109 296 109 142 z "},"v":{"ha":905,"x_min":21,"x_max":885,"o":"m 21 760 l 264 760 l 453 235 l 642 760 l 885 760 l 586 0 l 319 0 l 21 760 z "},"w":{"ha":1283,"x_min":49,"x_max":1235,"o":"m 49 760 l 285 760 l 412 236 l 541 760 l 743 760 l 871 241 l 999 760 l 1235 760 l 1035 0 l 770 0 l 642 522 l 514 0 l 249 0 l 49 760 z "},"x":{"ha":896,"x_min":21,"x_max":875,"o":"m 309 389 l 35 760 l 292 760 l 447 534 l 604 760 l 861 760 l 587 390 l 875 0 l 618 0 l 447 240 l 278 0 l 21 0 l 309 389 z "},"y":{"ha":905,"x_min":17,"x_max":880,"o":"m 17 760 l 260 760 l 464 244 l 637 760 l 880 760 l 561 -72 q 449 -249 513 -199 q 279 -300 385 -300 l 139 -300 l 139 -140 l 215 -140 q 305 -121 277 -140 q 349 -50 333 -101 l 355 -29 l 17 760 z "},"z":{"ha":808,"x_min":62,"x_max":742,"o":"m 79 760 l 742 760 l 742 590 l 342 174 l 742 174 l 742 0 l 62 0 l 62 170 l 463 586 l 79 586 l 79 760 z "},"{":{"ha":989,"x_min":174,"x_max":815,"o":"m 815 -74 l 815 -227 l 668 -227 q 452 -167 520 -227 q 385 24 385 -107 l 385 154 q 348 295 385 256 q 215 335 311 335 l 174 335 l 174 486 l 215 486 q 348 526 311 486 q 385 667 385 565 l 385 806 q 452 996 385 937 q 668 1055 520 1055 l 815 1055 l 815 903 l 768 903 q 644 873 673 903 q 615 747 615 844 l 615 635 q 585 480 615 528 q 479 415 554 432 q 585 349 555 397 q 615 195 615 300 l 615 82 q 644 -44 615 -15 q 768 -74 673 -74 l 815 -74 z "},"|":{"ha":507,"x_min":176,"x_max":330,"o":"m 330 1061 l 330 -328 l 176 -328 l 176 1061 l 330 1061 z "},"}":{"ha":989,"x_min":174,"x_max":815,"o":"m 174 -74 l 221 -74 q 345 -44 316 -74 q 374 82 374 -15 l 374 195 q 404 349 374 300 q 510 415 435 397 q 404 480 435 432 q 374 635 374 528 l 374 747 q 345 873 374 844 q 221 903 316 903 l 174 903 l 174 1055 l 321 1055 q 536 996 469 1055 q 604 806 604 937 l 604 667 q 641 526 604 565 q 774 486 677 486 l 815 486 l 815 335 l 774 335 q 641 295 677 335 q 604 154 604 256 l 604 24 q 536 -167 604 -107 q 321 -227 469 -227 l 174 -227 l 174 -74 z "},"~":{"ha":1164,"x_min":147,"x_max":1017,"o":"m 1017 576 l 1017 411 q 884 333 945 357 q 758 310 823 310 q 589 349 686 310 q 574 355 579 353 q 559 361 569 357 q 390 403 454 403 q 272 377 330 403 q 147 294 214 351 l 147 460 q 280 537 220 514 q 406 561 340 561 q 575 522 478 561 q 590 515 585 517 q 605 509 595 513 q 774 468 710 468 q 889 493 832 468 q 1017 576 947 519 z "}," ":{"ha":484,"x_min":0,"x_max":0,"o":""},"¡":{"ha":633,"x_min":195,"x_max":439,"o":"m 195 -253 l 195 136 l 229 419 l 404 419 l 439 136 l 439 -253 l 195 -253 m 195 518 l 195 760 l 439 760 l 439 518 l 195 518 z "},"¢":{"ha":966,"x_min":118,"x_max":787,"o":"m 476 582 q 397 502 423 552 q 371 379 371 452 q 397 255 371 305 q 476 176 423 205 l 476 582 m 787 736 l 787 538 q 689 587 737 570 q 596 604 640 604 l 586 604 l 586 155 q 697 172 646 155 q 787 221 749 189 l 787 22 q 682 -9 731 2 q 593 -20 632 -20 l 586 -20 l 586 -212 l 476 -212 l 476 -17 q 208 113 298 10 q 118 390 118 215 q 210 654 118 555 q 476 777 301 753 l 476 971 l 586 971 l 587 777 q 685 765 635 774 q 787 736 734 755 z "},"£":{"ha":966,"x_min":85,"x_max":851,"o":"m 843 994 l 843 800 q 745 840 795 827 q 643 852 695 852 q 525 810 563 852 q 486 679 486 768 l 486 564 l 739 564 l 739 401 l 486 401 l 486 180 l 851 180 l 851 0 l 85 0 l 85 180 l 239 180 l 239 401 l 107 401 l 107 564 l 239 564 l 239 679 q 325 947 239 863 q 597 1031 411 1031 q 721 1022 660 1031 q 843 994 783 1013 z "},"¤":{"ha":884,"x_min":50,"x_max":835,"o":"m 294 182 l 154 41 l 50 146 l 191 286 q 162 356 172 319 q 153 435 153 392 q 163 514 153 477 q 193 582 173 551 l 52 721 l 155 825 l 296 685 q 365 715 328 705 q 443 725 401 725 q 516 716 479 725 q 591 688 553 707 l 732 828 l 835 724 l 694 583 q 724 509 714 546 q 733 435 733 471 q 723 356 733 392 q 693 289 713 321 l 833 149 l 729 45 l 589 184 q 522 154 557 164 q 443 144 486 144 q 367 154 404 144 q 294 182 330 163 m 443 286 q 548 329 505 286 q 591 435 591 372 q 548 540 591 497 q 443 583 505 583 q 338 540 381 583 q 294 435 294 497 q 337 329 294 372 q 443 286 380 286 z "},"¥":{"ha":966,"x_min":17,"x_max":950,"o":"m 921 282 l 612 282 l 612 0 l 354 0 l 354 282 l 46 282 l 46 414 l 354 414 l 354 458 l 321 517 l 46 517 l 46 647 l 244 647 l 17 1013 l 288 1013 l 484 700 l 679 1013 l 950 1013 l 722 647 l 921 647 l 921 517 l 646 517 l 612 458 l 612 414 l 921 414 l 921 282 z "},"¦":{"ha":507,"x_min":176,"x_max":330,"o":"m 330 971 l 330 457 l 176 457 l 176 971 l 330 971 m 330 277 l 330 -237 l 176 -237 l 176 277 l 330 277 z "},"§":{"ha":694,"x_min":9,"x_max":689,"o":"m 600 991 l 600 838 q 479 877 533 864 q 387 890 426 890 q 311 874 336 890 q 285 825 285 857 q 412 726 285 780 q 439 715 430 719 q 635 596 581 655 q 689 453 689 538 q 651 320 689 374 q 533 233 612 266 q 611 167 585 205 q 636 79 636 129 q 554 -76 636 -19 q 328 -132 472 -132 q 209 -122 270 -132 q 78 -93 147 -113 l 78 68 q 218 25 156 40 q 318 11 279 11 q 389 28 362 11 q 415 72 415 45 q 293 170 415 119 q 256 184 269 179 q 64 304 118 243 q 9 453 9 365 q 47 576 9 524 q 161 663 85 628 q 89 735 111 697 q 66 823 66 772 q 144 976 66 921 q 358 1031 222 1031 q 476 1021 415 1031 q 600 991 537 1011 m 294 581 q 225 536 248 562 q 203 476 203 510 q 244 397 203 431 q 410 319 286 364 q 477 362 454 335 q 501 424 501 389 q 454 505 501 469 q 294 581 408 541 z "},"¨":{"ha":694,"x_min":134,"x_max":561,"o":"m 134 1075 l 293 1075 l 293 908 l 134 908 l 134 1075 m 401 1075 l 561 1075 l 561 908 l 401 908 l 401 1075 z "},"©":{"ha":1389,"x_min":192,"x_max":1197,"o":"m 897 764 l 897 618 q 821 655 859 643 q 745 667 783 667 q 625 623 668 667 q 582 503 582 580 q 625 382 582 425 q 745 339 667 339 q 827 351 788 339 q 897 387 866 363 l 897 243 q 809 220 853 228 q 722 212 764 212 q 493 292 579 212 q 407 503 407 371 q 493 714 407 635 q 722 793 579 793 q 812 786 769 793 q 897 764 856 779 m 694 903 q 542 873 612 903 q 412 785 471 844 q 324 655 353 726 q 294 503 294 585 q 324 350 294 420 q 412 221 353 280 q 542 134 471 163 q 694 104 612 104 q 848 133 778 104 q 977 221 918 162 q 1065 350 1036 280 q 1095 503 1095 420 q 1065 655 1095 585 q 977 785 1036 726 q 847 873 917 844 q 694 903 777 903 m 694 1007 q 887 970 798 1007 q 1050 859 976 932 q 1160 696 1124 785 q 1197 503 1197 607 q 1160 311 1197 399 q 1050 149 1124 222 q 887 37 976 75 q 694 0 798 0 q 502 37 591 0 q 339 149 413 75 q 229 311 265 222 q 192 503 192 399 q 229 696 192 607 q 339 859 265 785 q 502 970 413 932 q 694 1007 591 1007 z "},"ª":{"ha":783,"x_min":107,"x_max":679,"o":"m 119 389 l 671 389 l 671 253 l 119 253 l 119 389 m 436 733 q 311 715 346 733 q 275 656 275 698 q 298 602 275 621 q 359 582 320 582 q 458 621 420 582 q 497 718 497 659 l 497 733 l 436 733 m 679 790 l 679 486 l 513 486 l 513 572 q 428 496 475 521 q 317 472 380 472 q 163 517 218 472 q 107 642 107 563 q 178 782 107 737 q 403 827 250 827 l 496 827 l 496 840 q 466 898 496 878 q 378 918 435 918 q 262 906 319 918 q 153 871 206 895 l 153 993 q 272 1021 215 1012 q 380 1031 330 1031 q 606 971 532 1031 q 679 790 679 912 z "},"«":{"ha":897,"x_min":107,"x_max":766,"o":"m 441 721 l 441 557 l 243 407 l 441 257 l 441 93 l 107 343 l 107 469 l 441 721 m 766 721 l 766 557 l 568 407 l 766 257 l 766 93 l 432 343 l 432 469 l 766 721 z "},"¬":{"ha":1164,"x_min":147,"x_max":1017,"o":"m 147 616 l 1017 616 l 1017 195 l 857 195 l 857 456 l 147 456 l 147 616 z "},"­":{"ha":576,"x_min":75,"x_max":501,"o":"m 75 498 l 501 498 l 501 301 l 75 301 l 75 498 z "},"®":{"ha":1389,"x_min":192,"x_max":1197,"o":"m 694 903 q 542 873 612 903 q 412 785 471 844 q 324 655 353 726 q 294 503 294 585 q 324 350 294 420 q 412 221 353 280 q 542 134 471 163 q 694 104 612 104 q 848 133 778 104 q 977 221 918 162 q 1065 350 1036 280 q 1095 503 1095 420 q 1065 655 1095 585 q 977 785 1036 726 q 847 873 917 844 q 694 903 777 903 m 656 703 l 632 703 l 632 562 l 656 562 q 735 580 709 562 q 762 633 762 598 q 736 686 762 669 q 656 703 710 703 m 681 796 q 859 756 800 796 q 918 633 918 715 q 883 537 918 575 q 782 488 847 499 q 834 446 810 473 q 878 379 858 418 l 953 229 l 798 229 l 725 374 q 680 449 699 427 q 640 471 660 471 l 632 471 l 632 229 l 488 229 l 488 796 l 681 796 m 694 1007 q 887 970 798 1007 q 1050 859 976 932 q 1160 696 1124 785 q 1197 503 1197 607 q 1160 311 1197 399 q 1050 149 1124 222 q 887 37 976 75 q 694 0 798 0 q 502 37 591 0 q 339 149 413 75 q 229 311 265 222 q 192 503 192 399 q 229 696 192 607 q 339 859 265 785 q 502 970 413 932 q 694 1007 591 1007 z "},"¯":{"ha":694,"x_min":134,"x_max":561,"o":"m 134 1055 l 561 1055 l 561 928 l 134 928 l 134 1055 z "},"°":{"ha":694,"x_min":121,"x_max":572,"o":"m 347 930 q 264 897 298 930 q 231 814 231 863 q 264 732 231 765 q 347 699 298 699 q 430 732 396 699 q 464 814 464 766 q 430 897 464 863 q 347 930 395 930 m 347 1040 q 433 1023 392 1040 q 507 974 475 1006 q 556 901 539 941 q 572 814 572 860 q 556 727 572 768 q 509 656 539 686 q 434 606 476 623 q 346 589 392 589 q 185 653 250 589 q 121 814 121 718 q 186 975 121 909 q 347 1040 252 1040 z "},"±":{"ha":1164,"x_min":147,"x_max":1017,"o":"m 663 871 l 663 631 l 1017 631 l 1017 471 l 663 471 l 663 231 l 501 231 l 501 471 l 147 471 l 147 631 l 501 631 l 501 871 l 663 871 m 147 161 l 1017 161 l 1017 0 l 147 0 l 147 161 z "},"²":{"ha":608,"x_min":74,"x_max":530,"o":"m 279 567 l 530 567 l 530 453 l 74 453 l 74 557 l 286 737 q 345 800 328 773 q 363 854 363 827 q 338 909 363 888 q 273 930 313 930 q 183 915 231 930 q 78 868 135 900 l 78 994 q 192 1022 137 1013 q 298 1031 248 1031 q 467 987 406 1031 q 528 868 528 943 q 504 778 528 819 q 411 679 479 737 l 279 567 z "},"³":{"ha":608,"x_min":61,"x_max":533,"o":"m 401 760 q 498 710 464 747 q 533 618 533 673 q 466 487 533 530 q 262 443 399 443 q 157 451 208 443 q 61 473 107 458 l 61 591 q 149 554 106 567 q 233 542 193 542 q 333 564 298 542 q 368 625 368 585 q 332 689 368 669 q 218 710 296 710 l 168 710 l 168 803 l 225 803 q 322 819 292 803 q 353 869 353 835 q 326 915 353 900 q 245 930 300 930 q 169 922 210 930 q 79 895 127 913 l 79 1007 q 175 1025 123 1019 q 285 1031 226 1031 q 458 993 398 1031 q 518 884 518 955 q 488 804 518 837 q 401 760 457 772 z "},"´":{"ha":694,"x_min":248,"x_max":631,"o":"m 439 1111 l 631 1111 l 380 856 l 248 856 l 439 1111 z "},"µ":{"ha":1022,"x_min":118,"x_max":978,"o":"m 118 -290 l 118 760 l 363 760 l 363 318 q 397 201 363 239 q 500 163 431 163 q 604 201 570 163 q 637 318 637 239 l 637 760 l 882 760 l 882 252 q 893 184 882 203 q 930 165 904 165 q 954 169 943 165 q 978 180 965 172 l 978 11 q 910 -12 942 -5 q 848 -20 879 -20 q 750 6 788 -20 q 688 87 711 31 q 610 7 656 34 q 504 -20 564 -20 q 418 -4 454 -20 q 363 45 383 12 l 363 -290 l 118 -290 z "},"¶":{"ha":884,"x_min":87,"x_max":762,"o":"m 410 1013 l 762 1013 l 762 -134 l 633 -134 l 633 913 l 505 913 l 505 -134 l 376 -134 l 376 440 q 163 531 238 457 q 87 726 87 606 q 176 934 87 855 q 410 1013 264 1013 z "},"·":{"ha":528,"x_min":142,"x_max":386,"o":"m 142 614 l 386 614 l 386 351 l 142 351 l 142 614 z "},"¸":{"ha":694,"x_min":178,"x_max":485,"o":"m 408 0 q 466 -78 448 -42 q 485 -146 485 -114 q 443 -241 485 -210 q 315 -272 401 -272 q 248 -268 283 -272 q 178 -254 214 -263 l 178 -151 q 240 -167 212 -162 q 290 -172 268 -172 q 352 -157 330 -172 q 374 -114 374 -141 q 359 -68 374 -96 q 314 0 345 -41 l 408 0 z "},"¹":{"ha":608,"x_min":83,"x_max":530,"o":"m 96 559 l 236 559 l 236 913 l 83 878 l 83 986 l 239 1019 l 392 1019 l 392 559 l 530 559 l 530 453 l 96 453 l 96 559 z "},"º":{"ha":783,"x_min":79,"x_max":704,"o":"m 392 1031 q 620 956 536 1031 q 704 751 704 880 q 621 548 704 623 q 392 473 537 473 q 163 548 247 473 q 79 751 79 623 q 163 956 79 880 q 392 1031 247 1031 m 113 389 l 671 389 l 671 253 l 113 253 l 113 389 m 392 916 q 304 873 335 916 q 273 751 273 830 q 304 631 273 673 q 392 589 335 589 q 479 631 448 589 q 510 751 510 673 q 479 873 510 830 q 392 916 448 916 z "},"»":{"ha":897,"x_min":131,"x_max":790,"o":"m 456 721 l 790 469 l 790 343 l 456 93 l 456 257 l 654 407 l 456 557 l 456 721 m 131 721 l 464 469 l 464 343 l 131 93 l 131 257 l 329 407 l 131 557 l 131 721 z "},"¼":{"ha":1438,"x_min":68,"x_max":1329,"o":"m 1080 434 l 918 215 l 1080 215 l 1080 434 m 1068 566 l 1236 566 l 1236 215 l 1329 215 l 1329 110 l 1236 110 l 1236 0 l 1080 0 l 1080 110 l 815 110 l 815 224 l 1068 566 m 498 -20 l 346 -20 l 979 1031 l 1131 1031 l 498 -20 m 80 559 l 220 559 l 220 913 l 68 878 l 68 986 l 223 1019 l 376 1019 l 376 559 l 515 559 l 515 453 l 80 453 l 80 559 z "},"½":{"ha":1438,"x_min":68,"x_max":1371,"o":"m 498 -20 l 346 -20 l 979 1031 l 1131 1031 l 498 -20 m 1120 114 l 1371 114 l 1371 0 l 914 0 l 914 104 l 1126 284 q 1185 347 1168 320 q 1203 401 1203 374 q 1178 456 1203 435 q 1114 477 1154 477 q 1023 462 1072 477 q 918 415 975 447 l 918 541 q 1033 569 977 559 q 1139 578 1088 578 q 1307 534 1246 578 q 1368 415 1368 490 q 1344 325 1368 366 q 1251 226 1320 284 l 1120 114 m 80 559 l 220 559 l 220 913 l 68 878 l 68 986 l 223 1019 l 376 1019 l 376 559 l 515 559 l 515 453 l 80 453 l 80 559 z "},"¾":{"ha":1438,"x_min":71,"x_max":1329,"o":"m 1080 434 l 918 215 l 1080 215 l 1080 434 m 1068 566 l 1236 566 l 1236 215 l 1329 215 l 1329 110 l 1236 110 l 1236 0 l 1080 0 l 1080 110 l 815 110 l 815 224 l 1068 566 m 498 -20 l 346 -20 l 979 1031 l 1131 1031 l 498 -20 m 411 760 q 508 710 473 747 q 543 618 543 673 q 475 487 543 530 q 272 443 408 443 q 167 451 217 443 q 71 473 117 458 l 71 591 q 159 554 115 567 q 243 542 202 542 q 342 564 307 542 q 378 625 378 585 q 341 689 378 669 q 228 710 305 710 l 178 710 l 178 803 l 235 803 q 332 819 301 803 q 362 869 362 835 q 336 915 362 900 q 255 930 309 930 q 178 922 220 930 q 89 895 136 913 l 89 1007 q 184 1025 133 1019 q 294 1031 235 1031 q 468 993 408 1031 q 528 884 528 955 q 497 804 528 837 q 411 760 467 772 z "},"¿":{"ha":806,"x_min":96,"x_max":715,"o":"m 330 416 l 575 416 l 575 383 q 553 286 575 328 q 457 175 531 243 l 414 136 q 358 70 376 101 q 340 7 340 39 q 373 -68 340 -41 q 464 -95 406 -95 q 583 -72 519 -95 q 715 -4 647 -49 l 715 -217 q 566 -259 635 -245 q 435 -273 497 -273 q 182 -205 269 -273 q 96 -9 96 -138 q 122 111 96 58 q 212 223 149 163 l 256 262 q 316 330 302 304 q 330 386 330 355 l 330 416 m 575 518 l 330 518 l 330 760 l 575 760 l 575 518 z "},"À":{"ha":1075,"x_min":7,"x_max":1068,"o":"m 742 184 l 334 184 l 269 0 l 7 0 l 382 1013 l 693 1013 l 1068 0 l 806 0 l 742 184 m 399 372 l 676 372 l 538 775 l 399 372 m 486 1288 l 621 1109 l 488 1109 l 294 1288 l 486 1288 z "},"Á":{"ha":1075,"x_min":7,"x_max":1068,"o":"m 742 184 l 334 184 l 269 0 l 7 0 l 382 1013 l 693 1013 l 1068 0 l 806 0 l 742 184 m 399 372 l 676 372 l 538 775 l 399 372 m 555 1288 l 747 1288 l 554 1109 l 421 1109 l 555 1288 z "},"Â":{"ha":1075,"x_min":7,"x_max":1068,"o":"m 742 184 l 334 184 l 269 0 l 7 0 l 382 1013 l 693 1013 l 1068 0 l 806 0 l 742 184 m 399 372 l 676 372 l 538 775 l 399 372 m 433 1288 l 642 1288 l 793 1109 l 672 1109 l 537 1218 l 402 1109 l 281 1109 l 433 1288 z "},"Ã":{"ha":1075,"x_min":7,"x_max":1068,"o":"m 742 184 l 334 184 l 269 0 l 7 0 l 382 1013 l 693 1013 l 1068 0 l 806 0 l 742 184 m 399 372 l 676 372 l 538 775 l 399 372 m 538 1146 l 500 1170 q 494 1174 498 1171 q 444 1192 463 1192 q 409 1171 422 1192 q 395 1117 395 1151 l 395 1113 l 301 1113 q 302 1123 301 1116 q 302 1133 302 1130 q 339 1249 302 1205 q 434 1293 375 1293 q 484 1285 459 1293 q 536 1260 509 1276 l 576 1234 q 603 1219 590 1224 q 627 1214 616 1214 q 666 1234 652 1214 q 679 1293 679 1255 l 773 1293 q 772 1282 773 1289 q 772 1272 772 1276 q 735 1157 772 1200 q 640 1113 699 1113 q 591 1120 614 1113 q 538 1146 567 1128 z "},"Ä":{"ha":1075,"x_min":7,"x_max":1068,"o":"m 742 184 l 334 184 l 269 0 l 7 0 l 382 1013 l 693 1013 l 1068 0 l 806 0 l 742 184 m 399 372 l 676 372 l 538 775 l 399 372 m 319 1288 l 479 1288 l 479 1121 l 319 1121 l 319 1288 m 587 1288 l 747 1288 l 747 1121 l 587 1121 l 587 1288 z "},"Å":{"ha":1075,"x_min":7,"x_max":1068,"o":"m 700 993 l 1068 0 l 806 0 l 742 184 l 334 184 l 269 0 l 7 0 l 375 993 q 352 1041 359 1016 q 345 1096 345 1067 q 401 1232 345 1175 q 538 1289 458 1289 q 673 1232 616 1289 q 730 1096 730 1175 q 723 1038 730 1064 q 700 993 715 1013 m 449 1096 q 475 1033 449 1059 q 538 1007 501 1007 q 601 1033 574 1007 q 627 1096 627 1059 q 600 1159 627 1133 q 538 1185 574 1185 q 475 1159 501 1185 q 449 1096 449 1133 m 399 372 l 676 372 l 538 775 l 399 372 z "},"Æ":{"ha":1507,"x_min":0,"x_max":1406,"o":"m 604 839 l 431 425 l 686 425 l 686 839 l 604 839 m 424 1013 l 1390 1013 l 1390 815 l 947 815 l 947 627 l 1364 627 l 1364 429 l 947 429 l 947 197 l 1406 197 l 1406 0 l 686 0 l 686 237 l 351 237 l 252 0 l 0 0 l 424 1013 z "},"Ç":{"ha":1019,"x_min":69,"x_max":930,"o":"m 930 56 q 781 -1 859 18 q 618 -20 703 -20 q 217 122 365 -20 q 69 505 69 263 q 217 889 69 748 q 618 1031 365 1031 q 781 1012 703 1031 q 930 956 859 993 l 930 746 q 787 819 858 795 q 639 842 717 842 q 419 752 499 842 q 339 505 339 663 q 419 259 339 349 q 639 170 499 170 q 787 193 717 170 q 930 265 858 216 l 930 56 m 660 0 q 718 -78 699 -42 q 736 -146 736 -114 q 695 -241 736 -210 q 567 -272 653 -272 q 500 -268 534 -272 q 430 -254 465 -263 l 429 -151 q 491 -167 463 -162 q 542 -172 519 -172 q 603 -157 581 -172 q 625 -114 625 -141 q 611 -68 625 -96 q 566 0 596 -41 l 660 0 z "},"È":{"ha":949,"x_min":127,"x_max":847,"o":"m 127 1013 l 832 1013 l 832 815 l 389 815 l 389 627 l 806 627 l 806 429 l 389 429 l 389 197 l 847 197 l 847 0 l 127 0 l 127 1013 m 435 1288 l 569 1109 l 436 1109 l 243 1288 l 435 1288 z "},"É":{"ha":949,"x_min":127,"x_max":847,"o":"m 127 1013 l 832 1013 l 832 815 l 389 815 l 389 627 l 806 627 l 806 429 l 389 429 l 389 197 l 847 197 l 847 0 l 127 0 l 127 1013 m 504 1288 l 696 1288 l 503 1109 l 370 1109 l 504 1288 z "},"Ê":{"ha":949,"x_min":127,"x_max":847,"o":"m 127 1013 l 832 1013 l 832 815 l 389 815 l 389 627 l 806 627 l 806 429 l 389 429 l 389 197 l 847 197 l 847 0 l 127 0 l 127 1013 m 365 1288 l 574 1288 l 725 1109 l 604 1109 l 469 1218 l 334 1109 l 214 1109 l 365 1288 z "},"Ë":{"ha":949,"x_min":127,"x_max":847,"o":"m 127 1013 l 832 1013 l 832 815 l 389 815 l 389 627 l 806 627 l 806 429 l 389 429 l 389 197 l 847 197 l 847 0 l 127 0 l 127 1013 m 256 1288 l 415 1288 l 415 1121 l 256 1121 l 256 1288 m 524 1288 l 683 1288 l 683 1121 l 524 1121 l 524 1288 z "},"Ì":{"ha":517,"x_min":15,"x_max":389,"o":"m 127 1013 l 389 1013 l 389 0 l 127 0 l 127 1013 m 207 1288 l 341 1109 l 208 1109 l 15 1288 l 207 1288 z "},"Í":{"ha":517,"x_min":127,"x_max":468,"o":"m 127 1013 l 389 1013 l 389 0 l 127 0 l 127 1013 m 276 1288 l 468 1288 l 275 1109 l 142 1109 l 276 1288 z "},"Î":{"ha":517,"x_min":2,"x_max":513,"o":"m 127 1013 l 389 1013 l 389 0 l 127 0 l 127 1013 m 153 1288 l 362 1288 l 513 1109 l 393 1109 l 258 1218 l 123 1109 l 2 1109 l 153 1288 z "},"Ï":{"ha":517,"x_min":44,"x_max":471,"o":"m 127 1013 l 389 1013 l 389 0 l 127 0 l 127 1013 m 44 1288 l 203 1288 l 203 1121 l 44 1121 l 44 1288 m 312 1288 l 471 1288 l 471 1121 l 312 1121 l 312 1288 z "},"Ð":{"ha":1164,"x_min":22,"x_max":1093,"o":"m 401 815 l 401 597 l 561 597 l 561 421 l 401 421 l 401 197 l 494 197 q 739 277 654 197 q 823 507 823 356 q 739 736 823 658 q 494 815 655 815 l 401 815 m 140 1013 l 415 1013 q 759 980 646 1013 q 953 868 871 947 q 1058 710 1023 800 q 1093 507 1093 621 q 1058 303 1093 393 q 953 144 1023 213 q 757 33 871 66 q 415 0 643 0 l 140 0 l 140 421 l 22 421 l 22 597 l 140 597 l 140 1013 z "},"Ñ":{"ha":1162,"x_min":127,"x_max":1035,"o":"m 127 1013 l 419 1013 l 787 318 l 787 1013 l 1035 1013 l 1035 0 l 743 0 l 375 694 l 375 0 l 127 0 l 127 1013 m 558 1142 l 520 1166 q 513 1170 518 1167 q 464 1187 483 1187 q 429 1167 442 1187 q 415 1113 415 1147 l 415 1109 l 321 1109 q 321 1119 321 1112 q 322 1129 322 1126 q 358 1245 322 1201 q 454 1289 395 1289 q 504 1281 479 1289 q 555 1256 529 1272 l 595 1230 q 623 1215 610 1220 q 647 1210 636 1210 q 685 1230 672 1210 q 699 1289 699 1251 l 793 1289 q 792 1278 793 1285 q 791 1268 791 1272 q 755 1153 791 1196 q 660 1109 719 1109 q 610 1116 634 1109 q 558 1142 587 1124 z "},"Ò":{"ha":1181,"x_min":69,"x_max":1111,"o":"m 590 842 q 405 753 471 842 q 339 505 339 665 q 405 258 339 346 q 590 170 471 170 q 776 258 710 170 q 842 505 842 346 q 776 753 842 665 q 590 842 710 842 m 590 1031 q 972 891 834 1031 q 1111 505 1111 751 q 972 120 1111 260 q 590 -20 834 -20 q 208 120 347 -20 q 69 505 69 260 q 208 891 69 751 q 590 1031 347 1031 m 539 1288 l 673 1109 l 541 1109 l 347 1288 l 539 1288 z "},"Ó":{"ha":1181,"x_min":69,"x_max":1111,"o":"m 590 842 q 405 753 471 842 q 339 505 339 665 q 405 258 339 346 q 590 170 471 170 q 776 258 710 170 q 842 505 842 346 q 776 753 842 665 q 590 842 710 842 m 590 1031 q 972 891 834 1031 q 1111 505 1111 751 q 972 120 1111 260 q 590 -20 834 -20 q 208 120 347 -20 q 69 505 69 260 q 208 891 69 751 q 590 1031 347 1031 m 608 1288 l 800 1288 l 607 1109 l 474 1109 l 608 1288 z "},"Ô":{"ha":1181,"x_min":69,"x_max":1111,"o":"m 590 842 q 405 753 471 842 q 339 505 339 665 q 405 258 339 346 q 590 170 471 170 q 776 258 710 170 q 842 505 842 346 q 776 753 842 665 q 590 842 710 842 m 590 1031 q 972 891 834 1031 q 1111 505 1111 751 q 972 120 1111 260 q 590 -20 834 -20 q 208 120 347 -20 q 69 505 69 260 q 208 891 69 751 q 590 1031 347 1031 m 469 1288 l 678 1288 l 829 1109 l 709 1109 l 574 1218 l 439 1109 l 318 1109 l 469 1288 z "},"Õ":{"ha":1181,"x_min":69,"x_max":1111,"o":"m 590 842 q 405 753 471 842 q 339 505 339 665 q 405 258 339 346 q 590 170 471 170 q 776 258 710 170 q 842 505 842 346 q 776 753 842 665 q 590 842 710 842 m 590 1031 q 972 891 834 1031 q 1111 505 1111 751 q 972 120 1111 260 q 590 -20 834 -20 q 208 120 347 -20 q 69 505 69 260 q 208 891 69 751 q 590 1031 347 1031 m 592 1142 l 554 1166 q 547 1170 552 1167 q 498 1187 517 1187 q 463 1167 476 1187 q 449 1113 449 1147 l 449 1109 l 355 1109 q 355 1119 355 1112 q 356 1129 356 1126 q 392 1245 356 1201 q 488 1289 429 1289 q 538 1281 513 1289 q 589 1256 563 1272 l 629 1230 q 657 1215 644 1220 q 681 1210 670 1210 q 719 1230 706 1210 q 732 1289 732 1251 l 827 1289 q 826 1278 827 1285 q 825 1268 825 1272 q 789 1153 825 1196 q 694 1109 753 1109 q 644 1116 668 1109 q 592 1142 621 1124 z "},"Ö":{"ha":1181,"x_min":69,"x_max":1111,"o":"m 590 842 q 405 753 471 842 q 339 505 339 665 q 405 258 339 346 q 590 170 471 170 q 776 258 710 170 q 842 505 842 346 q 776 753 842 665 q 590 842 710 842 m 590 1031 q 972 891 834 1031 q 1111 505 1111 751 q 972 120 1111 260 q 590 -20 834 -20 q 208 120 347 -20 q 69 505 69 260 q 208 891 69 751 q 590 1031 347 1031 m 376 1288 l 536 1288 l 536 1121 l 376 1121 l 376 1288 m 644 1288 l 804 1288 l 804 1121 l 644 1121 l 644 1288 z "},"×":{"ha":1164,"x_min":174,"x_max":990,"o":"m 990 729 l 696 435 l 990 142 l 876 28 l 582 321 l 288 28 l 174 142 l 468 435 l 174 729 l 288 843 l 582 549 l 876 843 l 990 729 z "},"Ø":{"ha":1181,"x_min":31,"x_max":1143,"o":"m 410 252 q 489 190 445 210 q 590 170 534 170 q 776 258 710 170 q 842 505 842 346 q 837 591 842 551 q 821 664 831 631 l 410 252 m 768 764 q 690 822 734 803 q 590 842 646 842 q 405 753 471 842 q 339 505 339 665 q 344 424 339 462 q 358 354 349 385 l 768 764 m 170 165 q 94 318 119 233 q 69 505 69 403 q 208 891 69 751 q 590 1031 347 1031 q 779 1005 694 1031 q 932 928 863 980 l 1067 1063 l 1143 985 l 1007 850 q 1085 696 1059 783 q 1111 505 1111 610 q 972 120 1111 260 q 590 -20 834 -20 q 400 7 486 -20 q 244 87 313 34 l 107 -50 l 31 26 l 170 165 z "},"Ù":{"ha":1128,"x_min":127,"x_max":1000,"o":"m 127 1013 l 389 1013 l 389 406 q 430 226 389 280 q 564 172 471 172 q 698 226 657 172 q 739 406 739 280 l 739 1013 l 1000 1013 l 1000 406 q 892 85 1000 191 q 564 -20 785 -20 q 235 85 343 -20 q 127 406 127 191 l 127 1013 m 513 1288 l 647 1109 l 514 1109 l 321 1288 l 513 1288 z "},"Ú":{"ha":1128,"x_min":127,"x_max":1000,"o":"m 127 1013 l 389 1013 l 389 406 q 430 226 389 280 q 564 172 471 172 q 698 226 657 172 q 739 406 739 280 l 739 1013 l 1000 1013 l 1000 406 q 892 85 1000 191 q 564 -20 785 -20 q 235 85 343 -20 q 127 406 127 191 l 127 1013 m 582 1288 l 774 1288 l 581 1109 l 448 1109 l 582 1288 z "},"Û":{"ha":1128,"x_min":127,"x_max":1000,"o":"m 127 1013 l 389 1013 l 389 406 q 430 226 389 280 q 564 172 471 172 q 698 226 657 172 q 739 406 739 280 l 739 1013 l 1000 1013 l 1000 406 q 892 85 1000 191 q 564 -20 785 -20 q 235 85 343 -20 q 127 406 127 191 l 127 1013 m 460 1288 l 669 1288 l 820 1109 l 699 1109 l 564 1218 l 429 1109 l 309 1109 l 460 1288 z "},"Ü":{"ha":1128,"x_min":127,"x_max":1000,"o":"m 127 1013 l 389 1013 l 389 406 q 430 226 389 280 q 564 172 471 172 q 698 226 657 172 q 739 406 739 280 l 739 1013 l 1000 1013 l 1000 406 q 892 85 1000 191 q 564 -20 785 -20 q 235 85 343 -20 q 127 406 127 191 l 127 1013 m 351 1288 l 510 1288 l 510 1121 l 351 1121 l 351 1288 m 618 1288 l 778 1288 l 778 1121 l 618 1121 l 618 1288 z "},"Ý":{"ha":1006,"x_min":-14,"x_max":1019,"o":"m -14 1013 l 272 1013 l 503 652 l 733 1013 l 1019 1013 l 633 427 l 633 0 l 372 0 l 372 427 l -14 1013 m 521 1288 l 713 1288 l 519 1109 l 387 1109 l 521 1288 z "},"Þ":{"ha":1025,"x_min":127,"x_max":961,"o":"m 389 175 l 389 0 l 127 0 l 127 1013 l 389 1013 l 389 836 l 561 836 q 858 750 754 836 q 961 505 961 665 q 858 261 961 347 q 561 175 754 175 l 389 175 m 389 648 l 389 364 l 533 364 q 650 401 609 364 q 692 505 692 438 q 650 611 692 574 q 533 648 609 648 l 389 648 z "},"ß":{"ha":999,"x_min":117,"x_max":939,"o":"m 117 755 q 208 981 117 906 q 485 1055 300 1055 q 753 979 663 1055 q 844 755 844 903 l 844 707 q 693 674 742 701 q 644 597 644 648 q 661 553 644 572 q 741 498 677 534 l 787 473 q 902 373 866 430 q 939 236 939 315 q 861 44 939 108 q 627 -20 783 -20 q 536 -11 583 -20 q 439 14 489 -3 l 439 179 q 516 151 477 161 q 591 142 555 142 q 670 166 640 142 q 700 229 700 191 q 681 284 700 261 q 596 345 663 307 l 549 371 q 460 450 489 404 q 432 557 432 496 q 479 689 432 635 q 625 777 526 743 q 591 864 624 834 q 497 895 559 895 q 394 857 429 895 q 359 746 359 820 l 359 0 l 117 0 l 117 755 z "},"à":{"ha":937,"x_min":60,"x_max":828,"o":"m 457 342 q 343 316 381 342 q 304 240 304 290 q 335 168 304 194 q 421 142 366 142 q 536 191 490 142 q 583 314 583 240 l 583 342 l 457 342 m 828 433 l 828 0 l 583 0 l 583 113 q 473 12 534 43 q 325 -20 412 -20 q 133 49 207 -20 q 60 228 60 118 q 152 424 60 361 q 440 486 243 486 l 583 486 l 583 505 q 538 590 583 563 q 396 616 492 616 q 251 601 318 616 q 126 554 184 585 l 126 739 q 283 768 204 758 q 440 778 361 778 q 737 697 646 778 q 828 433 828 616 m 382 1111 l 573 856 l 440 856 l 190 1111 l 382 1111 z "},"á":{"ha":937,"x_min":60,"x_max":828,"o":"m 457 342 q 343 316 381 342 q 304 240 304 290 q 335 168 304 194 q 421 142 366 142 q 536 191 490 142 q 583 314 583 240 l 583 342 l 457 342 m 828 433 l 828 0 l 583 0 l 583 113 q 473 12 534 43 q 325 -20 412 -20 q 133 49 207 -20 q 60 228 60 118 q 152 424 60 361 q 440 486 243 486 l 583 486 l 583 505 q 538 590 583 563 q 396 616 492 616 q 251 601 318 616 q 126 554 184 585 l 126 739 q 283 768 204 758 q 440 778 361 778 q 737 697 646 778 q 828 433 828 616 m 565 1111 l 757 1111 l 507 856 l 374 856 l 565 1111 z "},"â":{"ha":937,"x_min":60,"x_max":828,"o":"m 457 342 q 343 316 381 342 q 304 240 304 290 q 335 168 304 194 q 421 142 366 142 q 536 191 490 142 q 583 314 583 240 l 583 342 l 457 342 m 828 433 l 828 0 l 583 0 l 583 113 q 473 12 534 43 q 325 -20 412 -20 q 133 49 207 -20 q 60 228 60 118 q 152 424 60 361 q 440 486 243 486 l 583 486 l 583 505 q 538 590 583 563 q 396 616 492 616 q 251 601 318 616 q 126 554 184 585 l 126 739 q 283 768 204 758 q 440 778 361 778 q 737 697 646 778 q 828 433 828 616 m 391 1111 l 555 1111 l 729 856 l 608 856 l 473 1008 l 338 856 l 218 856 l 391 1111 z "},"ã":{"ha":937,"x_min":60,"x_max":828,"o":"m 457 342 q 343 316 381 342 q 304 240 304 290 q 335 168 304 194 q 421 142 366 142 q 536 191 490 142 q 583 314 583 240 l 583 342 l 457 342 m 828 433 l 828 0 l 583 0 l 583 113 q 473 12 534 43 q 325 -20 412 -20 q 133 49 207 -20 q 60 228 60 118 q 152 424 60 361 q 440 486 243 486 l 583 486 l 583 505 q 538 590 583 563 q 396 616 492 616 q 251 601 318 616 q 126 554 184 585 l 126 739 q 283 768 204 758 q 440 778 361 778 q 737 697 646 778 q 828 433 828 616 m 475 925 l 437 950 q 431 954 435 951 q 382 975 399 975 q 345 954 357 975 q 332 893 332 933 l 332 888 l 237 888 q 272 1030 237 980 q 370 1080 307 1080 q 419 1071 395 1080 q 472 1042 444 1062 l 513 1013 q 541 997 528 1002 q 564 991 553 991 q 602 1013 588 991 q 615 1074 615 1035 l 615 1079 l 709 1079 q 674 937 709 987 q 576 886 640 886 q 529 895 552 886 q 475 925 507 903 z "},"ä":{"ha":937,"x_min":60,"x_max":828,"o":"m 457 342 q 343 316 381 342 q 304 240 304 290 q 335 168 304 194 q 421 142 366 142 q 536 191 490 142 q 583 314 583 240 l 583 342 l 457 342 m 828 433 l 828 0 l 583 0 l 583 113 q 473 12 534 43 q 325 -20 412 -20 q 133 49 207 -20 q 60 228 60 118 q 152 424 60 361 q 440 486 243 486 l 583 486 l 583 505 q 538 590 583 563 q 396 616 492 616 q 251 601 318 616 q 126 554 184 585 l 126 739 q 283 768 204 758 q 440 778 361 778 q 737 697 646 778 q 828 433 828 616 m 260 1075 l 419 1075 l 419 908 l 260 908 l 260 1075 m 528 1075 l 687 1075 l 687 908 l 528 908 l 528 1075 z "},"å":{"ha":937,"x_min":60,"x_max":828,"o":"m 457 342 q 343 316 381 342 q 304 240 304 290 q 335 168 304 194 q 421 142 366 142 q 536 191 490 142 q 583 314 583 240 l 583 342 l 457 342 m 828 433 l 828 0 l 583 0 l 583 113 q 473 12 534 43 q 325 -20 412 -20 q 133 49 207 -20 q 60 228 60 118 q 152 424 60 361 q 440 486 243 486 l 583 486 l 583 505 q 538 590 583 563 q 396 616 492 616 q 251 601 318 616 q 126 554 184 585 l 126 739 q 283 768 204 758 q 440 778 361 778 q 737 697 646 778 q 828 433 828 616 m 385 1040 q 411 977 385 1003 q 473 951 437 951 q 536 978 511 951 q 562 1040 562 1004 q 536 1103 562 1077 q 473 1129 510 1129 q 410 1103 436 1129 q 385 1040 385 1077 m 280 1040 q 337 1177 280 1120 q 473 1234 393 1234 q 610 1177 553 1234 q 667 1040 667 1120 q 610 904 667 960 q 473 847 553 847 q 337 904 393 847 q 280 1040 280 960 z "},"æ":{"ha":1455,"x_min":60,"x_max":1389,"o":"m 1139 463 q 1098 574 1139 532 q 993 616 1058 616 q 880 577 923 616 q 825 463 836 537 l 1139 463 m 457 342 q 343 316 381 342 q 304 240 304 290 q 335 168 304 194 q 421 142 366 142 q 536 191 490 142 q 583 314 583 240 l 583 342 l 457 342 m 126 739 q 282 768 207 758 q 424 778 358 778 q 599 752 526 778 q 721 672 673 726 q 842 751 773 724 q 994 778 911 778 q 1281 670 1174 778 q 1389 382 1389 562 l 1389 313 l 821 313 q 883 184 830 227 q 1031 142 935 142 q 1188 164 1107 142 q 1353 233 1268 187 l 1353 46 q 1180 -3 1267 14 q 1008 -20 1094 -20 q 797 17 887 -20 q 659 121 707 53 q 514 14 590 48 q 345 -20 439 -20 q 136 47 213 -20 q 60 228 60 114 q 152 424 60 361 q 440 486 243 486 l 583 486 l 583 505 q 538 590 583 563 q 396 616 492 616 q 251 601 318 616 q 126 554 184 585 l 126 739 z "},"ç":{"ha":823,"x_min":60,"x_max":730,"o":"m 730 736 l 730 538 q 631 588 681 572 q 528 604 581 604 q 369 545 426 604 q 313 379 313 486 q 369 213 313 273 q 528 154 426 154 q 636 171 585 154 q 730 221 687 188 l 730 22 q 615 -9 673 1 q 497 -20 556 -20 q 176 86 292 -20 q 60 379 60 191 q 176 672 60 567 q 497 778 292 778 q 615 767 557 778 q 730 736 673 757 m 533 0 q 591 -78 572 -42 q 610 -146 610 -114 q 568 -241 610 -210 q 440 -272 526 -272 q 373 -268 408 -272 q 303 -254 338 -263 l 302 -151 q 365 -167 336 -162 q 415 -172 393 -172 q 476 -157 454 -172 q 498 -114 498 -141 q 484 -68 498 -96 q 439 0 469 -41 l 533 0 z "},"è":{"ha":942,"x_min":60,"x_max":875,"o":"m 875 382 l 875 313 l 307 313 q 369 184 316 227 q 517 142 422 142 q 674 164 593 142 q 839 233 754 187 l 839 46 q 667 -3 753 14 q 494 -20 581 -20 q 174 85 288 -20 q 60 379 60 190 q 172 671 60 565 q 481 778 284 778 q 767 670 660 778 q 875 382 875 562 m 625 463 q 585 574 625 532 q 479 616 545 616 q 365 577 409 616 q 310 463 321 537 l 625 463 m 403 1111 l 594 856 l 461 856 l 211 1111 l 403 1111 z "},"é":{"ha":942,"x_min":60,"x_max":875,"o":"m 875 382 l 875 313 l 307 313 q 369 184 316 227 q 517 142 422 142 q 674 164 593 142 q 839 233 754 187 l 839 46 q 667 -3 753 14 q 494 -20 581 -20 q 174 85 288 -20 q 60 379 60 190 q 172 671 60 565 q 481 778 284 778 q 767 670 660 778 q 875 382 875 562 m 625 463 q 585 574 625 532 q 479 616 545 616 q 365 577 409 616 q 310 463 321 537 l 625 463 m 586 1111 l 778 1111 l 528 856 l 395 856 l 586 1111 z "},"ê":{"ha":942,"x_min":60,"x_max":875,"o":"m 875 382 l 875 313 l 307 313 q 369 184 316 227 q 517 142 422 142 q 674 164 593 142 q 839 233 754 187 l 839 46 q 667 -3 753 14 q 494 -20 581 -20 q 174 85 288 -20 q 60 379 60 190 q 172 671 60 565 q 481 778 284 778 q 767 670 660 778 q 875 382 875 562 m 625 463 q 585 574 625 532 q 479 616 545 616 q 365 577 409 616 q 310 463 321 537 l 625 463 m 412 1111 l 576 1111 l 750 856 l 629 856 l 494 1008 l 359 856 l 239 856 l 412 1111 z "},"ë":{"ha":942,"x_min":60,"x_max":875,"o":"m 875 382 l 875 313 l 307 313 q 369 184 316 227 q 517 142 422 142 q 674 164 593 142 q 839 233 754 187 l 839 46 q 667 -3 753 14 q 494 -20 581 -20 q 174 85 288 -20 q 60 379 60 190 q 172 671 60 565 q 481 778 284 778 q 767 670 660 778 q 875 382 875 562 m 625 463 q 585 574 625 532 q 479 616 545 616 q 365 577 409 616 q 310 463 321 537 l 625 463 m 281 1075 l 440 1075 l 440 908 l 281 908 l 281 1075 m 549 1075 l 708 1075 l 708 908 l 549 908 l 549 1075 z "},"ì":{"ha":476,"x_min":-29,"x_max":359,"o":"m 117 760 l 359 760 l 359 0 l 117 0 l 117 760 m 163 1111 l 354 856 l 221 856 l -29 1111 l 163 1111 z "},"í":{"ha":476,"x_min":117,"x_max":538,"o":"m 117 760 l 359 760 l 359 0 l 117 0 l 117 760 m 346 1111 l 538 1111 l 288 856 l 155 856 l 346 1111 z "},"î":{"ha":476,"x_min":-18,"x_max":493,"o":"m 117 760 l 359 760 l 359 0 l 117 0 l 117 760 m 155 1111 l 319 1111 l 493 856 l 372 856 l 237 1008 l 102 856 l -18 856 l 155 1111 z "},"ï":{"ha":476,"x_min":24,"x_max":451,"o":"m 117 760 l 359 760 l 359 0 l 117 0 l 117 760 m 24 1075 l 183 1075 l 183 908 l 24 908 l 24 1075 m 292 1075 l 451 1075 l 451 908 l 292 908 l 292 1075 z "},"ð":{"ha":954,"x_min":60,"x_max":895,"o":"m 624 504 q 550 531 587 522 q 478 541 513 541 q 356 495 399 541 q 313 368 313 450 q 357 211 313 268 q 478 154 401 154 q 600 212 557 154 q 642 379 642 270 q 637 441 642 410 q 624 504 633 472 m 743 746 q 859 567 823 654 q 895 379 895 479 q 784 86 895 192 q 478 -20 674 -20 q 171 86 281 -20 q 60 379 60 192 q 162 626 60 536 q 443 715 264 715 q 500 711 474 715 q 551 697 527 707 l 422 846 l 170 765 l 144 852 l 353 918 l 225 1055 l 464 1055 l 539 977 l 794 1054 l 818 966 l 604 901 l 743 746 z "},"ñ":{"ha":989,"x_min":117,"x_max":880,"o":"m 880 463 l 880 0 l 636 0 l 636 75 l 636 354 q 632 490 636 452 q 616 545 627 527 q 578 582 602 568 q 522 595 553 595 q 403 536 446 595 q 359 374 359 477 l 359 0 l 117 0 l 117 760 l 359 760 l 359 648 q 476 746 414 715 q 612 778 538 778 q 812 697 744 778 q 880 463 880 616 m 513 925 l 475 950 q 469 954 473 951 q 420 975 437 975 q 382 954 395 975 q 370 893 370 933 l 370 888 l 275 888 q 310 1030 275 980 q 408 1080 345 1080 q 457 1071 433 1080 q 510 1042 482 1062 l 551 1013 q 579 997 566 1002 q 602 991 591 991 q 640 1013 626 991 q 653 1074 653 1035 l 653 1079 l 747 1079 q 712 937 747 987 q 614 886 677 886 q 567 895 590 886 q 513 925 545 903 z "},"ò":{"ha":954,"x_min":60,"x_max":895,"o":"m 478 604 q 355 546 397 604 q 313 379 313 488 q 355 212 313 270 q 478 154 397 154 q 600 212 557 154 q 642 379 642 270 q 600 546 642 488 q 478 604 557 604 m 478 778 q 784 672 674 778 q 895 379 895 566 q 784 86 895 192 q 478 -20 674 -20 q 171 86 281 -20 q 60 379 60 192 q 171 672 60 566 q 478 778 281 778 m 401 1111 l 593 856 l 460 856 l 210 1111 l 401 1111 z "},"ó":{"ha":954,"x_min":60,"x_max":895,"o":"m 478 604 q 355 546 397 604 q 313 379 313 488 q 355 212 313 270 q 478 154 397 154 q 600 212 557 154 q 642 379 642 270 q 600 546 642 488 q 478 604 557 604 m 478 778 q 784 672 674 778 q 895 379 895 566 q 784 86 895 192 q 478 -20 674 -20 q 171 86 281 -20 q 60 379 60 192 q 171 672 60 566 q 478 778 281 778 m 585 1111 l 777 1111 l 526 856 l 393 856 l 585 1111 z "},"ô":{"ha":954,"x_min":60,"x_max":895,"o":"m 478 604 q 355 546 397 604 q 313 379 313 488 q 355 212 313 270 q 478 154 397 154 q 600 212 557 154 q 642 379 642 270 q 600 546 642 488 q 478 604 557 604 m 478 778 q 784 672 674 778 q 895 379 895 566 q 784 86 895 192 q 478 -20 674 -20 q 171 86 281 -20 q 60 379 60 192 q 171 672 60 566 q 478 778 281 778 m 395 1111 l 559 1111 l 732 856 l 612 856 l 477 1008 l 342 856 l 221 856 l 395 1111 z "},"õ":{"ha":954,"x_min":60,"x_max":895,"o":"m 478 604 q 355 546 397 604 q 313 379 313 488 q 355 212 313 270 q 478 154 397 154 q 600 212 557 154 q 642 379 642 270 q 600 546 642 488 q 478 604 557 604 m 478 778 q 784 672 674 778 q 895 379 895 566 q 784 86 895 192 q 478 -20 674 -20 q 171 86 281 -20 q 60 379 60 192 q 171 672 60 566 q 478 778 281 778 m 477 925 l 440 950 q 433 954 437 951 q 385 975 401 975 q 347 954 360 975 q 334 893 334 933 l 334 888 l 240 888 q 275 1030 240 980 q 373 1080 310 1080 q 422 1071 397 1080 q 475 1042 447 1062 l 516 1013 q 544 997 531 1002 q 566 991 556 991 q 604 1013 591 991 q 618 1074 618 1035 l 618 1079 l 712 1079 q 677 937 712 987 q 579 886 642 886 q 532 895 555 886 q 477 925 509 903 z "},"ö":{"ha":954,"x_min":60,"x_max":895,"o":"m 478 604 q 355 546 397 604 q 313 379 313 488 q 355 212 313 270 q 478 154 397 154 q 600 212 557 154 q 642 379 642 270 q 600 546 642 488 q 478 604 557 604 m 478 778 q 784 672 674 778 q 895 379 895 566 q 784 86 895 192 q 478 -20 674 -20 q 171 86 281 -20 q 60 379 60 192 q 171 672 60 566 q 478 778 281 778 m 262 1075 l 422 1075 l 422 908 l 262 908 l 262 1075 m 530 1075 l 690 1075 l 690 908 l 530 908 l 530 1075 z "},"÷":{"ha":1164,"x_min":147,"x_max":1017,"o":"m 478 268 l 686 268 l 686 58 l 478 58 l 478 268 m 478 812 l 686 812 l 686 603 l 478 603 l 478 812 m 147 515 l 1017 515 l 1017 355 l 147 355 l 147 515 z "},"ø":{"ha":954,"x_min":53,"x_max":896,"o":"m 581 567 q 535 595 561 586 q 478 604 510 604 q 355 546 397 604 q 313 379 313 488 q 315 329 313 351 q 322 289 317 307 l 581 567 m 371 195 q 419 164 392 174 q 478 154 446 154 q 600 212 557 154 q 642 379 642 270 q 639 431 642 408 q 632 473 637 454 l 371 195 m 151 107 q 83 228 106 160 q 60 379 60 296 q 171 672 60 566 q 478 778 281 778 q 611 763 550 778 q 722 718 671 748 l 822 825 l 896 757 l 800 656 q 871 533 848 602 q 895 379 895 465 q 784 86 895 192 q 478 -20 674 -20 q 343 -4 405 -20 q 229 41 281 11 l 129 -64 l 53 0 l 151 107 z "},"ù":{"ha":989,"x_min":109,"x_max":872,"o":"m 109 296 l 109 760 l 353 760 l 353 684 q 352 529 353 622 q 351 404 351 435 q 356 272 351 313 q 372 214 361 232 q 411 177 387 190 q 467 164 435 164 q 586 222 543 164 q 629 385 629 281 l 629 760 l 872 760 l 872 0 l 629 0 l 629 110 q 513 12 574 43 q 378 -20 452 -20 q 177 61 246 -20 q 109 296 109 142 m 420 1111 l 611 856 l 478 856 l 228 1111 l 420 1111 z "},"ú":{"ha":989,"x_min":109,"x_max":872,"o":"m 109 296 l 109 760 l 353 760 l 353 684 q 352 529 353 622 q 351 404 351 435 q 356 272 351 313 q 372 214 361 232 q 411 177 387 190 q 467 164 435 164 q 586 222 543 164 q 629 385 629 281 l 629 760 l 872 760 l 872 0 l 629 0 l 629 110 q 513 12 574 43 q 378 -20 452 -20 q 177 61 246 -20 q 109 296 109 142 m 603 1111 l 795 1111 l 545 856 l 412 856 l 603 1111 z "},"û":{"ha":989,"x_min":109,"x_max":872,"o":"m 109 296 l 109 760 l 353 760 l 353 684 q 352 529 353 622 q 351 404 351 435 q 356 272 351 313 q 372 214 361 232 q 411 177 387 190 q 467 164 435 164 q 586 222 543 164 q 629 385 629 281 l 629 760 l 872 760 l 872 0 l 629 0 l 629 110 q 513 12 574 43 q 378 -20 452 -20 q 177 61 246 -20 q 109 296 109 142 m 409 1111 l 573 1111 l 747 856 l 626 856 l 491 1008 l 356 856 l 235 856 l 409 1111 z "},"ü":{"ha":989,"x_min":109,"x_max":872,"o":"m 109 296 l 109 760 l 353 760 l 353 684 q 352 529 353 622 q 351 404 351 435 q 356 272 351 313 q 372 214 361 232 q 411 177 387 190 q 467 164 435 164 q 586 222 543 164 q 629 385 629 281 l 629 760 l 872 760 l 872 0 l 629 0 l 629 110 q 513 12 574 43 q 378 -20 452 -20 q 177 61 246 -20 q 109 296 109 142 m 277 1075 l 437 1075 l 437 908 l 277 908 l 277 1075 m 545 1075 l 705 1075 l 705 908 l 545 908 l 545 1075 z "},"ý":{"ha":905,"x_min":17,"x_max":880,"o":"m 17 760 l 260 760 l 464 244 l 637 760 l 880 760 l 561 -72 q 449 -249 513 -199 q 279 -300 385 -300 l 139 -300 l 139 -140 l 215 -140 q 305 -121 277 -140 q 349 -50 333 -101 l 355 -29 l 17 760 m 545 1111 l 736 1111 l 486 856 l 353 856 l 545 1111 z "},"þ":{"ha":994,"x_min":117,"x_max":932,"o":"m 359 110 l 359 -289 l 117 -289 l 117 1055 l 359 1055 l 359 648 q 471 746 410 715 q 611 778 532 778 q 842 666 751 778 q 932 379 932 555 q 842 92 932 203 q 611 -20 751 -20 q 471 12 532 -20 q 359 110 410 43 m 521 602 q 401 544 443 602 q 359 379 359 487 q 401 214 359 271 q 521 157 443 157 q 640 214 599 157 q 681 379 681 271 q 640 545 681 488 q 521 602 599 602 z "},"ÿ":{"ha":905,"x_min":17,"x_max":880,"o":"m 17 760 l 260 760 l 464 244 l 637 760 l 880 760 l 561 -72 q 449 -249 513 -199 q 279 -300 385 -300 l 139 -300 l 139 -140 l 215 -140 q 305 -121 277 -140 q 349 -50 333 -101 l 355 -29 l 17 760 m 239 1075 l 399 1075 l 399 908 l 239 908 l 239 1075 m 507 1075 l 667 1075 l 667 908 l 507 908 l 507 1075 z "},"Ā":{"ha":1075,"x_min":7,"x_max":1068,"o":"m 323 1269 l 751 1269 l 751 1141 l 323 1141 l 323 1269 m 742 184 l 334 184 l 269 0 l 7 0 l 382 1013 l 693 1013 l 1068 0 l 806 0 l 742 184 m 399 372 l 676 372 l 538 775 l 399 372 z "},"ā":{"ha":937,"x_min":60,"x_max":828,"o":"m 227 1059 l 654 1059 l 654 932 l 227 932 l 227 1059 m 457 342 q 343 316 381 342 q 304 240 304 290 q 335 168 304 194 q 421 142 366 142 q 536 191 490 142 q 583 314 583 240 l 583 342 l 457 342 m 828 433 l 828 0 l 583 0 l 583 113 q 473 12 534 43 q 325 -20 412 -20 q 133 49 207 -20 q 60 228 60 118 q 152 424 60 361 q 440 486 243 486 l 583 486 l 583 505 q 538 590 583 563 q 396 616 492 616 q 251 601 318 616 q 126 554 184 585 l 126 739 q 283 768 204 758 q 440 778 361 778 q 737 697 646 778 q 828 433 828 616 z "},"Ă":{"ha":1075,"x_min":7,"x_max":1068,"o":"m 307 1298 l 404 1298 q 445 1225 412 1251 q 535 1200 479 1200 q 625 1225 591 1200 q 666 1298 659 1251 l 763 1298 q 700 1148 759 1200 q 535 1097 641 1097 q 370 1148 429 1097 q 307 1298 311 1200 m 742 184 l 334 184 l 269 0 l 7 0 l 382 1013 l 693 1013 l 1068 0 l 806 0 l 742 184 m 399 372 l 676 372 l 538 775 l 399 372 z "},"ă":{"ha":937,"x_min":60,"x_max":828,"o":"m 267 1083 l 364 1083 q 405 1010 372 1036 q 495 985 439 985 q 585 1010 551 985 q 626 1083 618 1036 l 723 1083 q 660 933 719 985 q 495 882 601 882 q 330 933 389 882 q 267 1083 271 985 m 457 342 q 343 316 381 342 q 304 240 304 290 q 335 168 304 194 q 421 142 366 142 q 536 191 490 142 q 583 314 583 240 l 583 342 l 457 342 m 828 433 l 828 0 l 583 0 l 583 113 q 473 12 534 43 q 325 -20 412 -20 q 133 49 207 -20 q 60 228 60 118 q 152 424 60 361 q 440 486 243 486 l 583 486 l 583 505 q 538 590 583 563 q 396 616 492 616 q 251 601 318 616 q 126 554 184 585 l 126 739 q 283 768 204 758 q 440 778 361 778 q 737 697 646 778 q 828 433 828 616 z "},"Ą":{"ha":1075,"x_min":7,"x_max":1068,"o":"m 806 0 l 901 0 q 854 -70 867 -45 q 842 -113 842 -95 q 862 -156 842 -139 q 915 -172 882 -172 q 967 -167 941 -172 q 1021 -151 994 -162 l 1021 -257 q 951 -268 983 -264 q 892 -272 920 -272 q 772 -241 814 -272 q 730 -151 730 -210 q 749 -78 730 -115 q 806 0 767 -41 m 742 184 l 334 184 l 269 0 l 7 0 l 382 1013 l 693 1013 l 1068 0 l 806 0 l 742 184 m 399 372 l 676 372 l 538 775 l 399 372 z "},"ą":{"ha":937,"x_min":60,"x_max":828,"o":"m 587 0 l 682 0 q 635 -70 648 -45 q 623 -113 623 -95 q 643 -156 623 -139 q 696 -172 663 -172 q 748 -167 722 -172 q 802 -151 774 -162 l 802 -257 q 732 -268 764 -264 q 673 -272 701 -272 q 553 -241 595 -272 q 511 -151 511 -210 q 530 -78 511 -115 q 587 0 548 -41 m 457 342 q 343 316 381 342 q 304 240 304 290 q 335 168 304 194 q 421 142 366 142 q 536 191 490 142 q 583 314 583 240 l 583 342 l 457 342 m 828 433 l 828 0 l 583 0 l 583 113 q 473 12 534 43 q 325 -20 412 -20 q 133 49 207 -20 q 60 228 60 118 q 152 424 60 361 q 440 486 243 486 l 583 486 l 583 505 q 538 590 583 563 q 396 616 492 616 q 251 601 318 616 q 126 554 184 585 l 126 739 q 283 768 204 758 q 440 778 361 778 q 737 697 646 778 q 828 433 828 616 z "},"Ć":{"ha":1019,"x_min":69,"x_max":930,"o":"m 930 56 q 781 -1 859 18 q 618 -20 703 -20 q 217 122 365 -20 q 69 505 69 263 q 217 889 69 748 q 618 1031 365 1031 q 781 1012 703 1031 q 930 956 859 993 l 930 746 q 787 819 858 795 q 639 842 717 842 q 419 752 499 842 q 339 505 339 663 q 419 259 339 349 q 639 170 499 170 q 787 193 717 170 q 930 265 858 216 l 930 56 m 625 1288 l 817 1288 l 623 1109 l 490 1109 l 625 1288 z "},"ć":{"ha":823,"x_min":60,"x_max":774,"o":"m 730 736 l 730 538 q 631 588 681 572 q 528 604 581 604 q 369 545 426 604 q 313 379 313 486 q 369 213 313 273 q 528 154 426 154 q 636 171 585 154 q 730 221 687 188 l 730 22 q 615 -9 673 1 q 497 -20 556 -20 q 176 86 292 -20 q 60 379 60 191 q 176 672 60 567 q 497 778 292 778 q 615 767 557 778 q 730 736 673 757 m 582 1111 l 774 1111 l 524 856 l 391 856 l 582 1111 z "},"Ĉ":{"ha":1019,"x_min":69,"x_max":930,"o":"m 513 1288 l 722 1288 l 873 1109 l 753 1109 l 618 1218 l 483 1109 l 362 1109 l 513 1288 m 930 56 q 781 -1 859 18 q 618 -20 703 -20 q 217 122 365 -20 q 69 505 69 263 q 217 889 69 748 q 618 1031 365 1031 q 781 1012 703 1031 q 930 956 859 993 l 930 746 q 787 819 858 795 q 639 842 717 842 q 419 752 499 842 q 339 505 339 663 q 419 259 339 349 q 639 170 499 170 q 787 193 717 170 q 930 265 858 216 l 930 56 z "},"ĉ":{"ha":823,"x_min":60,"x_max":753,"o":"m 415 1111 l 579 1111 l 753 856 l 632 856 l 497 1008 l 362 856 l 241 856 l 415 1111 m 730 736 l 730 538 q 631 588 681 572 q 528 604 581 604 q 369 545 426 604 q 313 379 313 486 q 369 213 313 273 q 528 154 426 154 q 636 171 585 154 q 730 221 687 188 l 730 22 q 615 -9 673 1 q 497 -20 556 -20 q 176 86 292 -20 q 60 379 60 191 q 176 672 60 567 q 497 778 292 778 q 615 767 557 778 q 730 736 673 757 z "},"Ċ":{"ha":1019,"x_min":69,"x_max":930,"o":"m 525 1288 l 711 1288 l 711 1121 l 525 1121 l 525 1288 m 930 56 q 781 -1 859 18 q 618 -20 703 -20 q 217 122 365 -20 q 69 505 69 263 q 217 889 69 748 q 618 1031 365 1031 q 781 1012 703 1031 q 930 956 859 993 l 930 746 q 787 819 858 795 q 639 842 717 842 q 419 752 499 842 q 339 505 339 663 q 419 259 339 349 q 639 170 499 170 q 787 193 717 170 q 930 265 858 216 l 930 56 z "},"ċ":{"ha":823,"x_min":60,"x_max":730,"o":"m 376 1055 l 618 1055 l 618 857 l 376 857 l 376 1055 m 730 736 l 730 538 q 631 588 681 572 q 528 604 581 604 q 369 545 426 604 q 313 379 313 486 q 369 213 313 273 q 528 154 426 154 q 636 171 585 154 q 730 221 687 188 l 730 22 q 615 -9 673 1 q 497 -20 556 -20 q 176 86 292 -20 q 60 379 60 191 q 176 672 60 567 q 497 778 292 778 q 615 767 557 778 q 730 736 673 757 z "},"Č":{"ha":1019,"x_min":69,"x_max":930,"o":"m 930 56 q 781 -1 859 18 q 618 -20 703 -20 q 217 122 365 -20 q 69 505 69 263 q 217 889 69 748 q 618 1031 365 1031 q 781 1012 703 1031 q 930 956 859 993 l 930 746 q 787 819 858 795 q 639 842 717 842 q 419 752 499 842 q 339 505 339 663 q 419 259 339 349 q 639 170 499 170 q 787 193 717 170 q 930 265 858 216 l 930 56 m 486 1109 l 334 1288 l 455 1288 l 590 1178 l 725 1288 l 846 1288 l 694 1109 l 486 1109 z "},"č":{"ha":823,"x_min":60,"x_max":746,"o":"m 730 736 l 730 538 q 631 588 681 572 q 528 604 581 604 q 369 545 426 604 q 313 379 313 486 q 369 213 313 273 q 528 154 426 154 q 636 171 585 154 q 730 221 687 188 l 730 22 q 615 -9 673 1 q 497 -20 556 -20 q 176 86 292 -20 q 60 379 60 191 q 176 672 60 567 q 497 778 292 778 q 615 767 557 778 q 730 736 673 757 m 408 856 l 235 1111 l 355 1111 l 490 957 l 625 1111 l 746 1111 l 572 856 l 408 856 z "},"Ď":{"ha":1153,"x_min":127,"x_max":1080,"o":"m 389 815 l 389 197 l 482 197 q 727 277 642 197 q 811 507 811 356 q 727 736 811 658 q 482 815 643 815 l 389 815 m 127 1013 l 403 1013 q 746 980 633 1013 q 940 868 859 947 q 1046 710 1011 800 q 1080 507 1080 621 q 1046 303 1080 393 q 940 144 1011 213 q 745 33 859 66 q 403 0 631 0 l 127 0 l 127 1013 m 424 1109 l 273 1288 l 393 1288 l 528 1178 l 663 1288 l 784 1288 l 633 1109 l 424 1109 z "},"ď":{"ha":994,"x_min":62,"x_max":1210,"o":"m 633 648 l 633 1055 l 878 1055 l 878 0 l 633 0 l 633 110 q 523 12 583 43 q 383 -20 463 -20 q 153 92 243 -20 q 62 379 62 203 q 153 666 62 555 q 383 778 243 778 q 523 746 462 778 q 633 648 583 715 m 473 157 q 592 214 551 157 q 633 379 633 271 q 592 545 633 488 q 473 602 551 602 q 355 545 396 602 q 314 379 314 488 q 355 214 314 271 q 473 157 396 157 m 1018 1054 l 1210 1054 l 1097 799 l 964 799 l 1018 1054 z "},"Đ":{"ha":1164,"x_min":22,"x_max":1093,"o":"m 401 815 l 401 597 l 561 597 l 561 421 l 401 421 l 401 197 l 494 197 q 739 277 654 197 q 823 507 823 356 q 739 736 823 658 q 494 815 655 815 l 401 815 m 140 1013 l 415 1013 q 759 980 646 1013 q 953 868 871 947 q 1058 710 1023 800 q 1093 507 1093 621 q 1058 303 1093 393 q 953 144 1023 213 q 757 33 871 66 q 415 0 643 0 l 140 0 l 140 421 l 22 421 l 22 597 l 140 597 l 140 1013 z "},"đ":{"ha":994,"x_min":62,"x_max":982,"o":"m 633 648 l 633 839 l 412 839 l 412 978 l 633 978 l 633 1055 l 878 1055 l 878 978 l 982 978 l 982 839 l 878 839 l 878 0 l 633 0 l 633 110 q 523 12 583 43 q 383 -20 463 -20 q 153 92 243 -20 q 62 379 62 203 q 153 666 62 555 q 383 778 243 778 q 523 746 462 778 q 633 648 583 715 m 473 157 q 592 214 551 157 q 633 379 633 271 q 592 545 633 488 q 473 602 551 602 q 355 545 396 602 q 314 379 314 488 q 355 214 314 271 q 473 157 396 157 z "},"Ē":{"ha":949,"x_min":127,"x_max":847,"o":"m 267 1269 l 694 1269 l 694 1141 l 267 1141 l 267 1269 m 127 1013 l 832 1013 l 832 815 l 389 815 l 389 627 l 806 627 l 806 429 l 389 429 l 389 197 l 847 197 l 847 0 l 127 0 l 127 1013 z "},"ē":{"ha":942,"x_min":60,"x_max":875,"o":"m 251 1060 l 678 1060 l 678 932 l 251 932 l 251 1060 m 875 382 l 875 313 l 307 313 q 369 184 316 227 q 517 142 422 142 q 674 164 593 142 q 839 233 754 187 l 839 46 q 667 -3 753 14 q 494 -20 581 -20 q 174 85 288 -20 q 60 379 60 190 q 172 671 60 565 q 481 778 284 778 q 767 670 660 778 q 875 382 875 562 m 625 463 q 585 574 625 532 q 479 616 545 616 q 365 577 409 616 q 310 463 321 537 l 625 463 z "},"Ĕ":{"ha":949,"x_min":127,"x_max":847,"o":"m 241 1288 l 338 1288 q 385 1226 353 1246 q 469 1206 418 1206 q 553 1226 521 1206 q 600 1288 586 1246 l 697 1288 q 628 1155 686 1200 q 469 1109 570 1109 q 311 1155 369 1109 q 241 1288 252 1200 m 127 1013 l 832 1013 l 832 815 l 389 815 l 389 627 l 806 627 l 806 429 l 389 429 l 389 197 l 847 197 l 847 0 l 127 0 l 127 1013 z "},"ĕ":{"ha":942,"x_min":60,"x_max":875,"o":"m 267 1089 l 363 1089 q 405 1017 371 1042 q 494 991 438 991 q 584 1017 551 991 q 625 1089 618 1042 l 722 1089 q 659 940 718 991 q 494 888 600 888 q 330 940 389 888 q 267 1089 271 991 m 875 382 l 875 313 l 307 313 q 369 184 316 227 q 517 142 422 142 q 674 164 593 142 q 839 233 754 187 l 839 46 q 667 -3 753 14 q 494 -20 581 -20 q 174 85 288 -20 q 60 379 60 190 q 172 671 60 565 q 481 778 284 778 q 767 670 660 778 q 875 382 875 562 m 625 463 q 585 574 625 532 q 479 616 545 616 q 365 577 409 616 q 310 463 321 537 l 625 463 z "},"Ė":{"ha":949,"x_min":127,"x_max":847,"o":"m 376 1288 l 562 1288 l 562 1121 l 376 1121 l 376 1288 m 127 1013 l 832 1013 l 832 815 l 389 815 l 389 627 l 806 627 l 806 429 l 389 429 l 389 197 l 847 197 l 847 0 l 127 0 l 127 1013 z "},"ė":{"ha":942,"x_min":60,"x_max":875,"o":"m 373 1055 l 616 1055 l 616 857 l 373 857 l 373 1055 m 875 382 l 875 313 l 307 313 q 369 184 316 227 q 517 142 422 142 q 674 164 593 142 q 839 233 754 187 l 839 46 q 667 -3 753 14 q 494 -20 581 -20 q 174 85 288 -20 q 60 379 60 190 q 172 671 60 565 q 481 778 284 778 q 767 670 660 778 q 875 382 875 562 m 625 463 q 585 574 625 532 q 479 616 545 616 q 365 577 409 616 q 310 463 321 537 l 625 463 z "},"Ę":{"ha":949,"x_min":127,"x_max":848,"o":"m 633 0 l 728 0 q 682 -70 694 -45 q 669 -113 669 -95 q 689 -156 669 -139 q 742 -172 709 -172 q 794 -167 768 -172 q 848 -151 821 -162 l 848 -257 q 779 -268 810 -264 q 719 -272 747 -272 q 599 -241 641 -272 q 557 -151 557 -210 q 576 -78 557 -115 q 633 0 594 -41 m 127 1013 l 832 1013 l 832 815 l 389 815 l 389 627 l 806 627 l 806 429 l 389 429 l 389 197 l 847 197 l 847 0 l 127 0 l 127 1013 z "},"ę":{"ha":942,"x_min":60,"x_max":875,"o":"m 584 0 l 680 0 q 633 -70 646 -45 q 620 -113 620 -95 q 640 -156 620 -139 q 693 -172 660 -172 q 746 -167 720 -172 q 799 -151 772 -162 l 799 -257 q 730 -268 762 -264 q 670 -272 698 -272 q 550 -241 592 -272 q 509 -151 509 -210 q 527 -78 509 -115 q 584 0 545 -41 m 875 382 l 875 313 l 307 313 q 369 184 316 227 q 517 142 422 142 q 674 164 593 142 q 839 233 754 187 l 839 46 q 667 -3 753 14 q 494 -20 581 -20 q 174 85 288 -20 q 60 379 60 190 q 172 671 60 565 q 481 778 284 778 q 767 670 660 778 q 875 382 875 562 m 625 463 q 585 574 625 532 q 479 616 545 616 q 365 577 409 616 q 310 463 321 537 l 625 463 z "},"Ě":{"ha":949,"x_min":127,"x_max":847,"o":"m 127 1013 l 832 1013 l 832 815 l 389 815 l 389 627 l 806 627 l 806 429 l 389 429 l 389 197 l 847 197 l 847 0 l 127 0 l 127 1013 m 379 1109 l 228 1288 l 349 1288 l 484 1178 l 618 1288 l 739 1288 l 588 1109 l 379 1109 z "},"ě":{"ha":942,"x_min":60,"x_max":875,"o":"m 875 382 l 875 313 l 307 313 q 369 184 316 227 q 517 142 422 142 q 674 164 593 142 q 839 233 754 187 l 839 46 q 667 -3 753 14 q 494 -20 581 -20 q 174 85 288 -20 q 60 379 60 190 q 172 671 60 565 q 481 778 284 778 q 767 670 660 778 q 875 382 875 562 m 625 463 q 585 574 625 532 q 479 616 545 616 q 365 577 409 616 q 310 463 321 537 l 625 463 m 408 856 l 235 1111 l 355 1111 l 490 957 l 625 1111 l 746 1111 l 572 856 l 408 856 z "},"Ĝ":{"ha":1140,"x_min":69,"x_max":1038,"o":"m 528 1288 l 736 1288 l 888 1109 l 767 1109 l 632 1218 l 497 1109 l 376 1109 l 528 1288 m 1038 75 q 835 4 940 28 q 618 -20 730 -20 q 217 122 365 -20 q 69 505 69 263 q 220 890 69 750 q 632 1031 370 1031 q 826 1012 733 1031 q 1000 956 918 993 l 1000 746 q 832 818 916 794 q 664 842 748 842 q 424 754 508 842 q 339 505 339 667 q 420 257 339 345 q 652 170 502 170 q 727 175 692 170 q 790 191 762 180 l 790 387 l 631 387 l 631 562 l 1038 562 l 1038 75 z "},"ĝ":{"ha":994,"x_min":62,"x_max":878,"o":"m 391 1111 l 555 1111 l 729 856 l 608 856 l 473 1008 l 338 856 l 218 856 l 391 1111 m 633 129 q 523 31 583 62 q 383 0 463 0 q 153 110 244 0 q 62 389 62 219 q 153 668 62 559 q 383 777 244 777 q 523 745 463 777 q 633 647 583 714 l 633 760 l 878 760 l 878 77 q 762 -203 878 -106 q 427 -300 646 -300 q 289 -289 355 -300 q 155 -256 222 -278 l 155 -66 q 280 -121 219 -103 q 403 -139 341 -139 q 578 -87 522 -139 q 633 77 633 -35 l 633 129 m 473 602 q 356 546 398 602 q 314 389 314 490 q 355 230 314 284 q 473 176 395 176 q 591 232 549 176 q 633 389 633 288 q 591 546 633 490 q 473 602 549 602 z "},"Ğ":{"ha":1140,"x_min":69,"x_max":1038,"o":"m 1038 75 q 835 4 940 28 q 618 -20 730 -20 q 217 122 365 -20 q 69 505 69 263 q 220 890 69 750 q 632 1031 370 1031 q 826 1012 733 1031 q 1000 956 918 993 l 1000 746 q 832 818 916 794 q 664 842 748 842 q 424 754 508 842 q 339 505 339 667 q 420 257 339 345 q 652 170 502 170 q 727 175 692 170 q 790 191 762 180 l 790 387 l 631 387 l 631 562 l 1038 562 l 1038 75 m 326 1288 l 423 1288 q 470 1226 437 1246 q 554 1206 503 1206 q 638 1226 606 1206 q 685 1288 671 1246 l 782 1288 q 713 1155 771 1200 q 554 1109 654 1109 q 395 1155 454 1109 q 326 1288 337 1200 z "},"ğ":{"ha":994,"x_min":62,"x_max":878,"o":"m 633 129 q 523 31 583 62 q 383 0 463 0 q 153 110 244 0 q 62 389 62 219 q 153 668 62 559 q 383 777 244 777 q 523 745 463 777 q 633 647 583 714 l 633 760 l 878 760 l 878 77 q 762 -203 878 -106 q 427 -300 646 -300 q 289 -289 355 -300 q 155 -256 222 -278 l 155 -66 q 280 -121 219 -103 q 403 -139 341 -139 q 578 -87 522 -139 q 633 77 633 -35 l 633 129 m 473 602 q 356 546 398 602 q 314 389 314 490 q 355 230 314 284 q 473 176 395 176 q 591 232 549 176 q 633 389 633 288 q 591 546 633 490 q 473 602 549 602 m 269 1089 l 366 1089 q 407 1017 374 1042 q 497 991 441 991 q 587 1017 553 991 q 628 1089 621 1042 l 725 1089 q 662 940 721 991 q 497 888 603 888 q 332 940 391 888 q 269 1089 273 991 z "},"Ġ":{"ha":1140,"x_min":69,"x_max":1038,"o":"m 539 1288 l 725 1288 l 725 1121 l 539 1121 l 539 1288 m 1038 75 q 835 4 940 28 q 618 -20 730 -20 q 217 122 365 -20 q 69 505 69 263 q 220 890 69 750 q 632 1031 370 1031 q 826 1012 733 1031 q 1000 956 918 993 l 1000 746 q 832 818 916 794 q 664 842 748 842 q 424 754 508 842 q 339 505 339 667 q 420 257 339 345 q 652 170 502 170 q 727 175 692 170 q 790 191 762 180 l 790 387 l 631 387 l 631 562 l 1038 562 l 1038 75 z "},"ġ":{"ha":994,"x_min":62,"x_max":878,"o":"m 352 1055 l 595 1055 l 595 857 l 352 857 l 352 1055 m 633 129 q 523 31 583 62 q 383 0 463 0 q 153 110 244 0 q 62 389 62 219 q 153 668 62 559 q 383 777 244 777 q 523 745 463 777 q 633 647 583 714 l 633 760 l 878 760 l 878 77 q 762 -203 878 -106 q 427 -300 646 -300 q 289 -289 355 -300 q 155 -256 222 -278 l 155 -66 q 280 -121 219 -103 q 403 -139 341 -139 q 578 -87 522 -139 q 633 77 633 -35 l 633 129 m 473 602 q 356 546 398 602 q 314 389 314 490 q 355 230 314 284 q 473 176 395 176 q 591 232 549 176 q 633 389 633 288 q 591 546 633 490 q 473 602 549 602 z "},"Ģ":{"ha":1140,"x_min":69,"x_max":1038,"o":"m 539 -109 l 759 -109 l 608 -311 l 478 -311 l 539 -109 m 1038 75 q 835 4 940 28 q 618 -20 730 -20 q 217 122 365 -20 q 69 505 69 263 q 220 890 69 750 q 632 1031 370 1031 q 826 1012 733 1031 q 1000 956 918 993 l 1000 746 q 832 818 916 794 q 664 842 748 842 q 424 754 508 842 q 339 505 339 667 q 420 257 339 345 q 652 170 502 170 q 727 175 692 170 q 790 191 762 180 l 790 387 l 631 387 l 631 562 l 1038 562 l 1038 75 z "},"ģ":{"ha":994,"x_min":62,"x_max":878,"o":"m 587 861 l 368 861 l 518 1063 l 648 1063 l 587 861 m 633 129 q 523 31 583 62 q 383 0 463 0 q 153 110 244 0 q 62 389 62 219 q 153 668 62 559 q 383 777 244 777 q 523 745 463 777 q 633 647 583 714 l 633 760 l 878 760 l 878 77 q 762 -203 878 -106 q 427 -300 646 -300 q 289 -289 355 -300 q 155 -256 222 -278 l 155 -66 q 280 -121 219 -103 q 403 -139 341 -139 q 578 -87 522 -139 q 633 77 633 -35 l 633 129 m 473 602 q 356 546 398 602 q 314 389 314 490 q 355 230 314 284 q 473 176 395 176 q 591 232 549 176 q 633 389 633 288 q 591 546 633 490 q 473 602 549 602 z "},"Ĥ":{"ha":1162,"x_min":127,"x_max":1035,"o":"m 477 1288 l 686 1288 l 837 1109 l 716 1109 l 581 1218 l 446 1109 l 326 1109 l 477 1288 m 127 1013 l 389 1013 l 389 627 l 774 627 l 774 1013 l 1035 1013 l 1035 0 l 774 0 l 774 429 l 389 429 l 389 0 l 127 0 l 127 1013 z "},"ĥ":{"ha":989,"x_min":-13,"x_max":880,"o":"m 138 1288 l 347 1288 l 498 1109 l 378 1109 l 243 1218 l 108 1109 l -13 1109 l 138 1288 m 880 463 l 880 0 l 636 0 l 636 75 l 636 353 q 632 490 636 452 q 616 545 627 527 q 578 582 602 568 q 522 595 553 595 q 403 536 446 595 q 359 374 359 477 l 359 0 l 117 0 l 117 1055 l 359 1055 l 359 648 q 476 746 414 715 q 612 778 538 778 q 812 697 744 778 q 880 463 880 616 z "},"Ħ":{"ha":1352,"x_min":127,"x_max":1225,"o":"m 222 1013 l 484 1013 l 484 886 l 869 886 l 869 1013 l 1130 1013 l 1130 886 l 1225 886 l 1225 754 l 1130 754 l 1130 0 l 869 0 l 869 429 l 484 429 l 484 0 l 222 0 l 222 754 l 127 754 l 127 886 l 222 886 l 222 1013 m 484 754 l 484 627 l 869 627 l 869 754 l 484 754 z "},"ħ":{"ha":1097,"x_min":113,"x_max":985,"o":"m 985 463 l 985 0 l 741 0 l 741 75 l 741 353 q 736 490 741 452 q 721 545 732 527 q 682 582 707 568 q 627 595 658 595 q 507 536 551 595 q 464 374 464 477 l 464 0 l 221 0 l 221 851 l 113 851 l 113 983 l 221 983 l 221 1055 l 464 1055 l 464 983 l 710 983 l 710 851 l 464 851 l 464 648 q 581 746 519 715 q 717 778 642 778 q 917 697 848 778 q 985 463 985 616 z "},"Ĩ":{"ha":517,"x_min":22,"x_max":494,"o":"m 259 1142 l 221 1166 q 214 1170 219 1167 q 165 1187 184 1187 q 130 1167 143 1187 q 116 1113 116 1147 l 116 1109 l 22 1109 q 22 1119 22 1112 q 23 1129 23 1126 q 59 1245 23 1201 q 155 1289 96 1289 q 205 1281 180 1289 q 256 1256 230 1272 l 296 1230 q 324 1215 311 1220 q 348 1210 337 1210 q 386 1230 373 1210 q 399 1289 399 1251 l 494 1289 q 493 1278 494 1285 q 492 1268 492 1272 q 456 1153 492 1196 q 361 1109 420 1109 q 311 1116 335 1109 q 259 1142 288 1124 m 127 1013 l 389 1013 l 389 0 l 127 0 l 127 1013 z "},"ĩ":{"ha":476,"x_min":2,"x_max":474,"o":"m 239 925 l 202 950 q 195 954 199 951 q 146 975 163 975 q 109 954 122 975 q 96 893 96 933 l 96 888 l 2 888 q 37 1030 2 980 q 135 1080 72 1080 q 184 1071 159 1080 q 237 1042 209 1062 l 278 1013 q 306 997 293 1002 q 328 991 318 991 q 366 1013 353 991 q 380 1074 380 1035 l 380 1079 l 474 1079 q 439 937 474 987 q 341 886 404 886 q 294 895 317 886 q 239 925 271 903 m 117 760 l 359 760 l 359 0 l 117 0 l 117 760 z "},"Ī":{"ha":517,"x_min":44,"x_max":471,"o":"m 44 1269 l 471 1269 l 471 1141 l 44 1141 l 44 1269 m 127 1013 l 389 1013 l 389 0 l 127 0 l 127 1013 z "},"ī":{"ha":476,"x_min":24,"x_max":452,"o":"m 24 1060 l 452 1060 l 452 932 l 24 932 l 24 1060 m 117 760 l 359 760 l 359 0 l 117 0 l 117 760 z "},"Ĭ":{"ha":517,"x_min":30,"x_max":486,"o":"m 30 1288 l 127 1288 q 174 1226 141 1246 q 258 1206 206 1206 q 342 1226 309 1206 q 389 1288 374 1246 l 486 1288 q 416 1155 475 1200 q 258 1109 358 1109 q 99 1155 157 1109 q 30 1288 41 1200 m 127 1013 l 389 1013 l 389 0 l 127 0 l 127 1013 z "},"ĭ":{"ha":476,"x_min":10,"x_max":466,"o":"m 10 1089 l 107 1089 q 148 1017 115 1042 q 238 991 182 991 q 328 1017 294 991 q 369 1089 361 1042 l 466 1089 q 403 940 462 991 q 238 888 344 888 q 73 940 132 888 q 10 1089 14 991 m 117 760 l 359 760 l 359 0 l 117 0 l 117 760 z "},"Į":{"ha":517,"x_min":127,"x_max":508,"o":"m 293 0 l 389 0 q 342 -70 355 -45 q 329 -113 329 -95 q 349 -156 329 -139 q 402 -172 369 -172 q 455 -167 429 -172 q 508 -151 481 -162 l 508 -257 q 439 -268 471 -264 q 379 -272 407 -272 q 259 -241 301 -272 q 218 -151 218 -210 q 236 -78 218 -115 q 293 0 254 -41 m 127 1013 l 389 1013 l 389 0 l 127 0 l 127 1013 z "},"į":{"ha":476,"x_min":117,"x_max":479,"o":"m 264 0 l 359 0 q 313 -70 326 -45 q 300 -113 300 -95 q 320 -156 300 -139 q 373 -172 340 -172 q 426 -167 399 -172 q 479 -151 452 -162 l 479 -257 q 410 -268 441 -264 q 350 -272 378 -272 q 230 -241 272 -272 q 189 -151 189 -210 q 207 -78 189 -115 q 264 0 225 -41 m 117 760 l 359 760 l 359 0 l 117 0 l 117 760 m 117 1055 l 359 1055 l 359 857 l 117 857 l 117 1055 z "},"İ":{"ha":517,"x_min":127,"x_max":389,"o":"m 127 1013 l 389 1013 l 389 0 l 127 0 l 127 1013 m 168 1288 l 353 1288 l 353 1121 l 168 1121 l 168 1288 z "},"ı":{"ha":476,"x_min":117,"x_max":359,"o":"m 117 760 l 359 760 l 359 0 l 117 0 l 117 760 z "},"Ĳ":{"ha":1034,"x_min":127,"x_max":905,"o":"m 644 1013 l 905 1013 l 905 98 q 802 -184 905 -91 q 491 -278 699 -278 l 438 -278 l 438 -81 l 479 -81 q 602 -35 560 -81 q 644 98 644 10 l 644 1013 m 127 1013 l 389 1013 l 389 0 l 127 0 l 127 1013 z "},"ĳ":{"ha":952,"x_min":117,"x_max":836,"o":"m 593 760 l 836 760 l 836 14 q 762 -219 836 -139 q 550 -300 689 -300 l 430 -300 l 430 -140 l 472 -140 q 567 -109 541 -140 q 593 14 593 -78 l 593 760 m 593 1055 l 836 1055 l 836 857 l 593 857 l 593 1055 m 117 760 l 359 760 l 359 0 l 117 0 l 117 760 m 117 1055 l 359 1055 l 359 857 l 117 857 l 117 1055 z "},"Ĵ":{"ha":517,"x_min":-78,"x_max":513,"o":"m 153 1288 l 362 1288 l 513 1109 l 393 1109 l 258 1218 l 123 1109 l 2 1109 l 153 1288 m 127 1013 l 389 1013 l 389 98 q 286 -184 389 -91 q -25 -278 183 -278 l -78 -278 l -78 -81 l -37 -81 q 86 -35 44 -81 q 127 98 127 10 l 127 1013 z "},"ĵ":{"ha":476,"x_min":-46,"x_max":494,"o":"m 156 1111 l 320 1111 l 494 856 l 373 856 l 238 1008 l 103 856 l -18 856 l 156 1111 m 117 760 l 359 760 l 359 14 q 286 -219 359 -139 q 74 -300 213 -300 l -46 -300 l -46 -140 l -4 -140 q 91 -109 65 -140 q 117 14 117 -78 l 117 760 z "},"Ķ":{"ha":1076,"x_min":127,"x_max":1118,"o":"m 544 -89 l 764 -89 l 613 -291 l 483 -291 l 544 -89 m 127 1013 l 389 1013 l 389 643 l 765 1013 l 1068 1013 l 581 533 l 1118 0 l 791 0 l 389 399 l 389 0 l 127 0 l 127 1013 z "},"ķ":{"ha":924,"x_min":117,"x_max":950,"o":"m 454 -89 l 674 -89 l 524 -291 l 393 -291 l 454 -89 m 117 1055 l 359 1055 l 359 481 l 639 760 l 921 760 l 550 411 l 950 0 l 656 0 l 359 317 l 359 0 l 117 0 l 117 1055 z "},"ĸ":{"ha":924,"x_min":117,"x_max":950,"o":"m 117 760 l 359 760 l 359 481 l 639 760 l 921 760 l 550 411 l 950 0 l 656 0 l 359 317 l 359 0 l 117 0 l 117 760 z "},"Ĺ":{"ha":885,"x_min":127,"x_max":847,"o":"m 338 1289 l 530 1289 l 336 1109 l 203 1109 l 338 1289 m 127 1013 l 389 1013 l 389 197 l 847 197 l 847 0 l 127 0 l 127 1013 z "},"ĺ":{"ha":476,"x_min":117,"x_max":496,"o":"m 304 1289 l 496 1289 l 302 1109 l 170 1109 l 304 1289 m 117 1055 l 359 1055 l 359 0 l 117 0 l 117 1055 z "},"Ļ":{"ha":885,"x_min":127,"x_max":847,"o":"m 408 -89 l 628 -89 l 477 -291 l 347 -291 l 408 -89 m 127 1013 l 389 1013 l 389 197 l 847 197 l 847 0 l 127 0 l 127 1013 z "},"ļ":{"ha":476,"x_min":98,"x_max":379,"o":"m 159 -89 l 379 -89 l 229 -291 l 98 -291 l 159 -89 m 117 1055 l 359 1055 l 359 0 l 117 0 l 117 1055 z "},"Ľ":{"ha":885,"x_min":127,"x_max":847,"o":"m 653 1013 l 845 1013 l 732 758 l 599 758 l 653 1013 m 127 1013 l 389 1013 l 389 197 l 847 197 l 847 0 l 127 0 l 127 1013 z "},"ľ":{"ha":666,"x_min":117,"x_max":666,"o":"m 474 1055 l 666 1055 l 553 800 l 420 800 l 474 1055 m 117 1055 l 359 1055 l 359 0 l 117 0 l 117 1055 z "},"Ŀ":{"ha":885,"x_min":127,"x_max":847,"o":"m 577 740 l 821 740 l 821 477 l 577 477 l 577 740 m 127 1013 l 389 1013 l 389 197 l 847 197 l 847 0 l 127 0 l 127 1013 z "},"ŀ":{"ha":773,"x_min":117,"x_max":672,"o":"m 428 737 l 672 737 l 672 475 l 428 475 l 428 737 m 117 1055 l 359 1055 l 359 0 l 117 0 l 117 1055 z "},"Ł":{"ha":892,"x_min":-62,"x_max":854,"o":"m 135 1013 l 396 1013 l 396 730 l 568 856 l 665 725 l 396 541 l 396 197 l 854 197 l 854 0 l 135 0 l 135 355 l 35 283 l -62 412 l 135 546 l 135 1013 z "},"ł":{"ha":515,"x_min":-25,"x_max":542,"o":"m 135 1055 l 379 1055 l 379 715 l 467 775 l 542 671 l 379 559 l 379 0 l 135 0 l 135 435 l 50 376 l -25 481 l 135 591 l 135 1055 z "},"Ń":{"ha":1162,"x_min":127,"x_max":1035,"o":"m 585 1289 l 777 1289 l 583 1109 l 450 1109 l 585 1289 m 127 1013 l 419 1013 l 787 318 l 787 1013 l 1035 1013 l 1035 0 l 743 0 l 375 694 l 375 0 l 127 0 l 127 1013 z "},"ń":{"ha":989,"x_min":117,"x_max":880,"o":"m 524 1116 l 715 1116 l 465 861 l 332 861 l 524 1116 m 880 463 l 880 0 l 636 0 l 636 75 l 636 354 q 632 490 636 452 q 616 545 627 527 q 578 582 602 568 q 522 595 553 595 q 403 536 446 595 q 359 374 359 477 l 359 0 l 117 0 l 117 760 l 359 760 l 359 648 q 476 746 414 715 q 612 778 538 778 q 812 697 744 778 q 880 463 880 616 z "},"Ņ":{"ha":1162,"x_min":127,"x_max":1035,"o":"m 503 -89 l 722 -89 l 572 -291 l 441 -291 l 503 -89 m 127 1013 l 419 1013 l 787 318 l 787 1013 l 1035 1013 l 1035 0 l 743 0 l 375 694 l 375 0 l 127 0 l 127 1013 z "},"ņ":{"ha":989,"x_min":117,"x_max":880,"o":"m 420 -89 l 640 -89 l 489 -291 l 359 -291 l 420 -89 m 880 463 l 880 0 l 636 0 l 636 75 l 636 354 q 632 490 636 452 q 616 545 627 527 q 578 582 602 568 q 522 595 553 595 q 403 536 446 595 q 359 374 359 477 l 359 0 l 117 0 l 117 760 l 359 760 l 359 648 q 476 746 414 715 q 612 778 538 778 q 812 697 744 778 q 880 463 880 616 z "},"Ň":{"ha":1162,"x_min":127,"x_max":1035,"o":"m 127 1013 l 419 1013 l 787 318 l 787 1013 l 1035 1013 l 1035 0 l 743 0 l 375 694 l 375 0 l 127 0 l 127 1013 m 493 1109 l 342 1288 l 463 1288 l 597 1178 l 732 1288 l 853 1288 l 702 1109 l 493 1109 z "},"ň":{"ha":989,"x_min":117,"x_max":880,"o":"m 880 463 l 880 0 l 636 0 l 636 75 l 636 354 q 632 490 636 452 q 616 545 627 527 q 578 582 602 568 q 522 595 553 595 q 403 536 446 595 q 359 374 359 477 l 359 0 l 117 0 l 117 760 l 359 760 l 359 648 q 476 746 414 715 q 612 778 538 778 q 812 697 744 778 q 880 463 880 616 m 380 856 l 206 1111 l 327 1111 l 462 957 l 597 1111 l 718 1111 l 544 856 l 380 856 z "},"ŉ":{"ha":1365,"x_min":71,"x_max":1238,"o":"m 1238 463 l 1238 0 l 994 0 l 994 75 l 994 354 q 989 490 994 452 q 974 545 985 527 q 935 582 960 568 q 880 595 911 595 q 760 536 804 595 q 717 374 717 477 l 717 0 l 474 0 l 474 760 l 717 760 l 717 648 q 833 746 772 715 q 970 778 895 778 q 1170 697 1101 778 q 1238 463 1238 616 z "},"Ŋ":{"ha":1162,"x_min":117,"x_max":1015,"o":"m 1015 98 q 925 -184 1015 -103 q 614 -278 823 -278 l 562 -278 l 562 -81 l 602 -81 q 727 -34 684 -81 q 770 98 770 13 l 770 469 q 736 726 770 679 q 593 788 692 788 q 427 710 487 788 q 366 495 366 632 l 366 0 l 117 0 l 117 1013 l 369 1013 l 369 859 q 523 990 444 950 q 700 1031 602 1031 q 934 924 854 1031 q 1015 612 1015 817 l 1015 98 z "},"ŋ":{"ha":989,"x_min":117,"x_max":880,"o":"m 880 463 l 880 14 q 806 -220 880 -138 q 593 -300 732 -300 l 403 -300 l 403 -140 l 515 -140 q 610 -109 585 -140 q 636 14 636 -78 l 636 354 q 632 490 636 452 q 616 545 627 527 q 578 582 602 568 q 522 595 553 595 q 403 536 446 595 q 359 374 359 477 l 359 0 l 117 0 l 117 760 l 359 760 l 359 648 q 476 746 414 715 q 612 778 538 778 q 812 697 744 778 q 880 463 880 616 z "},"Ō":{"ha":1181,"x_min":69,"x_max":1111,"o":"m 376 1269 l 804 1269 l 804 1141 l 376 1141 l 376 1269 m 590 842 q 405 753 471 842 q 339 505 339 665 q 405 258 339 346 q 590 170 471 170 q 776 258 710 170 q 842 505 842 346 q 776 753 842 665 q 590 842 710 842 m 590 1031 q 972 891 834 1031 q 1111 505 1111 751 q 972 120 1111 260 q 590 -20 834 -20 q 208 120 347 -20 q 69 505 69 260 q 208 891 69 751 q 590 1031 347 1031 z "},"ō":{"ha":954,"x_min":60,"x_max":895,"o":"m 264 1060 l 692 1060 l 692 932 l 264 932 l 264 1060 m 478 604 q 355 546 397 604 q 313 379 313 488 q 355 212 313 270 q 478 154 397 154 q 600 212 557 154 q 642 379 642 270 q 600 546 642 488 q 478 604 557 604 m 478 778 q 784 672 674 778 q 895 379 895 566 q 784 86 895 192 q 478 -20 674 -20 q 171 86 281 -20 q 60 379 60 192 q 171 672 60 566 q 478 778 281 778 z "},"Ŏ":{"ha":1181,"x_min":69,"x_max":1111,"o":"m 358 1288 l 455 1288 q 502 1226 469 1246 q 586 1206 534 1206 q 670 1226 637 1206 q 717 1288 703 1246 l 814 1288 q 745 1155 803 1200 q 586 1109 686 1109 q 427 1155 486 1109 q 358 1288 369 1200 m 590 842 q 405 753 471 842 q 339 505 339 665 q 405 258 339 346 q 590 170 471 170 q 776 258 710 170 q 842 505 842 346 q 776 753 842 665 q 590 842 710 842 m 590 1031 q 972 891 834 1031 q 1111 505 1111 751 q 972 120 1111 260 q 590 -20 834 -20 q 208 120 347 -20 q 69 505 69 260 q 208 891 69 751 q 590 1031 347 1031 z "},"ŏ":{"ha":954,"x_min":60,"x_max":895,"o":"m 249 1093 l 346 1093 q 387 1021 353 1046 q 477 996 420 996 q 567 1021 533 996 q 608 1093 600 1046 l 705 1093 q 642 944 701 996 q 477 892 583 892 q 312 944 371 892 q 249 1093 253 996 m 478 604 q 355 546 397 604 q 313 379 313 488 q 355 212 313 270 q 478 154 397 154 q 600 212 557 154 q 642 379 642 270 q 600 546 642 488 q 478 604 557 604 m 478 778 q 784 672 674 778 q 895 379 895 566 q 784 86 895 192 q 478 -20 674 -20 q 171 86 281 -20 q 60 379 60 192 q 171 672 60 566 q 478 778 281 778 z "},"Ő":{"ha":1181,"x_min":69,"x_max":1111,"o":"m 724 1288 l 916 1288 l 722 1109 l 589 1109 l 724 1288 m 469 1288 l 661 1288 l 468 1109 l 335 1109 l 469 1288 m 590 842 q 405 753 471 842 q 339 505 339 665 q 405 258 339 346 q 590 170 471 170 q 776 258 710 170 q 842 505 842 346 q 776 753 842 665 q 590 842 710 842 m 590 1031 q 972 891 834 1031 q 1111 505 1111 751 q 972 120 1111 260 q 590 -20 834 -20 q 208 120 347 -20 q 69 505 69 260 q 208 891 69 751 q 590 1031 347 1031 z "},"ő":{"ha":954,"x_min":60,"x_max":895,"o":"m 408 1111 l 555 1111 l 387 856 l 277 856 l 408 1111 m 654 1111 l 811 1111 l 627 856 l 509 856 l 654 1111 m 478 604 q 355 546 397 604 q 313 379 313 488 q 355 212 313 270 q 478 154 397 154 q 600 212 557 154 q 642 379 642 270 q 600 546 642 488 q 478 604 557 604 m 478 778 q 784 672 674 778 q 895 379 895 566 q 784 86 895 192 q 478 -20 674 -20 q 171 86 281 -20 q 60 379 60 192 q 171 672 60 566 q 478 778 281 778 z "},"Œ":{"ha":1621,"x_min":69,"x_max":1520,"o":"m 800 815 l 729 815 q 436 739 533 815 q 339 507 339 662 q 436 275 339 352 q 729 197 534 197 l 800 197 l 800 815 m 739 1013 l 1504 1013 l 1504 815 l 1061 815 l 1061 627 l 1478 627 l 1478 429 l 1061 429 l 1061 197 l 1520 197 l 1520 0 l 739 0 q 714 -1 730 0 q 690 -1 699 -1 q 230 131 391 -1 q 69 507 69 262 q 230 883 69 751 q 690 1014 391 1014 q 714 1013 698 1014 q 739 1013 730 1013 z "},"œ":{"ha":1520,"x_min":60,"x_max":1453,"o":"m 1203 463 q 1163 574 1203 532 q 1057 616 1122 616 q 943 577 987 616 q 888 463 899 537 l 1203 463 m 1453 382 l 1453 313 l 885 313 q 947 184 894 227 q 1095 142 1000 142 q 1252 164 1171 142 q 1417 233 1332 187 l 1417 46 q 1244 -3 1331 14 q 1072 -20 1158 -20 q 888 8 960 -20 q 766 94 815 35 q 638 9 711 37 q 478 -20 566 -20 q 171 86 281 -20 q 60 379 60 192 q 171 672 60 566 q 478 778 281 778 q 639 750 569 778 q 764 664 709 722 q 887 750 819 723 q 1046 778 954 778 q 1343 671 1234 778 q 1453 382 1453 565 m 478 604 q 355 546 397 604 q 313 379 313 488 q 355 212 313 270 q 478 154 397 154 q 600 212 557 154 q 642 379 642 270 q 600 546 642 488 q 478 604 557 604 z "},"Ŕ":{"ha":1069,"x_min":127,"x_max":1042,"o":"m 507 1289 l 699 1289 l 506 1109 l 373 1109 l 507 1289 m 498 564 q 616 594 581 564 q 652 694 652 625 q 616 793 652 764 q 498 823 581 823 l 389 823 l 389 564 l 498 564 m 389 383 l 389 0 l 127 0 l 127 1013 l 526 1013 q 820 945 726 1013 q 913 733 913 878 q 864 568 913 633 q 718 473 816 504 q 814 418 772 461 q 900 288 857 375 l 1042 0 l 764 0 l 640 252 q 565 355 603 328 q 463 383 526 383 l 389 383 z "},"ŕ":{"ha":685,"x_min":117,"x_max":715,"o":"m 524 1116 l 715 1116 l 465 861 l 332 861 l 524 1116 m 681 553 q 617 575 649 568 q 554 582 586 582 q 410 522 460 582 q 359 350 359 462 l 359 0 l 117 0 l 117 760 l 359 760 l 359 635 q 467 744 406 709 q 612 778 528 778 q 639 777 625 778 q 680 772 653 776 l 681 553 z "},"Ŗ":{"ha":1069,"x_min":127,"x_max":1042,"o":"m 506 -89 l 726 -89 l 575 -291 l 445 -291 l 506 -89 m 498 564 q 616 594 581 564 q 652 694 652 625 q 616 793 652 764 q 498 823 581 823 l 389 823 l 389 564 l 498 564 m 389 383 l 389 0 l 127 0 l 127 1013 l 526 1013 q 820 945 726 1013 q 913 733 913 878 q 864 568 913 633 q 718 473 816 504 q 814 418 772 461 q 900 288 857 375 l 1042 0 l 764 0 l 640 252 q 565 355 603 328 q 463 383 526 383 l 389 383 z "},"ŗ":{"ha":685,"x_min":98,"x_max":681,"o":"m 159 -89 l 379 -89 l 229 -291 l 98 -291 l 159 -89 m 681 553 q 617 575 649 568 q 554 582 586 582 q 410 522 460 582 q 359 350 359 462 l 359 0 l 117 0 l 117 760 l 359 760 l 359 635 q 467 744 406 709 q 612 778 528 778 q 639 777 625 778 q 680 772 653 776 l 681 553 z "},"Ř":{"ha":1069,"x_min":127,"x_max":1042,"o":"m 498 564 q 616 594 581 564 q 652 694 652 625 q 616 793 652 764 q 498 823 581 823 l 389 823 l 389 564 l 498 564 m 389 383 l 389 0 l 127 0 l 127 1013 l 526 1013 q 820 945 726 1013 q 913 733 913 878 q 864 568 913 633 q 718 473 816 504 q 814 418 772 461 q 900 288 857 375 l 1042 0 l 764 0 l 640 252 q 565 355 603 328 q 463 383 526 383 l 389 383 m 379 1109 l 228 1288 l 349 1288 l 484 1178 l 618 1288 l 739 1288 l 588 1109 l 379 1109 z "},"ř":{"ha":685,"x_min":117,"x_max":681,"o":"m 681 553 q 617 575 649 568 q 554 582 586 582 q 410 522 460 582 q 359 350 359 462 l 359 0 l 117 0 l 117 760 l 359 760 l 359 635 q 467 744 406 709 q 612 778 528 778 q 639 777 625 778 q 680 772 653 776 l 681 553 m 323 856 l 149 1111 l 270 1111 l 405 957 l 540 1111 l 661 1111 l 487 856 l 323 856 z "},"Ś":{"ha":1000,"x_min":100,"x_max":899,"o":"m 507 1289 l 699 1289 l 506 1109 l 373 1109 l 507 1289 m 832 981 l 832 766 q 669 823 749 804 q 519 842 590 842 q 381 816 426 842 q 336 736 336 790 q 367 672 336 695 q 476 633 397 650 l 587 611 q 827 508 756 577 q 899 311 899 439 q 799 62 899 144 q 496 -20 700 -20 q 302 -1 399 -20 q 109 53 205 17 l 109 273 q 296 196 205 222 q 471 170 387 170 q 602 198 556 170 q 647 279 647 227 q 616 353 647 327 q 493 399 585 378 l 392 421 q 170 525 240 454 q 100 717 100 596 q 197 949 100 868 q 478 1031 295 1031 q 650 1018 562 1031 q 832 981 738 1006 z "},"ś":{"ha":827,"x_min":72,"x_max":761,"o":"m 524 1116 l 715 1116 l 465 861 l 332 861 l 524 1116 m 710 736 l 710 551 q 559 600 632 584 q 422 616 487 616 q 320 599 353 616 q 286 546 286 582 q 312 501 286 517 q 403 478 337 486 l 446 472 q 696 394 632 448 q 761 224 761 340 q 671 41 761 102 q 404 -20 582 -20 q 249 -8 329 -20 q 83 28 168 4 l 83 212 q 232 159 156 177 q 387 142 309 142 q 494 161 458 142 q 530 220 530 181 q 506 268 530 252 q 407 293 481 284 l 364 298 q 137 374 202 319 q 72 541 72 429 q 155 720 72 661 q 408 778 237 778 q 549 768 475 778 q 710 736 623 758 z "},"Ŝ":{"ha":1000,"x_min":100,"x_max":899,"o":"m 374 1288 l 583 1288 l 734 1109 l 613 1109 l 478 1218 l 343 1109 l 222 1109 l 374 1288 m 832 981 l 832 766 q 669 823 749 804 q 519 842 590 842 q 381 816 426 842 q 336 736 336 790 q 367 672 336 695 q 476 633 397 650 l 587 611 q 827 508 756 577 q 899 311 899 439 q 799 62 899 144 q 496 -20 700 -20 q 302 -1 399 -20 q 109 53 205 17 l 109 273 q 296 196 205 222 q 471 170 387 170 q 602 198 556 170 q 647 279 647 227 q 616 353 647 327 q 493 399 585 378 l 392 421 q 170 525 240 454 q 100 717 100 596 q 197 949 100 868 q 478 1031 295 1031 q 650 1018 562 1031 q 832 981 738 1006 z "},"ŝ":{"ha":827,"x_min":72,"x_max":761,"o":"m 326 1111 l 490 1111 l 664 856 l 543 856 l 408 1008 l 273 856 l 153 856 l 326 1111 m 710 736 l 710 551 q 559 600 632 584 q 422 616 487 616 q 320 599 353 616 q 286 546 286 582 q 312 501 286 517 q 403 478 337 486 l 446 472 q 696 394 632 448 q 761 224 761 340 q 671 41 761 102 q 404 -20 582 -20 q 249 -8 329 -20 q 83 28 168 4 l 83 212 q 232 159 156 177 q 387 142 309 142 q 494 161 458 142 q 530 220 530 181 q 506 268 530 252 q 407 293 481 284 l 364 298 q 137 374 202 319 q 72 541 72 429 q 155 720 72 661 q 408 778 237 778 q 549 768 475 778 q 710 736 623 758 z "},"Ş":{"ha":1000,"x_min":100,"x_max":899,"o":"m 832 981 l 832 766 q 669 823 749 804 q 519 842 590 842 q 381 816 426 842 q 336 736 336 790 q 367 672 336 695 q 476 633 397 650 l 587 611 q 827 508 756 577 q 899 311 899 439 q 799 62 899 144 q 496 -20 700 -20 q 302 -1 399 -20 q 109 53 205 17 l 109 273 q 296 196 205 222 q 471 170 387 170 q 602 198 556 170 q 647 279 647 227 q 616 353 647 327 q 493 399 585 378 l 392 421 q 170 525 240 454 q 100 717 100 596 q 197 949 100 868 q 478 1031 295 1031 q 650 1018 562 1031 q 832 981 738 1006 m 558 0 q 616 -78 597 -42 q 635 -146 635 -114 q 593 -241 635 -210 q 465 -272 551 -272 q 398 -268 433 -272 q 328 -254 363 -263 l 328 -151 q 390 -167 361 -162 q 440 -172 418 -172 q 502 -157 479 -172 q 524 -114 524 -141 q 509 -68 524 -96 q 464 0 494 -41 l 558 0 z "},"ş":{"ha":827,"x_min":72,"x_max":761,"o":"m 710 736 l 710 551 q 559 600 632 584 q 422 616 487 616 q 320 599 353 616 q 286 546 286 582 q 312 501 286 517 q 403 478 337 486 l 446 472 q 696 394 632 448 q 761 224 761 340 q 671 41 761 102 q 404 -20 582 -20 q 249 -8 329 -20 q 83 28 168 4 l 83 212 q 232 159 156 177 q 387 142 309 142 q 494 161 458 142 q 530 220 530 181 q 506 268 530 252 q 407 293 481 284 l 364 298 q 137 374 202 319 q 72 541 72 429 q 155 720 72 661 q 408 778 237 778 q 549 768 475 778 q 710 736 623 758 m 475 0 q 533 -78 514 -42 q 551 -146 551 -114 q 510 -241 551 -210 q 382 -272 468 -272 q 315 -268 349 -272 q 245 -254 280 -263 l 244 -151 q 306 -167 278 -162 q 357 -172 334 -172 q 418 -157 396 -172 q 440 -114 440 -141 q 426 -68 440 -96 q 380 0 411 -41 l 475 0 z "},"Š":{"ha":1000,"x_min":100,"x_max":899,"o":"m 832 981 l 832 766 q 669 823 749 804 q 519 842 590 842 q 381 816 426 842 q 336 736 336 790 q 367 672 336 695 q 476 633 397 650 l 587 611 q 827 508 756 577 q 899 311 899 439 q 799 62 899 144 q 496 -20 700 -20 q 302 -1 399 -20 q 109 53 205 17 l 109 273 q 296 196 205 222 q 471 170 387 170 q 602 198 556 170 q 647 279 647 227 q 616 353 647 327 q 493 399 585 378 l 392 421 q 170 525 240 454 q 100 717 100 596 q 197 949 100 868 q 478 1031 295 1031 q 650 1018 562 1031 q 832 981 738 1006 m 379 1109 l 228 1288 l 349 1288 l 484 1178 l 618 1288 l 739 1288 l 588 1109 l 379 1109 z "},"š":{"ha":827,"x_min":72,"x_max":761,"o":"m 710 736 l 710 551 q 559 600 632 584 q 422 616 487 616 q 320 599 353 616 q 286 546 286 582 q 312 501 286 517 q 403 478 337 486 l 446 472 q 696 394 632 448 q 761 224 761 340 q 671 41 761 102 q 404 -20 582 -20 q 249 -8 329 -20 q 83 28 168 4 l 83 212 q 232 159 156 177 q 387 142 309 142 q 494 161 458 142 q 530 220 530 181 q 506 268 530 252 q 407 293 481 284 l 364 298 q 137 374 202 319 q 72 541 72 429 q 155 720 72 661 q 408 778 237 778 q 549 768 475 778 q 710 736 623 758 z "},"Ţ":{"ha":947,"x_min":7,"x_max":940,"o":"m 536 0 q 594 -78 576 -42 q 613 -146 613 -114 q 571 -241 613 -210 q 444 -272 530 -272 q 376 -268 411 -272 q 307 -254 342 -263 l 306 -151 q 368 -167 340 -162 q 418 -172 396 -172 q 480 -157 458 -172 q 502 -114 502 -141 q 487 -68 502 -96 q 442 0 473 -41 l 536 0 m 7 1013 l 940 1013 l 940 815 l 604 815 l 604 0 l 343 0 l 343 815 l 7 815 l 7 1013 z "},"ţ":{"ha":664,"x_min":18,"x_max":632,"o":"m 408 0 q 466 -78 448 -42 q 485 -146 485 -114 q 443 -241 485 -210 q 315 -272 401 -272 q 248 -268 283 -272 q 178 -254 214 -263 l 178 -151 q 240 -167 212 -162 q 290 -172 268 -172 q 352 -157 330 -172 q 374 -114 374 -141 q 359 -68 374 -96 q 314 0 345 -41 l 408 0 m 382 975 l 382 760 l 632 760 l 632 586 l 382 586 l 382 264 q 403 192 382 211 q 486 174 424 174 l 611 174 l 611 0 l 403 0 q 199 60 259 0 q 139 264 139 120 l 139 586 l 18 586 l 18 760 l 139 760 l 139 975 l 382 975 z "},"Ť":{"ha":947,"x_min":7,"x_max":940,"o":"m 7 1013 l 940 1013 l 940 815 l 604 815 l 604 0 l 343 0 l 343 815 l 7 815 l 7 1013 m 367 1113 l 216 1292 l 336 1292 l 471 1182 l 606 1292 l 727 1292 l 576 1113 l 367 1113 z "},"ť":{"ha":664,"x_min":18,"x_max":705,"o":"m 382 975 l 382 760 l 632 760 l 632 586 l 382 586 l 382 264 q 403 192 382 211 q 486 174 424 174 l 611 174 l 611 0 l 403 0 q 199 60 259 0 q 139 264 139 120 l 139 586 l 18 586 l 18 760 l 139 760 l 139 975 l 382 975 m 513 1131 l 705 1131 l 591 876 l 458 876 l 513 1131 z "},"Ŧ":{"ha":947,"x_min":7,"x_max":940,"o":"m 7 1013 l 940 1013 l 940 815 l 604 815 l 604 519 l 772 519 l 772 342 l 604 342 l 604 0 l 343 0 l 343 342 l 176 342 l 176 519 l 343 519 l 343 815 l 7 815 l 7 1013 z "},"ŧ":{"ha":664,"x_min":18,"x_max":632,"o":"m 382 975 l 382 760 l 632 760 l 632 586 l 382 586 l 382 490 l 632 490 l 632 316 l 382 316 l 382 264 q 403 193 382 211 q 486 174 424 174 l 611 174 l 611 0 l 403 0 q 199 60 259 0 q 139 264 139 120 l 139 316 l 18 316 l 18 490 l 139 490 l 139 586 l 18 586 l 18 760 l 139 760 l 139 975 l 382 975 z "},"Ũ":{"ha":1128,"x_min":127,"x_max":1000,"o":"m 565 1142 l 527 1166 q 520 1170 525 1167 q 471 1187 490 1187 q 435 1167 449 1187 q 422 1113 422 1147 l 422 1109 l 328 1109 q 328 1119 328 1112 q 329 1129 329 1126 q 365 1245 329 1201 q 460 1289 401 1289 q 511 1281 486 1289 q 562 1256 536 1272 l 602 1230 q 630 1215 616 1220 q 654 1210 643 1210 q 692 1230 679 1210 q 705 1289 705 1251 l 800 1289 q 799 1278 800 1285 q 798 1268 798 1272 q 762 1153 798 1196 q 667 1109 726 1109 q 617 1116 641 1109 q 565 1142 593 1124 m 127 1013 l 389 1013 l 389 406 q 430 226 389 280 q 564 172 471 172 q 698 226 657 172 q 739 406 739 280 l 739 1013 l 1000 1013 l 1000 406 q 892 85 1000 191 q 564 -20 785 -20 q 235 85 343 -20 q 127 406 127 191 l 127 1013 z "},"ũ":{"ha":989,"x_min":109,"x_max":872,"o":"m 513 925 l 475 950 q 469 954 473 951 q 420 975 437 975 q 382 954 395 975 q 370 893 370 933 l 370 888 l 275 888 q 310 1030 275 980 q 408 1080 345 1080 q 457 1071 433 1080 q 510 1042 482 1062 l 551 1013 q 579 997 566 1002 q 602 991 591 991 q 640 1013 626 991 q 653 1074 653 1035 l 653 1079 l 747 1079 q 712 937 747 987 q 614 886 677 886 q 567 895 590 886 q 513 925 545 903 m 109 296 l 109 760 l 353 760 l 353 684 q 352 529 353 622 q 351 404 351 435 q 356 272 351 313 q 372 214 361 232 q 411 177 387 190 q 467 164 435 164 q 586 222 543 164 q 629 385 629 281 l 629 760 l 872 760 l 872 0 l 629 0 l 629 110 q 513 12 574 43 q 378 -20 452 -20 q 177 61 246 -20 q 109 296 109 142 z "},"Ū":{"ha":1128,"x_min":127,"x_max":1000,"o":"m 351 1269 l 778 1269 l 778 1141 l 351 1141 l 351 1269 m 127 1013 l 389 1013 l 389 406 q 430 226 389 280 q 564 172 471 172 q 698 226 657 172 q 739 406 739 280 l 739 1013 l 1000 1013 l 1000 406 q 892 85 1000 191 q 564 -20 785 -20 q 235 85 343 -20 q 127 406 127 191 l 127 1013 z "},"ū":{"ha":989,"x_min":109,"x_max":872,"o":"m 277 1059 l 704 1059 l 704 932 l 277 932 l 277 1059 m 109 296 l 109 760 l 353 760 l 353 684 q 352 529 353 622 q 351 404 351 435 q 356 272 351 313 q 372 214 361 232 q 411 177 387 190 q 467 164 435 164 q 586 222 543 164 q 629 385 629 281 l 629 760 l 872 760 l 872 0 l 629 0 l 629 110 q 513 12 574 43 q 378 -20 452 -20 q 177 61 246 -20 q 109 296 109 142 z "},"Ŭ":{"ha":1128,"x_min":127,"x_max":1000,"o":"m 336 1288 l 433 1288 q 480 1226 448 1246 q 564 1206 513 1206 q 648 1226 616 1206 q 695 1288 681 1246 l 792 1288 q 723 1155 781 1200 q 564 1109 665 1109 q 406 1155 464 1109 q 336 1288 347 1200 m 127 1013 l 389 1013 l 389 406 q 430 226 389 280 q 564 172 471 172 q 698 226 657 172 q 739 406 739 280 l 739 1013 l 1000 1013 l 1000 406 q 892 85 1000 191 q 564 -20 785 -20 q 235 85 343 -20 q 127 406 127 191 l 127 1013 z "},"ŭ":{"ha":989,"x_min":109,"x_max":872,"o":"m 283 1089 l 380 1089 q 421 1017 388 1042 q 511 991 455 991 q 601 1017 568 991 q 642 1089 635 1042 l 739 1089 q 676 940 735 991 q 511 888 617 888 q 347 940 406 888 q 283 1089 288 991 m 109 296 l 109 760 l 353 760 l 353 684 q 352 529 353 622 q 351 404 351 435 q 356 272 351 313 q 372 214 361 232 q 411 177 387 190 q 467 164 435 164 q 586 222 543 164 q 629 385 629 281 l 629 760 l 872 760 l 872 0 l 629 0 l 629 110 q 513 12 574 43 q 378 -20 452 -20 q 177 61 246 -20 q 109 296 109 142 z "},"Ů":{"ha":1128,"x_min":127,"x_max":1000,"o":"m 127 1013 l 389 1013 l 389 406 q 430 226 389 280 q 564 172 471 172 q 698 226 657 172 q 739 406 739 280 l 739 1013 l 1000 1013 l 1000 406 q 892 85 1000 191 q 564 -20 785 -20 q 235 85 343 -20 q 127 406 127 191 l 127 1013 m 478 1097 q 504 1034 478 1059 q 567 1008 530 1008 q 630 1034 604 1008 q 656 1097 656 1060 q 630 1159 656 1133 q 567 1185 604 1185 q 504 1159 530 1185 q 478 1097 478 1133 m 374 1097 q 430 1233 374 1177 q 567 1290 487 1290 q 704 1233 647 1290 q 760 1097 760 1177 q 704 960 760 1017 q 567 903 647 903 q 430 960 487 903 q 374 1097 374 1017 z "},"ů":{"ha":989,"x_min":109,"x_max":872,"o":"m 109 296 l 109 760 l 353 760 l 353 684 q 352 529 353 622 q 351 404 351 435 q 356 272 351 313 q 372 214 361 232 q 411 177 387 190 q 467 164 435 164 q 586 222 543 164 q 629 385 629 281 l 629 760 l 872 760 l 872 0 l 629 0 l 629 110 q 513 12 574 43 q 378 -20 452 -20 q 177 61 246 -20 q 109 296 109 142 m 408 1031 q 434 968 408 994 q 496 942 460 942 q 559 968 534 942 q 585 1031 585 994 q 559 1094 585 1067 q 496 1120 533 1120 q 433 1094 459 1120 q 408 1031 408 1067 m 303 1031 q 360 1167 303 1111 q 496 1224 416 1224 q 633 1167 576 1224 q 690 1031 690 1111 q 633 894 690 951 q 496 838 576 838 q 360 894 416 838 q 303 1031 303 951 z "},"Ű":{"ha":1128,"x_min":127,"x_max":1000,"o":"m 697 1288 l 889 1288 l 696 1109 l 563 1109 l 697 1288 m 443 1288 l 635 1288 l 441 1109 l 309 1109 l 443 1288 m 127 1013 l 389 1013 l 389 406 q 430 226 389 280 q 564 172 471 172 q 698 226 657 172 q 739 406 739 280 l 739 1013 l 1000 1013 l 1000 406 q 892 85 1000 191 q 564 -20 785 -20 q 235 85 343 -20 q 127 406 127 191 l 127 1013 z "},"ű":{"ha":989,"x_min":109,"x_max":872,"o":"m 427 1111 l 574 1111 l 406 856 l 295 856 l 427 1111 m 673 1111 l 829 1111 l 645 856 l 527 856 l 673 1111 m 109 296 l 109 760 l 353 760 l 353 684 q 352 529 353 622 q 351 404 351 435 q 356 272 351 313 q 372 214 361 232 q 411 177 387 190 q 467 164 435 164 q 586 222 543 164 q 629 385 629 281 l 629 760 l 872 760 l 872 0 l 629 0 l 629 110 q 513 12 574 43 q 378 -20 452 -20 q 177 61 246 -20 q 109 296 109 142 z "},"Ų":{"ha":1128,"x_min":127,"x_max":1000,"o":"m 127 1013 l 389 1013 l 389 406 q 430 226 389 280 q 564 172 471 172 q 698 226 657 172 q 739 406 739 280 l 739 1013 l 1000 1013 l 1000 406 q 892 85 1000 191 q 564 -20 785 -20 q 235 85 343 -20 q 127 406 127 191 l 127 1013 m 516 0 l 612 0 q 565 -70 578 -45 q 552 -113 552 -95 q 572 -156 552 -139 q 625 -172 592 -172 q 678 -167 652 -172 q 731 -151 704 -162 l 731 -257 q 662 -268 694 -264 q 602 -272 630 -272 q 483 -241 524 -272 q 441 -151 441 -210 q 459 -78 441 -115 q 516 0 477 -41 z "},"ų":{"ha":989,"x_min":109,"x_max":994,"o":"m 109 296 l 109 760 l 353 760 l 353 684 q 352 529 353 622 q 351 404 351 435 q 356 272 351 313 q 372 214 361 232 q 411 177 387 190 q 467 164 435 164 q 586 222 543 164 q 629 385 629 281 l 629 760 l 872 760 l 872 0 l 629 0 l 629 110 q 513 12 574 43 q 378 -20 452 -20 q 177 61 246 -20 q 109 296 109 142 m 779 0 l 875 0 q 828 -70 841 -45 q 815 -113 815 -95 q 835 -156 815 -139 q 888 -172 855 -172 q 941 -167 915 -172 q 994 -151 967 -162 l 994 -257 q 925 -268 957 -264 q 865 -272 893 -272 q 746 -241 787 -272 q 704 -151 704 -210 q 722 -78 704 -115 q 779 0 741 -41 z "},"Ŵ":{"ha":1532,"x_min":41,"x_max":1489,"o":"m 661 1293 l 869 1293 l 1021 1114 l 900 1114 l 765 1223 l 630 1114 l 509 1114 l 661 1293 m 41 1013 l 292 1013 l 467 277 l 640 1013 l 892 1013 l 1065 277 l 1240 1013 l 1489 1013 l 1250 0 l 949 0 l 765 770 l 583 0 l 282 0 l 41 1013 z "},"ŵ":{"ha":1283,"x_min":49,"x_max":1235,"o":"m 559 1111 l 724 1111 l 897 856 l 777 856 l 642 1008 l 507 856 l 386 856 l 559 1111 m 49 760 l 285 760 l 412 236 l 541 760 l 743 760 l 871 241 l 999 760 l 1235 760 l 1035 0 l 770 0 l 642 522 l 514 0 l 249 0 l 49 760 z "},"Ŷ":{"ha":1006,"x_min":-14,"x_max":1019,"o":"m 398 1293 l 607 1293 l 758 1114 l 637 1114 l 503 1223 l 368 1114 l 247 1114 l 398 1293 m -14 1013 l 272 1013 l 503 652 l 733 1013 l 1019 1013 l 633 427 l 633 0 l 372 0 l 372 427 l -14 1013 z "},"ŷ":{"ha":905,"x_min":17,"x_max":880,"o":"m 366 1111 l 530 1111 l 704 856 l 583 856 l 448 1008 l 313 856 l 193 856 l 366 1111 m 17 760 l 260 760 l 464 244 l 637 760 l 880 760 l 561 -72 q 449 -249 513 -199 q 279 -300 385 -300 l 139 -300 l 139 -140 l 215 -140 q 305 -121 277 -140 q 349 -50 333 -101 l 355 -29 l 17 760 z "},"Ÿ":{"ha":1006,"x_min":-14,"x_max":1019,"o":"m -14 1013 l 272 1013 l 503 652 l 733 1013 l 1019 1013 l 633 427 l 633 0 l 372 0 l 372 427 l -14 1013 m 289 1288 l 448 1288 l 448 1121 l 289 1121 l 289 1288 m 557 1288 l 716 1288 l 716 1121 l 557 1121 l 557 1288 z "},"Ź":{"ha":1007,"x_min":62,"x_max":945,"o":"m 507 1289 l 699 1289 l 506 1109 l 373 1109 l 507 1289 m 78 1013 l 929 1013 l 929 854 l 386 197 l 945 197 l 945 0 l 62 0 l 62 158 l 606 815 l 78 815 l 78 1013 z "},"ź":{"ha":808,"x_min":62,"x_max":742,"o":"m 524 1116 l 715 1116 l 465 861 l 332 861 l 524 1116 m 79 760 l 742 760 l 742 590 l 342 174 l 742 174 l 742 0 l 62 0 l 62 170 l 463 586 l 79 586 l 79 760 z "},"Ż":{"ha":1007,"x_min":62,"x_max":945,"o":"m 397 1291 l 583 1291 l 583 1124 l 397 1124 l 397 1291 m 78 1013 l 929 1013 l 929 854 l 386 197 l 945 197 l 945 0 l 62 0 l 62 158 l 606 815 l 78 815 l 78 1013 z "},"ż":{"ha":808,"x_min":62,"x_max":742,"o":"m 283 1055 l 526 1055 l 526 857 l 283 857 l 283 1055 m 79 760 l 742 760 l 742 590 l 342 174 l 742 174 l 742 0 l 62 0 l 62 170 l 463 586 l 79 586 l 79 760 z "},"Ž":{"ha":1007,"x_min":62,"x_max":945,"o":"m 78 1013 l 929 1013 l 929 854 l 386 197 l 945 197 l 945 0 l 62 0 l 62 158 l 606 815 l 78 815 l 78 1013 m 383 1109 l 232 1288 l 353 1288 l 488 1178 l 623 1288 l 743 1288 l 592 1109 l 383 1109 z "},"ž":{"ha":808,"x_min":62,"x_max":742,"o":"m 79 760 l 742 760 l 742 590 l 342 174 l 742 174 l 742 0 l 62 0 l 62 170 l 463 586 l 79 586 l 79 760 m 322 856 l 149 1111 l 269 1111 l 404 957 l 539 1111 l 660 1111 l 486 856 l 322 856 z "},"ſ":{"ha":604,"x_min":26,"x_max":616,"o":"m 390 0 l 147 0 l 147 586 l 26 586 l 26 760 l 147 760 l 147 812 q 216 996 147 937 q 431 1055 286 1055 l 616 1055 l 616 896 l 482 896 q 410 878 431 896 q 390 812 390 858 l 390 0 z "},"ƀ":{"ha":994,"x_min":12,"x_max":932,"o":"m 521 157 q 640 214 599 157 q 681 379 681 271 q 640 545 681 488 q 521 602 599 602 q 401 544 443 602 q 359 379 359 487 q 401 214 359 271 q 521 157 443 157 m 359 648 q 471 746 410 715 q 611 778 532 778 q 842 666 751 778 q 932 379 932 555 q 842 92 932 203 q 611 -20 751 -20 q 471 12 532 -20 q 359 110 410 43 l 359 0 l 117 0 l 117 839 l 12 839 l 12 978 l 117 978 l 117 1055 l 359 1055 l 359 978 l 582 978 l 582 839 l 359 839 l 359 648 z "},"Ɓ":{"ha":1126,"x_min":-95,"x_max":1029,"o":"m 601 621 q 694 648 663 621 q 726 728 726 675 q 694 807 726 780 q 601 835 663 835 l 456 835 l 456 621 l 601 621 m 610 178 q 728 211 688 178 q 768 311 768 244 q 728 410 768 377 q 610 443 689 443 l 456 443 l 456 178 l 610 178 m 852 542 q 983 452 937 517 q 1029 290 1029 386 q 930 72 1029 144 q 629 0 831 0 l 195 0 l 195 835 l 142 835 q 92 816 113 835 q 79 764 79 804 l 79 732 l -95 732 l -95 784 q -28 958 -95 900 q 195 1013 36 1013 l 587 1013 q 893 949 798 1013 q 987 745 987 885 q 953 619 987 671 q 852 542 918 567 z "},"Ƃ":{"ha":1059,"x_min":127,"x_max":961,"o":"m 542 178 q 661 208 624 178 q 700 304 700 241 q 661 399 700 366 q 542 429 625 429 l 389 429 l 389 178 l 542 178 m 561 0 l 127 0 l 127 1013 l 893 1013 l 893 815 l 389 815 l 389 627 l 561 627 q 862 547 753 627 q 961 313 961 475 q 862 79 961 151 q 561 0 753 0 z "},"ƃ":{"ha":994,"x_min":117,"x_max":932,"o":"m 521 157 q 640 214 599 157 q 681 379 681 271 q 640 545 681 488 q 521 602 599 602 q 401 544 443 602 q 359 379 359 487 q 401 214 359 271 q 521 157 443 157 m 359 648 q 471 746 410 715 q 611 778 532 778 q 842 666 751 778 q 932 379 932 555 q 842 92 932 203 q 611 -20 751 -20 q 471 12 532 -20 q 359 110 410 43 l 359 0 l 117 0 l 117 1055 l 814 1055 l 814 858 l 359 858 l 359 648 z "},"Ƅ":{"ha":1059,"x_min":55,"x_max":1016,"o":"m 597 178 q 715 208 679 178 q 755 304 755 241 q 715 399 755 366 q 597 429 680 429 l 444 429 l 444 178 l 597 178 m 616 0 l 182 0 l 182 627 l 55 749 l 444 1013 l 444 627 l 616 627 q 917 547 808 627 q 1016 313 1016 475 q 917 79 1016 151 q 616 0 808 0 z "},"ƅ":{"ha":994,"x_min":35,"x_max":967,"o":"m 395 648 q 506 746 445 715 q 646 778 567 778 q 877 666 787 778 q 967 379 967 555 q 877 92 967 203 q 646 -20 787 -20 q 506 12 567 -20 q 395 110 445 43 l 395 0 l 152 0 l 152 627 l 35 749 l 395 1055 l 395 648 m 437 214 q 556 157 478 157 q 675 214 634 157 q 716 379 716 271 q 675 545 716 488 q 556 602 634 602 q 437 544 478 602 q 395 379 395 487 q 437 214 395 271 z "},"Ɔ":{"ha":1019,"x_min":69,"x_max":930,"o":"m 69 956 q 219 1012 141 993 q 382 1031 297 1031 q 783 889 635 1031 q 930 505 930 748 q 783 122 930 263 q 382 -20 635 -20 q 219 -1 297 -20 q 69 56 141 18 l 69 265 q 212 193 142 216 q 361 170 283 170 q 581 259 500 170 q 661 505 661 349 q 581 752 661 663 q 361 842 500 842 q 212 819 283 842 q 69 746 142 795 l 69 956 z "},"Ƈ":{"ha":1019,"x_min":69,"x_max":1136,"o":"m 930 56 q 781 -1 859 18 q 618 -20 703 -20 q 217 122 365 -20 q 69 505 69 263 q 217 889 69 748 q 618 1031 365 1031 q 682 1028 650 1031 q 772 1190 705 1129 q 1083 1283 875 1283 l 1136 1283 l 1136 1086 l 1095 1086 q 972 1040 1014 1086 q 930 907 930 995 l 930 746 q 787 819 858 795 q 639 842 717 842 q 419 752 499 842 q 339 505 339 663 q 419 259 339 349 q 639 170 499 170 q 787 193 717 170 q 930 265 858 216 l 930 56 z "},"ƈ":{"ha":823,"x_min":60,"x_max":893,"o":"m 730 692 l 730 538 q 631 588 681 572 q 528 604 581 604 q 369 545 426 604 q 313 379 313 486 q 369 213 313 273 q 528 154 426 154 q 636 171 585 154 q 730 221 687 188 l 730 22 q 615 -9 673 1 q 497 -20 556 -20 q 176 86 292 -20 q 60 379 60 191 q 168 672 60 567 q 493 778 276 778 q 561 926 509 869 q 773 1006 634 1006 l 893 1006 l 893 846 l 851 846 q 756 815 782 846 q 730 692 730 784 z "},"Ɖ":{"ha":1164,"x_min":22,"x_max":1093,"o":"m 401 815 l 401 597 l 561 597 l 561 421 l 401 421 l 401 197 l 494 197 q 739 277 654 197 q 823 507 823 356 q 739 736 823 658 q 494 815 655 815 l 401 815 m 140 1013 l 415 1013 q 759 980 646 1013 q 953 868 871 947 q 1058 710 1023 800 q 1093 507 1093 621 q 1058 303 1093 393 q 953 144 1023 213 q 757 33 871 66 q 415 0 643 0 l 140 0 l 140 421 l 22 421 l 22 597 l 140 597 l 140 1013 z "},"Ɗ":{"ha":1221,"x_min":-95,"x_max":1148,"o":"m 456 815 l 456 197 l 550 197 q 794 277 710 197 q 879 507 879 356 q 795 736 879 658 q 550 815 711 815 l 456 815 m 195 1013 l 471 1013 q 814 980 701 1013 q 1008 868 927 947 q 1114 710 1079 800 q 1148 507 1148 621 q 1114 303 1148 393 q 1008 144 1079 213 q 812 33 926 66 q 471 0 699 0 l 195 0 l 195 835 l 142 835 q 92 816 113 835 q 79 764 79 804 l 79 732 l -95 732 l -95 784 q -28 958 -95 900 q 195 1013 36 1013 z "},"Ƌ":{"ha":1051,"x_min":98,"x_max":930,"o":"m 496 0 q 204 70 311 0 q 98 316 98 140 q 205 557 98 488 q 496 627 313 627 l 668 627 l 668 815 l 162 815 l 162 1013 l 929 1013 l 929 0 l 496 0 m 357 304 q 399 206 357 234 q 515 178 441 178 l 668 178 l 668 429 l 515 429 q 399 401 442 429 q 357 304 357 374 z "},"ƌ":{"ha":994,"x_min":62,"x_max":878,"o":"m 180 858 l 180 1055 l 878 1055 l 878 0 l 633 0 l 633 110 q 523 12 583 43 q 383 -20 463 -20 q 153 92 243 -20 q 62 379 62 203 q 153 666 62 555 q 383 778 243 778 q 523 746 462 778 q 633 648 583 715 l 633 858 l 180 858 m 473 157 q 592 214 551 157 q 633 379 633 271 q 592 545 633 488 q 473 602 551 602 q 355 545 396 602 q 314 379 314 488 q 355 214 314 271 q 473 157 396 157 z "},"ƍ":{"ha":955,"x_min":60,"x_max":895,"o":"m 171 -99 q 471 -146 254 -146 q 586 -80 586 -146 q 428 7 586 -17 q 175 106 270 31 q 60 382 60 198 q 171 672 60 566 q 477 778 282 778 q 783 672 671 778 q 895 379 895 566 q 784 129 895 238 q 705 73 749 95 q 806 -88 806 20 q 448 -308 806 -308 q 171 -260 269 -308 l 171 -99 m 534 161 q 600 214 571 176 q 644 380 644 273 q 600 546 644 486 q 478 606 555 606 q 357 545 401 606 q 312 382 312 484 q 360 230 312 281 q 475 172 408 179 q 534 161 506 168 z "},"Ǝ":{"ha":949,"x_min":127,"x_max":847,"o":"m 847 1013 l 847 0 l 127 0 l 127 197 l 586 197 l 586 429 l 169 429 l 169 627 l 586 627 l 586 815 l 142 815 l 142 1013 l 847 1013 z "},"Ə":{"ha":1179,"x_min":71,"x_max":1111,"o":"m 839 562 q 756 754 839 669 q 515 842 671 842 q 348 818 431 842 q 179 746 264 794 l 179 956 q 354 1012 261 993 q 547 1031 446 1031 q 960 890 809 1031 q 1110 505 1110 750 q 972 120 1110 260 q 589 -20 833 -20 q 208 120 354 -20 q 71 562 71 250 l 839 562 m 830 387 l 349 387 q 404 258 366 310 q 589 170 470 170 q 775 258 709 170 q 830 387 814 310 z "},"Ɛ":{"ha":966,"x_min":93,"x_max":856,"o":"m 302 546 q 163 626 210 569 q 117 771 117 682 q 215 966 117 901 q 510 1031 313 1031 q 659 1020 583 1031 q 812 987 735 1009 l 812 796 q 684 838 749 824 q 557 852 620 852 q 425 821 471 852 q 378 730 378 789 q 426 636 378 667 q 572 606 474 606 l 682 606 l 682 437 l 578 437 q 411 402 467 437 q 354 297 354 366 q 409 194 354 230 q 568 158 465 158 q 710 177 638 158 q 856 232 783 195 l 856 31 q 701 -7 779 5 q 545 -20 623 -20 q 208 59 323 -20 q 93 288 93 137 q 146 454 93 389 q 302 546 199 519 z "},"Ƒ":{"ha":949,"x_min":-78,"x_max":832,"o":"m 127 1013 l 832 1013 l 832 815 l 389 815 l 389 627 l 806 627 l 806 429 l 389 429 l 389 98 q 286 -184 389 -91 q -25 -278 183 -278 l -78 -278 l -78 -81 l -37 -81 q 86 -35 44 -81 q 127 98 127 10 l 127 1013 z "},"ƒ":{"ha":604,"x_min":-79,"x_max":616,"o":"m 616 1055 l 616 896 l 482 896 q 410 877 431 896 q 390 812 390 858 l 390 760 l 597 760 l 597 586 l 390 586 l 390 -46 q 318 -231 390 -174 q 106 -289 246 -289 l -79 -289 l -79 -130 l 55 -130 q 127 -111 106 -130 q 147 -46 147 -92 l 147 586 l 26 586 l 26 760 l 147 760 l 147 812 q 219 998 147 940 q 431 1055 291 1055 l 616 1055 z "},"Ɠ":{"ha":1140,"x_min":69,"x_max":1206,"o":"m 1038 75 q 835 4 940 28 q 618 -20 730 -20 q 217 122 365 -20 q 69 505 69 263 q 220 890 69 750 q 632 1031 370 1031 q 751 1024 693 1031 q 842 1190 774 1128 q 1153 1283 945 1283 l 1206 1283 l 1206 1086 l 1165 1086 q 1042 1040 1084 1086 q 1000 907 1000 995 l 1000 746 q 832 818 916 794 q 664 842 748 842 q 424 754 508 842 q 339 505 339 667 q 420 257 339 345 q 652 170 502 170 q 727 175 692 170 q 790 191 762 180 l 790 387 l 631 387 l 631 562 l 1038 562 l 1038 75 z "},"Ɣ":{"ha":1101,"x_min":3,"x_max":1101,"o":"m 551 119 q 510 52 529 82 q 479 -10 492 22 q 467 -68 467 -42 q 492 -118 467 -100 q 551 -136 517 -136 q 610 -118 585 -136 q 635 -68 635 -100 q 622 -10 635 -42 q 591 52 610 22 q 551 119 572 82 m 3 1013 l 269 1013 l 548 556 l 836 1015 l 1101 1015 l 684 339 q 750 228 718 285 q 808 121 783 171 q 849 18 833 71 q 865 -81 865 -35 q 793 -242 865 -191 q 559 -293 720 -293 q 312 -245 386 -293 q 239 -87 239 -198 q 254 17 239 -37 q 298 129 269 71 q 353 229 328 186 q 418 331 378 271 l 3 1013 z "},"ƕ":{"ha":1451,"x_min":117,"x_max":1389,"o":"m 636 313 l 636 353 q 632 490 636 452 q 616 545 627 527 q 578 582 602 568 q 522 595 553 595 q 403 536 446 595 q 359 374 359 477 l 359 0 l 117 0 l 117 1055 l 359 1055 l 359 648 q 476 746 414 715 q 612 778 538 778 q 812 697 744 778 q 880 463 880 616 l 880 313 q 898 178 880 213 q 946 158 909 158 l 960 158 q 1096 224 1040 158 q 1147 380 1147 283 q 1108 530 1147 453 q 1023 636 1080 587 l 1023 760 q 1246 696 1166 760 q 1349 566 1301 652 q 1389 386 1389 493 q 1285 107 1389 214 q 1016 0 1181 0 l 923 0 q 711 80 785 0 q 636 313 636 161 z "},"Ɩ":{"ha":605,"x_min":127,"x_max":594,"o":"m 127 1013 l 389 1013 l 389 376 q 430 243 389 288 q 553 197 472 197 l 594 197 l 594 0 l 541 0 q 230 94 333 0 q 127 376 127 187 l 127 1013 z "},"Ɨ":{"ha":541,"x_min":7,"x_max":534,"o":"m 136 1013 l 397 1013 l 397 597 l 534 597 l 534 421 l 397 421 l 397 0 l 136 0 l 136 421 l 7 421 l 7 597 l 136 597 l 136 1013 z "},"Ƙ":{"ha":1076,"x_min":127,"x_max":1118,"o":"m 833 784 l 581 533 l 1118 0 l 791 0 l 389 399 l 389 0 l 127 0 l 127 1013 l 389 1013 l 389 643 l 717 968 q 869 1031 781 1031 q 1023 968 961 1031 q 1085 816 1085 904 l 1085 669 l 922 669 l 922 746 q 911 779 922 766 q 876 799 892 799 q 833 784 848 799 z "},"ƙ":{"ha":924,"x_min":117,"x_max":950,"o":"m 359 481 l 639 760 l 921 760 l 550 411 l 950 0 l 656 0 l 359 317 l 359 0 l 117 0 l 117 742 q 191 975 117 893 q 404 1055 264 1055 l 594 1055 l 594 896 l 481 896 q 387 865 414 896 q 359 742 359 833 l 359 481 z "},"ƚ":{"ha":500,"x_min":7,"x_max":494,"o":"m 131 1055 l 374 1055 l 374 597 l 494 597 l 494 421 l 374 421 l 374 0 l 131 0 l 131 421 l 7 421 l 7 597 l 131 597 l 131 1055 z "},"ƛ":{"ha":822,"x_min":-15,"x_max":781,"o":"m 41 0 l 278 692 l 226 833 l 10 765 l -15 852 l 195 918 l 144 1055 l 387 1055 l 412 987 l 635 1054 l 659 966 l 444 901 l 781 0 l 538 0 l 408 349 l 284 0 l 41 0 z "},"Ɯ":{"ha":1447,"x_min":115,"x_max":1337,"o":"m 632 126 q 522 19 586 56 q 383 -18 459 -18 q 184 62 260 -18 q 115 297 115 135 l 115 1013 l 359 1013 l 359 363 q 358 345 359 355 q 358 318 358 336 q 382 201 358 237 q 458 165 406 165 q 566 222 528 165 q 604 387 603 279 l 604 1013 l 848 1013 l 848 363 q 870 201 848 237 q 947 165 892 165 q 1055 222 1018 165 q 1093 386 1093 280 l 1093 1013 l 1337 1013 l 1337 0 l 1093 0 l 1093 111 q 990 14 1048 47 q 863 -18 932 -18 q 724 20 784 -18 q 632 126 663 58 z "},"Ɲ":{"ha":1162,"x_min":-78,"x_max":1035,"o":"m 127 1013 l 419 1013 l 787 318 l 787 1013 l 1035 1013 l 1035 0 l 743 0 l 375 694 l 375 98 q 272 -184 375 -91 q -39 -278 170 -278 l -78 -278 l -78 -81 l -37 -81 q 86 -35 44 -81 q 127 98 127 10 l 127 1013 z "},"ƞ":{"ha":989,"x_min":117,"x_max":880,"o":"m 880 463 l 880 -289 l 636 -289 l 636 75 l 636 354 q 632 490 636 452 q 616 545 627 527 q 578 582 602 568 q 522 595 553 595 q 403 536 446 595 q 359 374 359 477 l 359 0 l 117 0 l 117 760 l 359 760 l 359 648 q 476 746 414 715 q 612 778 538 778 q 812 697 744 778 q 880 463 880 616 z "},"Ɵ":{"ha":1181,"x_min":69,"x_max":1111,"o":"m 590 1031 q 972 891 834 1031 q 1111 505 1111 751 q 972 120 1111 260 q 590 -20 834 -20 q 208 120 347 -20 q 69 505 69 260 q 208 891 69 751 q 590 1031 347 1031 m 591 842 q 405 753 471 842 q 350 624 366 701 l 831 624 q 776 753 814 701 q 591 842 710 842 m 341 449 q 405 258 351 330 q 591 170 471 170 q 776 258 710 170 q 840 449 829 330 l 341 449 z "},"Ơ":{"ha":1213,"x_min":73,"x_max":1185,"o":"m 913 842 l 913 937 q 984 890 959 903 q 1026 878 1008 878 q 1069 898 1053 878 q 1086 951 1086 918 q 1081 1003 1086 977 q 1065 1057 1076 1029 l 1171 1057 q 1182 987 1178 1019 q 1185 928 1185 956 q 1154 808 1185 850 q 1065 766 1123 766 q 992 785 1029 766 q 913 842 955 803 m 594 842 q 409 753 475 842 q 343 505 343 665 q 409 258 343 346 q 594 170 475 170 q 780 258 714 170 q 846 505 846 346 q 780 753 846 665 q 594 842 714 842 m 594 1031 q 977 891 838 1031 q 1115 505 1115 751 q 977 120 1115 260 q 594 -20 838 -20 q 212 120 351 -20 q 73 505 73 260 q 212 891 73 751 q 594 1031 351 1031 z "},"ơ":{"ha":954,"x_min":64,"x_max":983,"o":"m 711 631 l 711 727 q 782 680 757 693 q 824 667 806 667 q 867 687 850 667 q 884 741 884 707 q 879 793 884 767 q 863 846 873 819 l 968 846 q 980 777 976 809 q 983 718 983 745 q 952 598 983 640 q 863 556 921 556 q 790 574 827 556 q 711 631 753 593 m 483 604 q 360 546 402 604 q 317 379 317 488 q 360 212 317 270 q 483 154 402 154 q 604 212 562 154 q 646 379 646 270 q 604 546 646 488 q 483 604 562 604 m 483 778 q 789 672 679 778 q 899 379 899 566 q 789 86 899 192 q 483 -20 679 -20 q 175 86 286 -20 q 64 379 64 192 q 175 672 64 566 q 483 778 286 778 z "},"Ƣ":{"ha":1503,"x_min":69,"x_max":1398,"o":"m 1398 636 l 1398 0 l 1137 0 l 1137 636 q 1096 770 1137 724 q 972 815 1054 815 l 972 120 q 590 -20 834 -20 q 208 120 347 -20 q 69 505 69 260 q 208 891 69 751 q 590 1031 347 1031 q 753 1013 678 1031 l 985 1013 q 1296 919 1193 1013 q 1398 636 1398 825 m 590 170 q 776 221 710 170 l 776 798 q 590 842 710 842 q 405 753 471 842 q 339 505 339 665 q 405 258 339 346 q 590 170 471 170 z "},"ƣ":{"ha":1267,"x_min":60,"x_max":1147,"o":"m 1147 446 l 1147 -300 l 905 -300 l 905 446 q 879 569 905 538 q 784 600 853 600 l 784 86 q 478 -20 674 -20 q 171 86 281 -20 q 60 379 60 192 q 171 672 60 566 q 478 778 281 778 q 627 760 559 778 l 862 760 q 1074 679 1001 760 q 1147 446 1147 599 m 478 154 q 600 184 557 154 l 600 569 q 478 604 557 604 q 355 546 397 604 q 313 379 313 488 q 355 212 313 270 q 478 154 397 154 z "},"Ƥ":{"ha":1086,"x_min":-95,"x_max":1029,"o":"m 162 1013 l 629 1013 q 925 927 822 1013 q 1029 682 1029 841 q 925 437 1029 523 q 629 351 822 351 l 456 351 l 456 0 l 195 0 l 195 835 l 172 835 q 98 818 118 835 q 78 750 78 800 l 78 732 l -95 732 l -95 784 q -31 956 -95 899 q 162 1013 33 1013 m 456 823 l 456 541 l 601 541 q 718 577 677 541 q 760 682 760 614 q 718 787 760 750 q 601 823 677 823 l 456 823 z "},"ƥ":{"ha":994,"x_min":117,"x_max":932,"o":"m 359 110 l 359 -289 l 117 -289 l 117 812 q 186 996 117 937 q 400 1055 255 1055 l 586 1055 l 586 896 l 452 896 q 380 877 400 896 q 359 812 359 859 l 359 648 q 471 746 410 715 q 611 778 532 778 q 842 666 751 778 q 932 379 932 555 q 842 92 932 203 q 611 -20 751 -20 q 471 12 532 -20 q 359 110 410 43 m 521 602 q 401 544 443 602 q 359 379 359 487 q 401 214 359 271 q 521 157 443 157 q 640 214 599 157 q 681 379 681 271 q 640 545 681 488 q 521 602 599 602 z "},"Ʀ":{"ha":1069,"x_min":127,"x_max":1055,"o":"m 498 389 q 616 419 581 389 q 652 519 652 450 q 616 618 652 589 q 498 648 581 648 l 389 648 l 389 389 l 498 389 m 389 208 l 389 0 l 127 0 l 127 1013 l 389 1013 l 389 838 l 526 838 q 820 770 726 838 q 913 558 913 703 q 864 393 913 458 q 718 298 816 329 q 814 243 772 286 q 900 113 857 200 l 1055 -203 l 777 -203 l 640 77 q 565 180 603 153 q 463 208 526 208 l 389 208 z "},"Ƨ":{"ha":1000,"x_min":36,"x_max":835,"o":"m 102 981 q 285 1019 197 1006 q 456 1031 373 1031 q 737 949 640 1031 q 835 717 835 868 q 765 525 835 596 q 543 421 694 454 l 441 399 q 319 353 349 378 q 288 279 288 327 q 333 198 288 227 q 464 170 378 170 q 639 195 548 170 q 826 273 729 222 l 826 53 q 632 -1 729 17 q 439 -20 535 -20 q 136 62 235 -20 q 36 311 36 144 q 107 508 36 439 q 347 611 178 577 l 458 633 q 568 673 538 650 q 598 736 598 695 q 553 816 598 790 q 415 842 509 842 q 265 823 345 842 q 102 766 186 804 l 102 981 z "},"ƨ":{"ha":827,"x_min":21,"x_max":710,"o":"m 72 736 q 233 768 159 758 q 374 778 307 778 q 627 720 545 778 q 710 541 710 661 q 645 374 710 429 q 418 298 580 319 l 375 293 q 277 269 301 284 q 252 220 252 252 q 288 161 252 181 q 395 142 323 142 q 549 159 473 142 q 699 212 626 177 l 699 28 q 533 -8 614 4 q 378 -20 453 -20 q 111 41 200 -20 q 21 224 21 102 q 85 394 21 340 q 336 472 150 448 l 379 478 q 471 501 445 486 q 496 546 496 517 q 463 600 496 582 q 359 616 429 616 q 222 600 295 616 q 72 551 150 584 l 72 736 z "},"Ʃ":{"ha":949,"x_min":127,"x_max":847,"o":"m 366 197 l 847 197 l 847 0 l 127 0 l 127 218 l 450 538 l 127 804 l 127 1013 l 832 1013 l 832 815 l 377 815 l 711 541 l 366 197 z "},"ƪ":{"ha":766,"x_min":-43,"x_max":779,"o":"m 190 1055 l 267 1055 q 479 974 393 1055 q 550 800 550 906 l 666 800 l 666 656 l 552 656 l 552 -58 q 572 -123 552 -104 q 644 -142 593 -142 l 779 -142 l 779 -301 l 593 -301 q 378 -241 448 -301 q 309 -58 309 -182 l 309 656 l 168 656 q -43 844 -43 656 q 190 1055 -43 1055 m 306 800 q 283 863 300 844 q 189 895 258 895 l 159 895 q 96 850 96 895 q 168 800 96 800 q 306 800 168 800 z "},"ƫ":{"ha":664,"x_min":18,"x_max":632,"o":"m 382 975 l 382 760 l 632 760 l 632 586 l 382 586 l 382 264 q 403 193 382 211 q 486 174 424 174 l 611 174 l 611 0 q 538 -220 608 -142 q 326 -300 465 -300 l 205 -300 l 205 -140 l 248 -140 q 342 -109 317 -140 q 368 1 366 -80 q 199 60 252 7 q 139 264 139 120 l 139 586 l 18 586 l 18 760 l 139 760 l 139 975 l 382 975 z "},"Ƭ":{"ha":981,"x_min":20,"x_max":974,"o":"m 296 1013 l 974 1013 l 974 815 l 638 815 l 638 0 l 377 0 l 377 815 l 375 815 q 239 789 271 815 q 205 692 205 764 l 205 659 l 20 659 l 20 779 q 85 958 20 902 q 296 1013 151 1013 z "},"ƭ":{"ha":664,"x_min":18,"x_max":632,"o":"m 382 812 l 382 760 l 632 760 l 632 586 l 382 586 l 382 264 q 403 192 382 211 q 486 174 424 174 l 611 174 l 611 0 l 403 0 q 199 60 259 0 q 139 264 139 120 l 139 586 l 18 586 l 18 760 l 139 760 l 139 812 q 208 996 139 937 q 422 1055 277 1055 l 608 1055 l 608 896 l 474 896 q 402 877 422 896 q 382 812 382 859 z "},"Ʈ":{"ha":947,"x_min":7,"x_max":940,"o":"m 7 1013 l 940 1013 l 940 815 l 604 815 l 604 98 q 646 -35 604 10 q 769 -81 688 -81 l 810 -81 l 810 -278 l 757 -278 q 446 -184 549 -278 q 343 98 343 -91 l 343 815 l 7 815 l 7 1013 z "},"Ư":{"ha":1160,"x_min":127,"x_max":1157,"o":"m 885 842 l 885 937 q 955 890 930 903 q 998 878 980 878 q 1041 898 1024 878 q 1057 951 1057 918 q 1052 1003 1057 977 q 1036 1057 1047 1029 l 1142 1057 q 1153 987 1149 1019 q 1157 928 1157 956 q 1126 808 1157 850 q 1036 766 1095 766 q 963 785 1000 766 q 885 842 926 803 m 127 1013 l 388 1013 l 388 406 q 429 226 388 280 q 563 172 470 172 q 697 226 656 172 q 739 406 739 280 l 739 1013 l 1000 1013 l 1000 406 q 892 85 1000 191 q 563 -20 784 -20 q 235 85 342 -20 q 127 406 127 191 l 127 1013 z "},"ư":{"ha":989,"x_min":104,"x_max":1018,"o":"m 746 631 l 746 727 q 816 680 791 693 q 859 667 841 667 q 902 687 885 667 q 918 741 918 707 q 913 793 918 767 q 897 846 908 819 l 1003 846 q 1014 777 1010 809 q 1018 718 1018 745 q 987 598 1018 640 q 897 556 956 556 q 824 574 861 556 q 746 631 787 593 m 104 296 l 104 760 l 349 760 l 349 684 q 348 529 349 622 q 347 404 347 435 q 352 272 347 313 q 368 214 357 232 q 407 177 383 190 q 463 164 431 164 q 582 222 538 164 q 625 385 625 281 l 625 760 l 868 760 l 868 0 l 625 0 l 625 110 q 509 12 570 43 q 374 -20 448 -20 q 173 61 242 -20 q 104 296 104 142 z "},"Ʊ":{"ha":1181,"x_min":37,"x_max":1143,"o":"m 590 -20 q 208 120 347 -20 q 69 470 69 260 q 106 660 69 572 q 245 814 144 748 l 37 814 l 37 1011 l 502 1011 l 502 800 q 382 665 425 750 q 339 476 339 580 q 405 258 339 346 q 590 170 471 170 q 775 258 709 170 q 841 476 841 346 q 798 665 841 580 q 678 800 755 750 l 678 1011 l 1143 1011 l 1143 814 l 935 814 q 1074 660 1036 748 q 1111 470 1111 572 q 972 120 1111 260 q 590 -20 833 -20 z "},"Ʋ":{"ha":1130,"x_min":127,"x_max":1072,"o":"m 594 0 l 541 0 q 231 94 333 0 q 127 376 127 187 l 127 1013 l 389 1013 l 389 376 q 430 243 389 288 q 553 197 472 197 l 594 197 q 784 277 715 197 q 863 458 863 368 q 819 659 863 595 q 627 833 741 769 l 627 932 l 810 932 q 1031 654 939 839 q 1072 448 1072 570 q 934 144 1072 277 q 594 0 785 0 z "},"Ƴ":{"ha":1107,"x_min":-14,"x_max":1105,"o":"m 826 720 l 633 427 l 633 0 l 372 0 l 372 427 l -14 1013 l 272 1013 l 503 652 l 651 884 q 890 1031 745 1031 q 1043 968 981 1031 q 1105 816 1105 904 l 1105 669 l 943 669 l 943 716 q 931 749 943 736 q 896 768 913 768 q 826 720 858 768 z "},"ƴ":{"ha":1081,"x_min":17,"x_max":1081,"o":"m 1081 438 l 916 438 l 916 479 q 907 520 916 501 q 882 551 898 540 q 848 562 866 562 q 814 551 829 562 q 789 520 797 538 q 781 500 785 510 l 561 -72 q 449 -250 512 -199 q 279 -300 385 -300 l 139 -300 l 139 -140 l 215 -140 q 305 -121 277 -140 q 349 -50 332 -102 l 355 -29 l 17 760 l 260 760 l 464 244 l 593 627 q 827 778 644 778 q 954 744 896 778 q 1047 652 1013 710 q 1081 524 1081 593 l 1081 438 z "},"Ƶ":{"ha":1007,"x_min":62,"x_max":945,"o":"m 78 1013 l 929 1013 l 929 854 l 717 597 l 848 597 l 848 421 l 571 421 l 386 197 l 945 197 l 945 0 l 62 0 l 62 158 l 280 421 l 159 421 l 159 597 l 426 597 l 606 815 l 78 815 l 78 1013 z "},"ƶ":{"ha":808,"x_min":62,"x_max":742,"o":"m 79 760 l 742 760 l 742 590 l 619 463 l 703 463 l 703 313 l 475 313 l 342 174 l 742 174 l 742 0 l 62 0 l 62 170 l 200 313 l 121 313 l 121 463 l 344 463 l 463 586 l 79 586 l 79 760 z "},"Ʒ":{"ha":1073,"x_min":100,"x_max":1010,"o":"m 532 132 q 694 168 639 132 q 749 271 749 204 q 693 376 749 340 q 526 412 636 412 l 399 412 l 399 578 l 606 815 l 100 815 l 100 1013 l 929 1013 l 929 843 l 668 549 q 814 527 758 541 q 958 429 899 505 q 1010 262 1010 359 q 895 33 1010 111 q 534 -45 780 -45 q 323 -25 429 -45 q 115 37 218 -4 l 115 234 q 326 158 221 184 q 532 132 431 132 z "},"Ƹ":{"ha":1073,"x_min":57,"x_max":967,"o":"m 536 132 q 741 158 637 132 q 952 234 846 184 l 952 37 q 744 -25 849 -4 q 534 -45 639 -45 q 172 33 288 -45 q 57 262 57 111 q 110 429 57 359 q 254 527 168 505 q 399 549 309 541 l 138 843 l 138 1013 l 967 1013 l 967 815 l 462 815 l 669 578 l 669 412 l 542 412 q 374 376 431 412 q 318 271 318 340 q 373 168 318 204 q 536 132 429 132 z "},"ƹ":{"ha":890,"x_min":52,"x_max":814,"o":"m 663 325 l 663 159 l 536 159 q 369 123 426 159 q 313 18 313 87 q 368 -85 313 -49 q 527 -121 423 -121 q 669 -102 597 -121 q 814 -47 741 -83 l 814 -248 q 659 -286 738 -273 q 503 -298 581 -298 q 167 -220 282 -298 q 52 9 52 -142 q 104 175 52 106 q 248 274 163 252 q 416 296 307 290 l 133 590 l 133 760 l 795 760 l 795 586 l 412 586 l 663 325 z "},"ƺ":{"ha":808,"x_min":79,"x_max":742,"o":"m 531 370 q 659 326 606 359 q 738 177 738 277 q 675 38 738 83 q 460 -24 615 -6 l 419 -29 q 326 -50 348 -37 q 302 -90 302 -62 q 336 -138 302 -122 q 438 -155 370 -155 q 585 -140 513 -155 q 726 -96 658 -125 q 726 -250 726 -96 q 570 -279 640 -271 q 422 -289 494 -289 q 168 -238 255 -289 q 83 -86 83 -188 q 144 55 83 9 q 382 119 197 94 l 423 124 q 509 142 491 133 q 534 180 534 155 q 502 224 534 211 q 300 239 468 239 l 129 239 l 463 586 l 79 586 l 79 760 l 742 760 l 742 590 l 531 370 z "},"ƻ":{"ha":966,"x_min":110,"x_max":846,"o":"m 400 192 l 846 192 l 846 0 l 110 0 l 110 192 l 312 370 l 159 370 l 159 547 l 509 547 q 553 606 536 576 q 576 694 576 648 q 529 809 576 766 q 401 852 481 852 q 268 826 340 852 q 113 749 195 800 l 113 971 q 287 1016 201 1000 q 456 1031 373 1031 q 738 951 637 1031 q 839 728 839 871 q 796 574 839 645 q 778 547 789 561 l 796 547 l 796 370 l 604 370 l 400 192 z "},"Ƽ":{"ha":1073,"x_min":57,"x_max":1010,"o":"m 127 412 l 127 578 l 127 1013 l 847 1013 l 847 815 l 389 815 l 389 578 l 537 578 q 825 537 710 578 q 958 429 901 510 q 1010 262 1010 351 q 895 33 1010 111 q 534 -45 780 -45 q 172 33 275 -45 q 57 271 57 121 l 318 271 q 373 168 318 204 q 532 132 429 132 q 694 168 639 132 q 749 271 749 204 q 693 376 749 340 q 526 412 636 412 l 389 412 l 127 412 z "},"ƽ":{"ha":890,"x_min":52,"x_max":814,"o":"m 117 159 l 117 325 l 117 760 l 692 760 l 692 610 l 359 610 l 359 325 l 363 325 q 602 293 528 325 q 761 175 712 245 q 814 9 814 97 q 699 -220 814 -142 q 363 -298 584 -298 q 206 -286 285 -298 q 52 -248 128 -273 l 52 -47 q 197 -102 125 -83 q 339 -121 269 -121 q 498 -85 443 -121 q 553 18 553 -49 q 496 123 553 87 q 330 159 440 159 l 117 159 z "},"ƾ":{"ha":795,"x_min":50,"x_max":729,"o":"m 184 535 l 184 743 l 78 743 l 78 875 l 184 875 l 184 975 l 427 975 l 427 875 l 602 875 l 602 743 l 427 743 l 427 698 q 624 613 555 677 q 729 358 729 515 q 640 122 729 212 q 334 -20 498 -20 q 157 -8 212 -20 q 50 27 102 3 l 50 229 q 156 186 103 200 q 264 171 210 171 q 452 248 385 171 q 492 358 491 293 q 453 458 492 406 q 248 535 395 535 l 184 535 z "},"ƿ":{"ha":994,"x_min":117,"x_max":932,"o":"m 359 -90 l 359 -289 l 117 -289 l 117 760 l 359 760 l 359 648 q 477 748 418 723 q 679 778 548 778 q 870 702 817 778 q 932 522 932 616 q 359 -90 932 237 m 359 98 q 681 436 681 325 q 642 557 681 513 q 519 602 604 602 q 359 464 459 602 l 359 98 z "},"ǀ":{"ha":517,"x_min":127,"x_max":389,"o":"m 127 1013 l 389 1013 l 389 -289 l 127 -289 l 127 1013 z "},"ǁ":{"ha":915,"x_min":127,"x_max":787,"o":"m 127 1013 l 389 1013 l 389 -289 l 127 -289 l 127 1013 m 526 1013 l 787 1013 l 787 -289 l 526 -289 l 526 1013 z "},"ǂ":{"ha":755,"x_min":7,"x_max":744,"o":"m 245 1013 l 506 1013 l 506 633 l 744 633 l 744 473 l 506 473 l 506 324 l 744 324 l 744 163 l 506 163 l 506 -289 l 245 -289 l 245 163 l 7 163 l 7 324 l 245 324 l 245 473 l 7 473 l 7 633 l 245 633 l 245 1013 z "},"ǃ":{"ha":517,"x_min":137,"x_max":381,"o":"m 137 1013 l 381 1013 l 381 624 l 347 340 l 172 340 l 137 624 l 137 1013 m 137 241 l 381 241 l 381 0 l 137 0 l 137 241 z "},"Ǆ":{"ha":2160,"x_min":127,"x_max":2098,"o":"m 1231 1013 l 2082 1013 l 2082 854 l 1539 197 l 2098 197 l 2098 0 l 1215 0 l 1215 158 l 1758 815 l 1231 815 l 1231 1013 m 1536 1109 l 1385 1288 l 1506 1288 l 1640 1178 l 1775 1288 l 1896 1288 l 1745 1109 l 1536 1109 m 389 815 l 389 197 l 482 197 q 727 277 642 197 q 811 507 811 356 q 727 736 811 658 q 482 815 643 815 l 389 815 m 127 1013 l 403 1013 q 746 980 633 1013 q 940 868 859 947 q 1046 710 1011 800 q 1080 507 1080 621 q 1046 303 1080 393 q 940 144 1011 213 q 745 33 859 66 q 403 0 631 0 l 127 0 l 127 1013 z "},"ǅ":{"ha":1961,"x_min":127,"x_max":1895,"o":"m 1232 760 l 1895 760 l 1895 590 l 1495 174 l 1895 174 l 1895 0 l 1215 0 l 1215 170 l 1615 586 l 1232 586 l 1232 760 m 1475 856 l 1301 1111 l 1422 1111 l 1557 957 l 1692 1111 l 1813 1111 l 1639 856 l 1475 856 m 389 815 l 389 197 l 482 197 q 727 277 642 197 q 811 507 811 356 q 727 736 811 658 q 482 815 643 815 l 389 815 m 127 1013 l 403 1013 q 746 980 633 1013 q 940 868 859 947 q 1046 710 1011 800 q 1080 507 1080 621 q 1046 303 1080 393 q 940 144 1011 213 q 745 33 859 66 q 403 0 631 0 l 127 0 l 127 1013 z "},"ǆ":{"ha":1803,"x_min":62,"x_max":1736,"o":"m 1074 760 l 1736 760 l 1736 590 l 1336 174 l 1736 174 l 1736 0 l 1057 0 l 1057 170 l 1457 586 l 1074 586 l 1074 760 m 1316 856 l 1143 1111 l 1263 1111 l 1398 957 l 1533 1111 l 1654 1111 l 1480 856 l 1316 856 m 633 648 l 633 1055 l 878 1055 l 878 0 l 633 0 l 633 110 q 523 12 583 43 q 383 -20 463 -20 q 153 92 243 -20 q 62 379 62 203 q 153 666 62 555 q 383 778 243 778 q 523 746 462 778 q 633 648 583 715 m 473 157 q 592 214 551 157 q 633 379 633 271 q 592 545 633 488 q 473 602 551 602 q 355 545 396 602 q 314 379 314 488 q 355 214 314 271 q 473 157 396 157 z "},"Ǉ":{"ha":1402,"x_min":127,"x_max":1274,"o":"m 1013 1013 l 1274 1013 l 1274 98 q 1171 -184 1274 -91 q 860 -278 1068 -278 l 807 -278 l 807 -81 l 848 -81 q 971 -35 929 -81 q 1013 98 1013 10 l 1013 1013 m 127 1013 l 389 1013 l 389 197 l 847 197 l 847 0 l 127 0 l 127 1013 z "},"ǈ":{"ha":1361,"x_min":127,"x_max":1244,"o":"m 1002 760 l 1244 760 l 1244 14 q 1171 -219 1244 -139 q 959 -300 1098 -300 l 839 -300 l 839 -140 l 881 -140 q 976 -109 950 -140 q 1002 14 1002 -78 l 1002 760 m 1002 1055 l 1244 1055 l 1244 857 l 1002 857 l 1002 1055 m 127 1013 l 389 1013 l 389 197 l 847 197 l 847 0 l 127 0 l 127 1013 z "},"ǉ":{"ha":952,"x_min":117,"x_max":836,"o":"m 593 760 l 836 760 l 836 14 q 762 -219 836 -139 q 550 -300 689 -300 l 430 -300 l 430 -140 l 472 -140 q 567 -109 541 -140 q 593 14 593 -78 l 593 760 m 593 1055 l 836 1055 l 836 857 l 593 857 l 593 1055 m 117 1055 l 359 1055 l 359 0 l 117 0 l 117 1055 z "},"Ǌ":{"ha":1679,"x_min":127,"x_max":1551,"o":"m 1290 1013 l 1551 1013 l 1551 98 q 1448 -184 1551 -91 q 1137 -278 1345 -278 l 1084 -278 l 1084 -81 l 1125 -81 q 1248 -35 1206 -81 q 1290 98 1290 10 l 1290 1013 m 127 1013 l 419 1013 l 787 318 l 787 1013 l 1035 1013 l 1035 0 l 743 0 l 375 694 l 375 0 l 127 0 l 127 1013 z "},"ǋ":{"ha":1638,"x_min":127,"x_max":1522,"o":"m 1279 760 l 1522 760 l 1522 14 q 1449 -219 1522 -139 q 1236 -300 1375 -300 l 1116 -300 l 1116 -140 l 1158 -140 q 1253 -109 1227 -140 q 1279 14 1279 -78 l 1279 760 m 1279 1055 l 1522 1055 l 1522 857 l 1279 857 l 1279 1055 m 127 1013 l 419 1013 l 787 318 l 787 1013 l 1035 1013 l 1035 0 l 743 0 l 375 694 l 375 0 l 127 0 l 127 1013 z "},"ǌ":{"ha":1465,"x_min":117,"x_max":1348,"o":"m 1105 760 l 1348 760 l 1348 14 q 1275 -219 1348 -139 q 1063 -300 1202 -300 l 943 -300 l 943 -140 l 985 -140 q 1080 -109 1054 -140 q 1105 14 1105 -78 l 1105 760 m 1105 1055 l 1348 1055 l 1348 857 l 1105 857 l 1105 1055 m 880 463 l 880 0 l 636 0 l 636 75 l 636 354 q 632 490 636 452 q 616 545 627 527 q 578 582 602 568 q 522 595 553 595 q 403 536 446 595 q 359 374 359 477 l 359 0 l 117 0 l 117 760 l 359 760 l 359 648 q 476 746 414 715 q 612 778 538 778 q 812 697 744 778 q 880 463 880 616 z "},"Ǎ":{"ha":1075,"x_min":7,"x_max":1068,"o":"m 742 184 l 334 184 l 269 0 l 7 0 l 382 1013 l 693 1013 l 1068 0 l 806 0 l 742 184 m 399 372 l 676 372 l 538 775 l 399 372 m 416 1109 l 265 1288 l 386 1288 l 521 1178 l 656 1288 l 777 1288 l 625 1109 l 416 1109 z "},"ǎ":{"ha":937,"x_min":60,"x_max":828,"o":"m 457 342 q 343 316 381 342 q 304 240 304 290 q 335 168 304 194 q 421 142 366 142 q 536 191 490 142 q 583 314 583 240 l 583 342 l 457 342 m 828 433 l 828 0 l 583 0 l 583 113 q 473 12 534 43 q 325 -20 412 -20 q 133 49 207 -20 q 60 228 60 118 q 152 424 60 361 q 440 486 243 486 l 583 486 l 583 505 q 538 590 583 563 q 396 616 492 616 q 251 601 318 616 q 126 554 184 585 l 126 739 q 283 768 204 758 q 440 778 361 778 q 737 697 646 778 q 828 433 828 616 m 387 856 l 213 1111 l 334 1111 l 469 957 l 604 1111 l 724 1111 l 551 856 l 387 856 z "},"Ǐ":{"ha":517,"x_min":4,"x_max":515,"o":"m 127 1013 l 389 1013 l 389 0 l 127 0 l 127 1013 m 155 1109 l 4 1288 l 125 1288 l 260 1178 l 395 1288 l 515 1288 l 364 1109 l 155 1109 z "},"ǐ":{"ha":476,"x_min":3,"x_max":514,"o":"m 117 760 l 359 760 l 359 0 l 117 0 l 117 760 m 176 856 l 3 1111 l 123 1111 l 258 957 l 393 1111 l 514 1111 l 340 856 l 176 856 z "},"Ǒ":{"ha":1181,"x_min":69,"x_max":1111,"o":"m 590 842 q 405 753 471 842 q 339 505 339 665 q 405 258 339 346 q 590 170 471 170 q 776 258 710 170 q 842 505 842 346 q 776 753 842 665 q 590 842 710 842 m 590 1031 q 972 891 834 1031 q 1111 505 1111 751 q 972 120 1111 260 q 590 -20 834 -20 q 208 120 347 -20 q 69 505 69 260 q 208 891 69 751 q 590 1031 347 1031 m 469 1109 l 317 1288 l 438 1288 l 573 1178 l 708 1288 l 829 1288 l 677 1109 l 469 1109 z "},"ǒ":{"ha":954,"x_min":60,"x_max":895,"o":"m 478 604 q 355 546 397 604 q 313 379 313 488 q 355 212 313 270 q 478 154 397 154 q 600 212 557 154 q 642 379 642 270 q 600 546 642 488 q 478 604 557 604 m 478 778 q 784 672 674 778 q 895 379 895 566 q 784 86 895 192 q 478 -20 674 -20 q 171 86 281 -20 q 60 379 60 192 q 171 672 60 566 q 478 778 281 778 m 410 856 l 237 1111 l 357 1111 l 492 957 l 627 1111 l 748 1111 l 574 856 l 410 856 z "},"Ǔ":{"ha":1128,"x_min":127,"x_max":1000,"o":"m 127 1013 l 389 1013 l 389 406 q 430 226 389 280 q 564 172 471 172 q 698 226 657 172 q 739 406 739 280 l 739 1013 l 1000 1013 l 1000 406 q 892 85 1000 191 q 564 -20 785 -20 q 235 85 343 -20 q 127 406 127 191 l 127 1013 m 440 1109 l 289 1288 l 410 1288 l 545 1178 l 680 1288 l 800 1288 l 649 1109 l 440 1109 z "},"ǔ":{"ha":989,"x_min":109,"x_max":872,"o":"m 427 856 l 254 1111 l 374 1111 l 509 957 l 644 1111 l 765 1111 l 591 856 l 427 856 m 109 296 l 109 760 l 353 760 l 353 684 q 352 529 353 622 q 351 404 351 435 q 356 272 351 313 q 372 214 361 232 q 411 177 387 190 q 467 164 435 164 q 586 222 543 164 q 629 385 629 281 l 629 760 l 872 760 l 872 0 l 629 0 l 629 110 q 513 12 574 43 q 378 -20 452 -20 q 177 61 246 -20 q 109 296 109 142 z "},"Ǖ":{"ha":1128,"x_min":127,"x_max":1000,"o":"m 127 1013 l 389 1013 l 389 406 q 430 226 389 280 q 564 172 471 172 q 698 226 657 172 q 739 406 739 280 l 739 1013 l 1000 1013 l 1000 406 q 892 85 1000 191 q 564 -20 785 -20 q 235 85 343 -20 q 127 406 127 191 l 127 1013 z "},"ǖ":{"ha":989,"x_min":109,"x_max":872,"o":"m 109 296 l 109 760 l 353 760 l 353 684 q 352 529 353 622 q 351 404 351 435 q 356 272 351 313 q 372 214 361 232 q 411 177 387 190 q 467 164 435 164 q 586 222 543 164 q 629 385 629 281 l 629 760 l 872 760 l 872 0 l 629 0 l 629 110 q 513 12 574 43 q 378 -20 452 -20 q 177 61 246 -20 q 109 296 109 142 m 277 1075 l 437 1075 l 437 908 l 277 908 l 277 1075 m 545 1075 l 705 1075 l 705 908 l 545 908 l 545 1075 m 277 1269 l 705 1269 l 705 1141 l 277 1141 l 277 1269 z "},"Ǘ":{"ha":1128,"x_min":127,"x_max":1000,"o":"m 127 1013 l 389 1013 l 389 406 q 430 226 389 280 q 564 172 471 172 q 698 226 657 172 q 739 406 739 280 l 739 1013 l 1000 1013 l 1000 406 q 892 85 1000 191 q 564 -20 785 -20 q 235 85 343 -20 q 127 406 127 191 l 127 1013 m 351 1288 l 510 1288 l 510 1121 l 351 1121 l 351 1288 m 618 1288 l 778 1288 l 778 1121 l 618 1121 l 618 1288 m 597 1548 l 789 1548 l 596 1369 l 463 1369 l 597 1548 z "},"ǘ":{"ha":989,"x_min":109,"x_max":872,"o":"m 109 296 l 109 760 l 353 760 l 353 684 q 352 529 353 622 q 351 404 351 435 q 356 272 351 313 q 372 214 361 232 q 411 177 387 190 q 467 164 435 164 q 586 222 543 164 q 629 385 629 281 l 629 760 l 872 760 l 872 0 l 629 0 l 629 110 q 513 12 574 43 q 378 -20 452 -20 q 177 61 246 -20 q 109 296 109 142 z "},"Ǚ":{"ha":1128,"x_min":127,"x_max":1000,"o":"m 127 1013 l 389 1013 l 389 406 q 430 226 389 280 q 564 172 471 172 q 698 226 657 172 q 739 406 739 280 l 739 1013 l 1000 1013 l 1000 406 q 892 85 1000 191 q 564 -20 785 -20 q 235 85 343 -20 q 127 406 127 191 l 127 1013 m 351 1288 l 510 1288 l 510 1121 l 351 1121 l 351 1288 m 618 1288 l 778 1288 l 778 1121 l 618 1121 l 618 1288 m 458 1369 l 307 1548 l 428 1548 l 563 1438 l 698 1548 l 819 1548 l 667 1369 l 458 1369 z "},"ǚ":{"ha":989,"x_min":109,"x_max":872,"o":"m 109 296 l 109 760 l 353 760 l 353 684 q 352 529 353 622 q 351 404 351 435 q 356 272 351 313 q 372 214 361 232 q 411 177 387 190 q 467 164 435 164 q 586 222 543 164 q 629 385 629 281 l 629 760 l 872 760 l 872 0 l 629 0 l 629 110 q 513 12 574 43 q 378 -20 452 -20 q 177 61 246 -20 q 109 296 109 142 z "},"Ǜ":{"ha":1128,"x_min":127,"x_max":1000,"o":"m 127 1013 l 389 1013 l 389 406 q 430 226 389 280 q 564 172 471 172 q 698 226 657 172 q 739 406 739 280 l 739 1013 l 1000 1013 l 1000 406 q 892 85 1000 191 q 564 -20 785 -20 q 235 85 343 -20 q 127 406 127 191 l 127 1013 m 351 1288 l 510 1288 l 510 1121 l 351 1121 l 351 1288 m 618 1288 l 778 1288 l 778 1121 l 618 1121 l 618 1288 m 528 1548 l 663 1369 l 530 1369 l 336 1548 l 528 1548 z "},"ǜ":{"ha":989,"x_min":109,"x_max":872,"o":"m 109 296 l 109 760 l 353 760 l 353 684 q 352 529 353 622 q 351 404 351 435 q 356 272 351 313 q 372 214 361 232 q 411 177 387 190 q 467 164 435 164 q 586 222 543 164 q 629 385 629 281 l 629 760 l 872 760 l 872 0 l 629 0 l 629 110 q 513 12 574 43 q 378 -20 452 -20 q 177 61 246 -20 q 109 296 109 142 z "},"ǝ":{"ha":942,"x_min":60,"x_max":875,"o":"m 60 376 l 60 446 l 627 446 q 566 574 618 531 q 418 616 513 616 q 261 594 341 616 q 96 525 180 571 l 96 712 q 268 761 182 745 q 440 778 354 778 q 761 673 646 778 q 875 379 875 568 q 763 87 875 193 q 454 -20 650 -20 q 167 88 275 -20 q 60 376 60 196 m 309 296 q 350 184 309 227 q 455 142 390 142 q 570 181 526 142 q 625 296 614 221 l 309 296 z "},"Ǟ":{"ha":1075,"x_min":7,"x_max":1068,"o":"m 742 184 l 334 184 l 269 0 l 7 0 l 382 1013 l 693 1013 l 1068 0 l 806 0 l 742 184 m 399 372 l 676 372 l 538 775 l 399 372 z "},"ǟ":{"ha":937,"x_min":60,"x_max":828,"o":"m 457 342 q 343 316 381 342 q 304 240 304 290 q 335 168 304 194 q 421 142 366 142 q 536 191 490 142 q 583 314 583 240 l 583 342 l 457 342 m 828 433 l 828 0 l 583 0 l 583 113 q 473 12 534 43 q 325 -20 412 -20 q 133 49 207 -20 q 60 228 60 118 q 152 424 60 361 q 440 486 243 486 l 583 486 l 583 505 q 538 590 583 563 q 396 616 492 616 q 251 601 318 616 q 126 554 184 585 l 126 739 q 283 768 204 758 q 440 778 361 778 q 737 697 646 778 q 828 433 828 616 m 260 1075 l 419 1075 l 419 908 l 260 908 l 260 1075 m 528 1075 l 687 1075 l 687 908 l 528 908 l 528 1075 m 260 1269 l 687 1269 l 687 1141 l 260 1141 l 260 1269 z "},"Ǡ":{"ha":1075,"x_min":7,"x_max":1068,"o":"m 742 184 l 334 184 l 269 0 l 7 0 l 382 1013 l 693 1013 l 1068 0 l 806 0 l 742 184 m 399 372 l 676 372 l 538 775 l 399 372 z "},"ǡ":{"ha":937,"x_min":60,"x_max":828,"o":"m 227 1270 l 654 1270 l 654 1142 l 227 1142 l 227 1270 z "},"Ǣ":{"ha":1507,"x_min":0,"x_max":1406,"o":"m 694 1269 l 1121 1269 l 1121 1141 l 694 1141 l 694 1269 m 604 839 l 431 425 l 686 425 l 686 839 l 604 839 m 424 1013 l 1390 1013 l 1390 815 l 947 815 l 947 627 l 1364 627 l 1364 429 l 947 429 l 947 197 l 1406 197 l 1406 0 l 686 0 l 686 237 l 351 237 l 252 0 l 0 0 l 424 1013 z "},"ǣ":{"ha":1455,"x_min":60,"x_max":1389,"o":"m 496 1053 l 923 1053 l 923 926 l 496 926 l 496 1053 m 1139 463 q 1098 574 1139 532 q 993 616 1058 616 q 880 577 923 616 q 825 463 836 537 l 1139 463 m 457 342 q 343 316 381 342 q 304 240 304 290 q 335 168 304 194 q 421 142 366 142 q 536 191 490 142 q 583 314 583 240 l 583 342 l 457 342 m 126 739 q 282 768 207 758 q 424 778 358 778 q 599 752 526 778 q 721 672 673 726 q 842 751 773 724 q 994 778 911 778 q 1281 670 1174 778 q 1389 382 1389 562 l 1389 313 l 821 313 q 883 184 830 227 q 1031 142 935 142 q 1188 164 1107 142 q 1353 233 1268 187 l 1353 46 q 1180 -3 1267 14 q 1008 -20 1094 -20 q 797 17 887 -20 q 659 121 707 53 q 514 14 590 48 q 345 -20 439 -20 q 136 47 213 -20 q 60 228 60 114 q 152 424 60 361 q 440 486 243 486 l 583 486 l 583 505 q 538 590 583 563 q 396 616 492 616 q 251 601 318 616 q 126 554 184 585 l 126 739 z "},"Ǥ":{"ha":1140,"x_min":69,"x_max":1099,"o":"m 1038 263 l 1038 75 q 835 4 940 28 q 618 -20 730 -20 q 217 122 365 -20 q 69 505 69 263 q 220 890 69 750 q 632 1031 370 1031 q 826 1012 733 1031 q 1000 956 918 993 l 1000 746 q 831 818 916 794 q 664 842 748 842 q 423 754 508 842 q 339 505 339 667 q 420 257 339 345 q 652 170 502 170 q 727 175 692 170 q 790 191 762 180 l 790 263 l 689 263 l 689 313 l 790 313 l 790 387 l 631 387 l 631 562 l 1038 562 l 1038 313 l 1099 313 l 1099 263 l 1038 263 z "},"ǥ":{"ha":994,"x_min":62,"x_max":937,"o":"m 473 602 q 356 546 398 602 q 314 389 314 490 q 355 231 314 284 q 473 176 395 176 q 591 232 549 176 q 633 389 633 288 q 591 546 633 490 q 473 602 549 602 m 614 -34 q 633 77 633 11 l 633 129 q 523 31 583 62 q 383 0 463 0 q 153 110 244 0 q 62 389 62 219 q 153 667 62 559 q 383 777 244 777 q 523 745 463 777 q 633 647 583 714 l 633 760 l 878 760 l 878 77 q 865 -35 878 16 l 937 -35 l 937 -95 l 844 -95 q 762 -203 816 -158 q 427 -300 646 -300 q 289 -289 355 -300 q 155 -256 222 -278 l 155 -66 q 280 -121 219 -103 q 403 -139 341 -139 q 568 -94 513 -139 l 344 -95 l 344 -35 l 614 -34 z "},"Ǧ":{"ha":1140,"x_min":69,"x_max":1038,"o":"m 1038 75 q 835 4 940 28 q 618 -20 730 -20 q 217 122 365 -20 q 69 505 69 263 q 220 890 69 750 q 632 1031 370 1031 q 826 1012 733 1031 q 1000 956 918 993 l 1000 746 q 832 818 916 794 q 664 842 748 842 q 424 754 508 842 q 339 505 339 667 q 420 257 339 345 q 652 170 502 170 q 727 175 692 170 q 790 191 762 180 l 790 387 l 631 387 l 631 562 l 1038 562 l 1038 75 m 513 1109 l 362 1288 l 483 1288 l 618 1178 l 753 1288 l 873 1288 l 722 1109 l 513 1109 z "},"ǧ":{"ha":994,"x_min":62,"x_max":878,"o":"m 413 856 l 239 1111 l 360 1111 l 495 957 l 630 1111 l 751 1111 l 577 856 l 413 856 m 633 129 q 523 31 583 62 q 383 0 463 0 q 153 110 244 0 q 62 389 62 219 q 153 668 62 559 q 383 777 244 777 q 523 745 463 777 q 633 647 583 714 l 633 760 l 878 760 l 878 77 q 762 -203 878 -106 q 427 -300 646 -300 q 289 -289 355 -300 q 155 -256 222 -278 l 155 -66 q 280 -121 219 -103 q 403 -139 341 -139 q 578 -87 522 -139 q 633 77 633 -35 l 633 129 m 473 602 q 356 546 398 602 q 314 389 314 490 q 355 230 314 284 q 473 176 395 176 q 591 232 549 176 q 633 389 633 288 q 591 546 633 490 q 473 602 549 602 z "},"Ǩ":{"ha":1076,"x_min":127,"x_max":1118,"o":"m 127 1013 l 389 1013 l 389 643 l 765 1013 l 1068 1013 l 581 533 l 1118 0 l 791 0 l 389 399 l 389 0 l 127 0 l 127 1013 m 473 1109 l 321 1288 l 442 1288 l 577 1178 l 712 1288 l 833 1288 l 682 1109 l 473 1109 z "},"ǩ":{"ha":924,"x_min":-7,"x_max":950,"o":"m 117 1055 l 359 1055 l 359 481 l 639 760 l 921 760 l 550 411 l 950 0 l 656 0 l 359 317 l 359 0 l 117 0 l 117 1055 m 144 1109 l -7 1288 l 113 1288 l 248 1178 l 383 1288 l 504 1288 l 353 1109 l 144 1109 z "},"Ǫ":{"ha":1181,"x_min":69,"x_max":1111,"o":"m 530 0 l 625 0 q 578 -70 591 -45 q 566 -113 566 -95 q 586 -156 566 -139 q 639 -172 606 -172 q 691 -167 665 -172 q 745 -151 718 -162 l 745 -257 q 675 -268 707 -264 q 616 -272 644 -272 q 496 -241 538 -272 q 454 -151 454 -210 q 473 -78 454 -115 q 530 0 491 -41 m 590 842 q 405 753 471 842 q 339 505 339 665 q 405 258 339 346 q 590 170 471 170 q 776 258 710 170 q 842 505 842 346 q 776 753 842 665 q 590 842 710 842 m 590 1031 q 972 891 834 1031 q 1111 505 1111 751 q 972 120 1111 260 q 590 -20 834 -20 q 208 120 347 -20 q 69 505 69 260 q 208 891 69 751 q 590 1031 347 1031 z "},"ǫ":{"ha":954,"x_min":60,"x_max":895,"o":"m 431 0 l 526 0 q 479 -70 492 -45 q 467 -113 467 -95 q 487 -156 467 -139 q 540 -172 507 -172 q 592 -167 566 -172 q 646 -151 618 -162 l 646 -257 q 576 -268 608 -264 q 517 -272 545 -272 q 397 -241 439 -272 q 355 -151 355 -210 q 374 -78 355 -115 q 431 0 392 -41 m 478 604 q 355 546 397 604 q 313 379 313 488 q 355 212 313 270 q 478 154 397 154 q 600 212 557 154 q 642 379 642 270 q 600 546 642 488 q 478 604 557 604 m 478 778 q 784 672 674 778 q 895 379 895 566 q 784 86 895 192 q 478 -20 674 -20 q 171 86 281 -20 q 60 379 60 192 q 171 672 60 566 q 478 778 281 778 z "},"Ǭ":{"ha":1181,"x_min":69,"x_max":1111,"o":"m 376 1269 l 804 1269 l 804 1141 l 376 1141 l 376 1269 m 530 0 l 625 0 q 578 -70 591 -45 q 566 -113 566 -95 q 586 -156 566 -139 q 639 -172 606 -172 q 691 -167 665 -172 q 745 -151 718 -162 l 745 -257 q 675 -268 707 -264 q 616 -272 644 -272 q 496 -241 538 -272 q 454 -151 454 -210 q 473 -78 454 -115 q 530 0 491 -41 m 590 842 q 405 753 471 842 q 339 505 339 665 q 405 258 339 346 q 590 170 471 170 q 776 258 710 170 q 842 505 842 346 q 776 753 842 665 q 590 842 710 842 m 590 1031 q 972 891 834 1031 q 1111 505 1111 751 q 972 120 1111 260 q 590 -20 834 -20 q 208 120 347 -20 q 69 505 69 260 q 208 891 69 751 q 590 1031 347 1031 z "},"ǭ":{"ha":954,"x_min":60,"x_max":895,"o":"m 264 1059 l 692 1059 l 692 932 l 264 932 l 264 1059 m 431 0 l 526 0 q 479 -70 492 -45 q 467 -113 467 -95 q 487 -156 467 -139 q 540 -172 507 -172 q 592 -167 566 -172 q 646 -151 618 -162 l 646 -257 q 576 -268 608 -264 q 517 -272 545 -272 q 397 -241 439 -272 q 355 -151 355 -210 q 374 -78 355 -115 q 431 0 392 -41 m 478 604 q 355 546 397 604 q 313 379 313 488 q 355 212 313 270 q 478 154 397 154 q 600 212 557 154 q 642 379 642 270 q 600 546 642 488 q 478 604 557 604 m 478 778 q 784 672 674 778 q 895 379 895 566 q 784 86 895 192 q 478 -20 674 -20 q 171 86 281 -20 q 60 379 60 192 q 171 672 60 566 q 478 778 281 778 z "},"Ǯ":{"ha":1073,"x_min":100,"x_max":1010,"o":"m 383 1109 l 232 1288 l 353 1288 l 488 1178 l 623 1288 l 743 1288 l 592 1109 l 383 1109 m 532 132 q 694 168 639 132 q 749 271 749 204 q 693 376 749 340 q 526 412 636 412 l 399 412 l 399 578 l 606 815 l 100 815 l 100 1013 l 929 1013 l 929 843 l 668 549 q 814 527 758 541 q 958 429 899 505 q 1010 262 1010 359 q 895 33 1010 111 q 534 -45 780 -45 q 323 -25 429 -45 q 115 37 218 -4 l 115 234 q 326 158 221 184 q 532 132 431 132 z "},"ǯ":{"ha":808,"x_min":60,"x_max":823,"o":"m 212 325 l 463 586 l 79 586 l 79 760 l 742 760 l 742 590 l 458 296 q 627 274 568 290 q 770 175 712 252 q 823 9 823 106 q 708 -220 823 -142 q 372 -298 593 -298 q 216 -286 294 -298 q 60 -248 137 -273 l 60 -47 q 206 -102 134 -83 q 348 -121 278 -121 q 507 -85 452 -121 q 562 18 562 -49 q 506 123 562 87 q 338 159 449 159 l 212 159 l 212 325 m 329 847 l 155 1102 l 276 1102 l 411 948 l 546 1102 l 667 1102 l 493 847 l 329 847 z "},"ǰ":{"ha":476,"x_min":-46,"x_max":499,"o":"m 117 760 l 359 760 l 359 14 q 286 -219 359 -139 q 74 -300 213 -300 l -46 -300 l -46 -140 l -4 -140 q 91 -109 65 -140 q 117 14 117 -78 l 117 760 m 161 856 l -12 1111 l 109 1111 l 243 957 l 378 1111 l 499 1111 l 326 856 l 161 856 z "},"Ǳ":{"ha":2160,"x_min":127,"x_max":2098,"o":"m 1231 1013 l 2082 1013 l 2082 854 l 1539 197 l 2098 197 l 2098 0 l 1215 0 l 1215 158 l 1758 815 l 1231 815 l 1231 1013 m 389 815 l 389 197 l 482 197 q 727 277 642 197 q 811 507 811 356 q 727 736 811 658 q 482 815 643 815 l 389 815 m 127 1013 l 403 1013 q 746 980 633 1013 q 940 868 859 947 q 1046 710 1011 800 q 1080 507 1080 621 q 1046 303 1080 393 q 940 144 1011 213 q 745 33 859 66 q 403 0 631 0 l 127 0 l 127 1013 z "},"ǲ":{"ha":1961,"x_min":127,"x_max":1895,"o":"m 1232 760 l 1895 760 l 1895 590 l 1495 174 l 1895 174 l 1895 0 l 1215 0 l 1215 170 l 1615 586 l 1232 586 l 1232 760 m 389 815 l 389 197 l 482 197 q 727 277 642 197 q 811 507 811 356 q 727 736 811 658 q 482 815 643 815 l 389 815 m 127 1013 l 403 1013 q 746 980 633 1013 q 940 868 859 947 q 1046 710 1011 800 q 1080 507 1080 621 q 1046 303 1080 393 q 940 144 1011 213 q 745 33 859 66 q 403 0 631 0 l 127 0 l 127 1013 z "},"ǳ":{"ha":1803,"x_min":62,"x_max":1736,"o":"m 1074 760 l 1736 760 l 1736 590 l 1336 174 l 1736 174 l 1736 0 l 1057 0 l 1057 170 l 1457 586 l 1074 586 l 1074 760 m 633 648 l 633 1055 l 878 1055 l 878 0 l 633 0 l 633 110 q 523 12 583 43 q 383 -20 463 -20 q 153 92 243 -20 q 62 379 62 203 q 153 666 62 555 q 383 778 243 778 q 523 746 462 778 q 633 648 583 715 m 473 157 q 592 214 551 157 q 633 379 633 271 q 592 545 633 488 q 473 602 551 602 q 355 545 396 602 q 314 379 314 488 q 355 214 314 271 q 473 157 396 157 z "},"Ǵ":{"ha":1140,"x_min":69,"x_max":1038,"o":"m 578 1289 l 770 1289 l 577 1109 l 444 1109 l 578 1289 m 1038 75 q 835 4 940 28 q 618 -20 730 -20 q 217 122 365 -20 q 69 505 69 263 q 220 890 69 750 q 632 1031 370 1031 q 826 1012 733 1031 q 1000 956 918 993 l 1000 746 q 832 818 916 794 q 664 842 748 842 q 424 754 508 842 q 339 505 339 667 q 420 257 339 345 q 652 170 502 170 q 727 175 692 170 q 790 191 762 180 l 790 387 l 631 387 l 631 562 l 1038 562 l 1038 75 z "},"ǵ":{"ha":994,"x_min":62,"x_max":878,"o":"m 633 129 q 523 31 583 62 q 383 0 463 0 q 153 110 244 0 q 62 389 62 219 q 153 668 62 559 q 383 777 244 777 q 523 745 463 777 q 633 647 583 714 l 633 760 l 878 760 l 878 77 q 762 -203 878 -106 q 427 -300 646 -300 q 289 -289 355 -300 q 155 -256 222 -278 l 155 -66 q 280 -121 219 -103 q 403 -139 341 -139 q 578 -87 522 -139 q 633 77 633 -35 l 633 129 m 473 602 q 356 546 398 602 q 314 389 314 490 q 355 230 314 284 q 473 176 395 176 q 591 232 549 176 q 633 389 633 288 q 591 546 633 490 q 473 602 549 602 m 535 1111 l 727 1111 l 477 856 l 344 856 l 535 1111 z "},"Ƕ":{"ha":1790,"x_min":127,"x_max":1647,"o":"m 774 627 l 774 1013 l 1035 1013 l 1035 406 q 1076 227 1035 280 q 1210 172 1117 172 q 1344 227 1303 172 q 1385 406 1385 280 l 1385 760 l 1647 760 l 1647 406 q 1539 85 1647 191 q 1210 -20 1431 -20 q 882 85 990 -20 q 774 406 774 191 l 774 429 l 389 429 l 389 0 l 127 0 l 127 1013 l 389 1013 l 389 627 l 774 627 z "},"Ƿ":{"ha":1093,"x_min":127,"x_max":1024,"o":"m 395 77 l 395 -289 l 127 -289 l 127 1013 l 395 1013 l 395 887 q 524 998 458 968 q 746 1031 600 1031 q 956 947 898 1031 q 1024 749 1024 850 q 395 77 1024 435 m 395 283 q 748 654 748 532 q 705 788 748 739 q 570 837 664 837 q 395 685 504 837 l 395 283 z "},"Ǹ":{"ha":1162,"x_min":127,"x_max":1035,"o":"m 620 1288 l 754 1109 l 621 1109 l 428 1288 l 620 1288 m 127 1013 l 419 1013 l 787 318 l 787 1013 l 1035 1013 l 1035 0 l 743 0 l 375 694 l 375 0 l 127 0 l 127 1013 z "},"ǹ":{"ha":989,"x_min":117,"x_max":880,"o":"m 880 463 l 880 0 l 636 0 l 636 75 l 636 354 q 632 490 636 452 q 616 545 627 527 q 578 582 602 568 q 522 595 553 595 q 403 536 446 595 q 359 374 359 477 l 359 0 l 117 0 l 117 760 l 359 760 l 359 648 q 476 746 414 715 q 612 778 538 778 q 812 697 744 778 q 880 463 880 616 m 496 1111 l 688 856 l 555 856 l 304 1111 l 496 1111 z "},"Ǻ":{"ha":1075,"x_min":7,"x_max":1068,"o":"m 873 1293 l 1065 1293 l 871 1114 l 739 1114 l 873 1293 m 700 993 l 1068 0 l 806 0 l 742 184 l 334 184 l 269 0 l 7 0 l 375 993 q 352 1041 359 1016 q 345 1096 345 1067 q 401 1232 345 1175 q 538 1289 458 1289 q 673 1232 616 1289 q 730 1096 730 1175 q 723 1038 730 1064 q 700 993 715 1013 m 449 1096 q 475 1033 449 1059 q 538 1007 501 1007 q 601 1033 574 1007 q 627 1096 627 1059 q 600 1159 627 1133 q 538 1185 574 1185 q 475 1159 501 1185 q 449 1096 449 1133 m 399 372 l 676 372 l 538 775 l 399 372 z "},"ǻ":{"ha":937,"x_min":60,"x_max":983,"o":"m 457 342 q 343 316 381 342 q 304 240 304 290 q 335 168 304 194 q 421 142 366 142 q 536 191 490 142 q 583 314 583 240 l 583 342 l 457 342 m 828 433 l 828 0 l 583 0 l 583 113 q 473 12 534 43 q 325 -20 412 -20 q 133 49 207 -20 q 60 228 60 118 q 152 424 60 361 q 440 486 243 486 l 583 486 l 583 505 q 538 590 583 563 q 396 616 492 616 q 251 601 318 616 q 126 554 184 585 l 126 739 q 283 768 204 758 q 440 778 361 778 q 737 697 646 778 q 828 433 828 616 m 385 1040 q 411 977 385 1003 q 473 951 437 951 q 536 978 511 951 q 562 1040 562 1004 q 536 1103 562 1077 q 473 1129 510 1129 q 410 1103 436 1129 q 385 1040 385 1077 m 280 1040 q 337 1177 280 1120 q 473 1234 393 1234 q 610 1177 553 1234 q 667 1040 667 1120 q 610 904 667 960 q 473 847 553 847 q 337 904 393 847 q 280 1040 280 960 m 791 1293 l 983 1293 l 790 1114 l 657 1114 l 791 1293 z "},"Ǽ":{"ha":1507,"x_min":0,"x_max":1406,"o":"m 878 1288 l 1070 1288 l 877 1109 l 744 1109 l 878 1288 m 604 839 l 431 425 l 686 425 l 686 839 l 604 839 m 424 1013 l 1390 1013 l 1390 815 l 947 815 l 947 627 l 1364 627 l 1364 429 l 947 429 l 947 197 l 1406 197 l 1406 0 l 686 0 l 686 237 l 351 237 l 252 0 l 0 0 l 424 1013 z "},"ǽ":{"ha":1455,"x_min":60,"x_max":1389,"o":"m 1139 463 q 1098 574 1139 532 q 993 616 1058 616 q 880 577 923 616 q 825 463 836 537 l 1139 463 m 457 342 q 343 316 381 342 q 304 240 304 290 q 335 168 304 194 q 421 142 366 142 q 536 191 490 142 q 583 314 583 240 l 583 342 l 457 342 m 126 739 q 282 768 207 758 q 424 778 358 778 q 599 752 526 778 q 721 672 673 726 q 842 751 773 724 q 994 778 911 778 q 1281 670 1174 778 q 1389 382 1389 562 l 1389 313 l 821 313 q 883 184 830 227 q 1031 142 935 142 q 1188 164 1107 142 q 1353 233 1268 187 l 1353 46 q 1180 -3 1267 14 q 1008 -20 1094 -20 q 797 17 887 -20 q 659 121 707 53 q 514 14 590 48 q 345 -20 439 -20 q 136 47 213 -20 q 60 228 60 114 q 152 424 60 361 q 440 486 243 486 l 583 486 l 583 505 q 538 590 583 563 q 396 616 492 616 q 251 601 318 616 q 126 554 184 585 l 126 739 m 705 1111 l 897 1111 l 647 856 l 514 856 l 705 1111 z "},"Ǿ":{"ha":1181,"x_min":31,"x_max":1143,"o":"m 583 1288 l 774 1288 l 581 1109 l 448 1109 l 583 1288 m 410 252 q 489 190 445 210 q 590 170 534 170 q 776 258 710 170 q 842 505 842 346 q 837 591 842 551 q 821 664 831 631 l 410 252 m 768 764 q 690 822 734 803 q 590 842 646 842 q 405 753 471 842 q 339 505 339 665 q 344 424 339 462 q 358 354 349 385 l 768 764 m 170 165 q 94 318 119 233 q 69 505 69 403 q 208 891 69 751 q 590 1031 347 1031 q 779 1005 694 1031 q 932 928 863 980 l 1067 1063 l 1143 985 l 1007 850 q 1085 696 1059 783 q 1111 505 1111 610 q 972 120 1111 260 q 590 -20 834 -20 q 400 7 486 -20 q 244 87 313 34 l 107 -50 l 31 26 l 170 165 z "},"ǿ":{"ha":954,"x_min":53,"x_max":896,"o":"m 581 567 q 535 595 561 586 q 478 604 510 604 q 355 546 397 604 q 313 379 313 488 q 315 329 313 351 q 322 289 317 307 l 581 567 m 371 195 q 419 164 392 174 q 478 154 446 154 q 600 212 557 154 q 642 379 642 270 q 639 431 642 408 q 632 473 637 454 l 371 195 m 151 107 q 83 228 106 160 q 60 379 60 296 q 171 672 60 566 q 478 778 281 778 q 611 763 550 778 q 722 718 671 748 l 822 825 l 896 757 l 800 656 q 871 533 848 602 q 895 379 895 465 q 784 86 895 192 q 478 -20 674 -20 q 343 -4 405 -20 q 229 41 281 11 l 129 -64 l 53 0 l 151 107 m 464 1111 l 656 1111 l 406 856 l 273 856 l 464 1111 z "},"Ȁ":{"ha":1075,"x_min":7,"x_max":1068,"o":"m 742 184 l 334 184 l 269 0 l 7 0 l 382 1013 l 693 1013 l 1068 0 l 806 0 l 742 184 m 399 372 l 676 372 l 538 775 l 399 372 m 397 1289 l 531 1109 l 398 1109 l 205 1289 l 397 1289 m 651 1289 l 785 1109 l 652 1109 l 459 1289 l 651 1289 z "},"ȁ":{"ha":937,"x_min":60,"x_max":828,"o":"m 457 342 q 343 316 381 342 q 304 240 304 290 q 335 168 304 194 q 421 142 366 142 q 536 191 490 142 q 583 314 583 240 l 583 342 l 457 342 m 828 433 l 828 0 l 583 0 l 583 113 q 473 12 534 43 q 325 -20 412 -20 q 133 49 207 -20 q 60 228 60 118 q 152 424 60 361 q 440 486 243 486 l 583 486 l 583 505 q 538 590 583 563 q 396 616 492 616 q 251 601 318 616 q 126 554 184 585 l 126 739 q 283 768 204 758 q 440 778 361 778 q 737 697 646 778 q 828 433 828 616 m 552 1111 l 684 856 l 573 856 l 405 1111 l 552 1111 m 306 1111 l 452 856 l 334 856 l 149 1111 l 306 1111 z "},"Ȃ":{"ha":1075,"x_min":7,"x_max":1068,"o":"m 742 184 l 334 184 l 269 0 l 7 0 l 382 1013 l 693 1013 l 1068 0 l 806 0 l 742 184 m 399 372 l 676 372 l 538 775 l 399 372 m 768 1103 l 671 1103 q 625 1164 657 1144 q 541 1185 592 1185 q 456 1164 489 1185 q 410 1103 424 1144 l 313 1103 q 382 1236 323 1190 q 541 1282 440 1282 q 699 1236 641 1282 q 768 1103 758 1190 z "},"ȃ":{"ha":937,"x_min":60,"x_max":828,"o":"m 457 342 q 343 316 381 342 q 304 240 304 290 q 335 168 304 194 q 421 142 366 142 q 536 191 490 142 q 583 314 583 240 l 583 342 l 457 342 m 828 433 l 828 0 l 583 0 l 583 113 q 473 12 534 43 q 325 -20 412 -20 q 133 49 207 -20 q 60 228 60 118 q 152 424 60 361 q 440 486 243 486 l 583 486 l 583 505 q 538 590 583 563 q 396 616 492 616 q 251 601 318 616 q 126 554 184 585 l 126 739 q 283 768 204 758 q 440 778 361 778 q 737 697 646 778 q 828 433 828 616 m 709 888 l 612 888 q 571 960 605 935 q 481 985 538 985 q 392 960 425 985 q 351 888 358 935 l 254 888 q 317 1037 258 985 q 481 1089 376 1089 q 646 1037 587 1089 q 709 888 705 985 z "},"Ȅ":{"ha":949,"x_min":127,"x_max":847,"o":"m 127 1013 l 832 1013 l 832 815 l 389 815 l 389 627 l 806 627 l 806 429 l 389 429 l 389 197 l 847 197 l 847 0 l 127 0 l 127 1013 m 373 1289 l 507 1109 l 374 1109 l 181 1289 l 373 1289 m 627 1289 l 762 1109 l 629 1109 l 435 1289 l 627 1289 z "},"ȅ":{"ha":942,"x_min":60,"x_max":875,"o":"m 875 382 l 875 313 l 307 313 q 369 184 316 227 q 517 142 422 142 q 674 164 593 142 q 839 233 754 187 l 839 46 q 667 -3 753 14 q 494 -20 581 -20 q 174 85 288 -20 q 60 379 60 190 q 172 671 60 565 q 481 778 284 778 q 767 670 660 778 q 875 382 875 562 m 625 463 q 585 574 625 532 q 479 616 545 616 q 365 577 409 616 q 310 463 321 537 l 625 463 m 573 1111 l 705 856 l 594 856 l 426 1111 l 573 1111 m 327 1111 l 473 856 l 355 856 l 170 1111 l 327 1111 z "},"Ȇ":{"ha":949,"x_min":127,"x_max":847,"o":"m 127 1013 l 832 1013 l 832 815 l 389 815 l 389 627 l 806 627 l 806 429 l 389 429 l 389 197 l 847 197 l 847 0 l 127 0 l 127 1013 m 732 1103 l 635 1103 q 588 1164 621 1144 q 504 1185 555 1185 q 420 1164 452 1185 q 373 1103 387 1144 l 276 1103 q 345 1236 287 1190 q 504 1282 404 1282 q 663 1236 604 1282 q 732 1103 721 1190 z "},"ȇ":{"ha":942,"x_min":60,"x_max":875,"o":"m 875 382 l 875 313 l 307 313 q 369 184 316 227 q 517 142 422 142 q 674 164 593 142 q 839 233 754 187 l 839 46 q 667 -3 753 14 q 494 -20 581 -20 q 174 85 288 -20 q 60 379 60 190 q 172 671 60 565 q 481 778 284 778 q 767 670 660 778 q 875 382 875 562 m 625 463 q 585 574 625 532 q 479 616 545 616 q 365 577 409 616 q 310 463 321 537 l 625 463 m 730 888 l 633 888 q 592 960 626 935 q 503 985 559 985 q 413 960 446 985 q 372 888 379 935 l 275 888 q 338 1037 279 985 q 503 1089 397 1089 q 667 1037 608 1089 q 730 888 726 985 z "},"Ȉ":{"ha":517,"x_min":-56,"x_max":524,"o":"m 127 1013 l 389 1013 l 389 0 l 127 0 l 127 1013 m 136 1289 l 270 1109 l 137 1109 l -56 1289 l 136 1289 m 390 1289 l 524 1109 l 391 1109 l 198 1289 l 390 1289 z "},"ȉ":{"ha":476,"x_min":-5,"x_max":530,"o":"m 398 1111 l 530 856 l 419 856 l 251 1111 l 398 1111 m 152 1111 l 298 856 l 180 856 l -5 1111 l 152 1111 m 117 760 l 359 760 l 359 0 l 117 0 l 117 760 z "},"Ȋ":{"ha":517,"x_min":32,"x_max":488,"o":"m 127 1013 l 389 1013 l 389 0 l 127 0 l 127 1013 m 488 1103 l 391 1103 q 344 1164 376 1144 q 260 1185 311 1185 q 176 1164 208 1185 q 129 1103 143 1144 l 32 1103 q 101 1236 43 1190 q 260 1282 159 1282 q 418 1236 360 1282 q 488 1103 477 1190 z "},"ȋ":{"ha":476,"x_min":10,"x_max":466,"o":"m 466 888 l 369 888 q 328 960 361 935 q 238 985 294 985 q 148 960 182 985 q 107 888 115 935 l 10 888 q 73 1037 14 985 q 238 1089 132 1089 q 403 1037 344 1089 q 466 888 462 985 m 117 760 l 359 760 l 359 0 l 117 0 l 117 760 z "},"Ȍ":{"ha":1181,"x_min":69,"x_max":1111,"o":"m 590 842 q 405 753 471 842 q 339 505 339 665 q 405 258 339 346 q 590 170 471 170 q 776 258 710 170 q 842 505 842 346 q 776 753 842 665 q 590 842 710 842 m 590 1031 q 972 891 834 1031 q 1111 505 1111 751 q 972 120 1111 260 q 590 -20 834 -20 q 208 120 347 -20 q 69 505 69 260 q 208 891 69 751 q 590 1031 347 1031 m 449 1289 l 583 1109 l 450 1109 l 257 1289 l 449 1289 m 703 1289 l 838 1109 l 705 1109 l 511 1289 l 703 1289 z "},"ȍ":{"ha":954,"x_min":60,"x_max":895,"o":"m 478 604 q 355 546 397 604 q 313 379 313 488 q 355 212 313 270 q 478 154 397 154 q 600 212 557 154 q 642 379 642 270 q 600 546 642 488 q 478 604 557 604 m 478 778 q 784 672 674 778 q 895 379 895 566 q 784 86 895 192 q 478 -20 674 -20 q 171 86 281 -20 q 60 379 60 192 q 171 672 60 566 q 478 778 281 778 m 557 1111 l 688 856 l 578 856 l 410 1111 l 557 1111 m 311 1111 l 456 856 l 338 856 l 154 1111 l 311 1111 z "},"Ȏ":{"ha":1181,"x_min":69,"x_max":1111,"o":"m 590 842 q 405 753 471 842 q 339 505 339 665 q 405 258 339 346 q 590 170 471 170 q 776 258 710 170 q 842 505 842 346 q 776 753 842 665 q 590 842 710 842 m 590 1031 q 972 891 834 1031 q 1111 505 1111 751 q 972 120 1111 260 q 590 -20 834 -20 q 208 120 347 -20 q 69 505 69 260 q 208 891 69 751 q 590 1031 347 1031 m 817 1103 l 720 1103 q 673 1164 706 1144 q 589 1185 641 1185 q 505 1164 538 1185 q 458 1103 473 1144 l 361 1103 q 431 1236 372 1190 q 589 1282 489 1282 q 748 1236 690 1282 q 817 1103 806 1190 z "},"ȏ":{"ha":954,"x_min":60,"x_max":895,"o":"m 478 604 q 355 546 397 604 q 313 379 313 488 q 355 212 313 270 q 478 154 397 154 q 600 212 557 154 q 642 379 642 270 q 600 546 642 488 q 478 604 557 604 m 478 778 q 784 672 674 778 q 895 379 895 566 q 784 86 895 192 q 478 -20 674 -20 q 171 86 281 -20 q 60 379 60 192 q 171 672 60 566 q 478 778 281 778 m 714 888 l 617 888 q 576 960 610 935 q 486 985 543 985 q 396 960 430 985 q 355 888 363 935 l 258 888 q 321 1037 262 985 q 486 1089 380 1089 q 651 1037 592 1089 q 714 888 710 985 z "},"Ȑ":{"ha":1069,"x_min":127,"x_max":1042,"o":"m 498 564 q 616 594 581 564 q 652 694 652 625 q 616 793 652 764 q 498 823 581 823 l 389 823 l 389 564 l 498 564 m 389 383 l 389 0 l 127 0 l 127 1013 l 526 1013 q 820 945 726 1013 q 913 733 913 878 q 864 568 913 633 q 718 473 816 504 q 814 418 772 461 q 900 288 857 375 l 1042 0 l 764 0 l 640 252 q 565 355 603 328 q 463 383 526 383 l 389 383 m 345 1289 l 479 1109 l 347 1109 l 153 1289 l 345 1289 m 600 1289 l 734 1109 l 601 1109 l 408 1289 l 600 1289 z "},"ȑ":{"ha":685,"x_min":81,"x_max":681,"o":"m 681 553 q 617 575 649 568 q 554 582 586 582 q 410 522 460 582 q 359 350 359 462 l 359 0 l 117 0 l 117 760 l 359 760 l 359 635 q 467 744 406 709 q 612 778 528 778 q 639 777 625 778 q 680 772 653 776 l 681 553 m 484 1111 l 615 856 l 505 856 l 336 1111 l 484 1111 m 237 1111 l 383 856 l 265 856 l 81 1111 l 237 1111 z "},"Ȓ":{"ha":1069,"x_min":127,"x_max":1042,"o":"m 498 564 q 616 594 581 564 q 652 694 652 625 q 616 793 652 764 q 498 823 581 823 l 389 823 l 389 564 l 498 564 m 389 383 l 389 0 l 127 0 l 127 1013 l 526 1013 q 820 945 726 1013 q 913 733 913 878 q 864 568 913 633 q 718 473 816 504 q 814 418 772 461 q 900 288 857 375 l 1042 0 l 764 0 l 640 252 q 565 355 603 328 q 463 383 526 383 l 389 383 m 696 1103 l 600 1103 q 553 1164 585 1144 q 469 1185 520 1185 q 385 1164 417 1185 q 338 1103 352 1144 l 241 1103 q 310 1236 252 1190 q 469 1282 368 1282 q 627 1236 569 1282 q 696 1103 686 1190 z "},"ȓ":{"ha":685,"x_min":117,"x_max":681,"o":"m 681 553 q 617 575 649 568 q 554 582 586 582 q 410 522 460 582 q 359 350 359 462 l 359 0 l 117 0 l 117 760 l 359 760 l 359 635 q 467 744 406 709 q 612 778 528 778 q 639 777 625 778 q 680 772 653 776 l 681 553 m 641 888 l 544 888 q 503 960 536 935 q 413 985 469 985 q 323 960 357 985 q 282 888 290 935 l 185 888 q 248 1037 189 985 q 413 1089 307 1089 q 578 1037 519 1089 q 641 888 637 985 z "},"Ȕ":{"ha":1128,"x_min":127,"x_max":1000,"o":"m 127 1013 l 389 1013 l 389 406 q 430 226 389 280 q 564 172 471 172 q 698 226 657 172 q 739 406 739 280 l 739 1013 l 1000 1013 l 1000 406 q 892 85 1000 191 q 564 -20 785 -20 q 235 85 343 -20 q 127 406 127 191 l 127 1013 m 449 1289 l 583 1109 l 450 1109 l 257 1289 l 449 1289 m 703 1289 l 838 1109 l 705 1109 l 511 1289 l 703 1289 z "},"ȕ":{"ha":989,"x_min":109,"x_max":872,"o":"m 109 296 l 109 760 l 353 760 l 353 684 q 352 529 353 622 q 351 404 351 435 q 356 272 351 313 q 372 214 361 232 q 411 177 387 190 q 467 164 435 164 q 586 222 543 164 q 629 385 629 281 l 629 760 l 872 760 l 872 0 l 629 0 l 629 110 q 513 12 574 43 q 378 -20 452 -20 q 177 61 246 -20 q 109 296 109 142 m 570 1111 l 701 856 l 591 856 l 422 1111 l 570 1111 m 323 1111 l 469 856 l 351 856 l 167 1111 l 323 1111 z "},"Ȗ":{"ha":1128,"x_min":127,"x_max":1000,"o":"m 127 1013 l 389 1013 l 389 406 q 430 226 389 280 q 564 172 471 172 q 698 226 657 172 q 739 406 739 280 l 739 1013 l 1000 1013 l 1000 406 q 892 85 1000 191 q 564 -20 785 -20 q 235 85 343 -20 q 127 406 127 191 l 127 1013 m 787 1103 l 690 1103 q 644 1164 676 1144 q 559 1185 611 1185 q 475 1164 508 1185 q 429 1103 443 1144 l 332 1103 q 401 1236 342 1190 q 559 1282 459 1282 q 718 1236 660 1282 q 787 1103 777 1190 z "},"ȗ":{"ha":989,"x_min":109,"x_max":872,"o":"m 109 296 l 109 760 l 353 760 l 353 684 q 352 529 353 622 q 351 404 351 435 q 356 272 351 313 q 372 214 361 232 q 411 177 387 190 q 467 164 435 164 q 586 222 543 164 q 629 385 629 281 l 629 760 l 872 760 l 872 0 l 629 0 l 629 110 q 513 12 574 43 q 378 -20 452 -20 q 177 61 246 -20 q 109 296 109 142 m 727 888 l 630 888 q 589 960 623 935 q 499 985 555 985 q 409 960 443 985 q 368 888 376 935 l 271 888 q 334 1037 275 985 q 499 1089 393 1089 q 664 1037 605 1089 q 727 888 723 985 z "},"Ș":{"ha":1000,"x_min":100,"x_max":899,"o":"m 386 -130 l 606 -130 l 455 -332 l 325 -332 l 386 -130 m 832 981 l 832 766 q 669 823 749 804 q 519 842 590 842 q 381 816 426 842 q 336 736 336 790 q 367 672 336 695 q 476 633 397 650 l 587 611 q 827 508 756 577 q 899 311 899 439 q 799 62 899 144 q 496 -20 700 -20 q 302 -1 399 -20 q 109 53 205 17 l 109 273 q 296 196 205 222 q 471 170 387 170 q 602 198 556 170 q 647 279 647 227 q 616 353 647 327 q 493 399 585 378 l 392 421 q 170 525 240 454 q 100 717 100 596 q 197 949 100 868 q 478 1031 295 1031 q 650 1018 562 1031 q 832 981 738 1006 z "},"ș":{"ha":827,"x_min":72,"x_max":761,"o":"m 329 -130 l 549 -130 l 398 -332 l 268 -332 l 329 -130 m 710 736 l 710 551 q 559 600 632 584 q 422 616 487 616 q 320 599 353 616 q 286 546 286 582 q 312 501 286 517 q 403 478 337 486 l 446 472 q 696 394 632 448 q 761 224 761 340 q 671 41 761 102 q 404 -20 582 -20 q 249 -8 329 -20 q 83 28 168 4 l 83 212 q 232 159 156 177 q 387 142 309 142 q 494 161 458 142 q 530 220 530 181 q 506 268 530 252 q 407 293 481 284 l 364 298 q 137 374 202 319 q 72 541 72 429 q 155 720 72 661 q 408 778 237 778 q 549 768 475 778 q 710 736 623 758 z "},"Ț":{"ha":947,"x_min":7,"x_max":940,"o":"m 356 -130 l 576 -130 l 425 -332 l 295 -332 l 356 -130 m 7 1013 l 940 1013 l 940 815 l 604 815 l 604 0 l 343 0 l 343 815 l 7 815 l 7 1013 z "},"ț":{"ha":664,"x_min":18,"x_max":632,"o":"m 248 -130 l 468 -130 l 317 -332 l 187 -332 l 248 -130 m 382 975 l 382 760 l 632 760 l 632 586 l 382 586 l 382 264 q 403 192 382 211 q 486 174 424 174 l 611 174 l 611 0 l 403 0 q 199 60 259 0 q 139 264 139 120 l 139 586 l 18 586 l 18 760 l 139 760 l 139 975 l 382 975 z "},"Ȝ":{"ha":959,"x_min":93,"x_max":856,"o":"m 640 457 q 799 363 741 433 q 856 211 856 293 q 826 81 856 140 q 739 -27 796 22 q 588 -122 682 -77 q 375 -208 493 -168 q 93 -292 256 -248 l 93 -100 q 135 -90 109 -96 q 210 -67 161 -83 q 306 -34 258 -52 q 405 11 353 -16 q 495 65 457 37 q 559 130 534 94 q 585 203 585 166 q 561 278 585 247 q 505 324 537 310 q 438 338 473 338 q 357 321 400 338 l 210 263 l 210 435 l 369 500 q 464 549 424 522 q 524 598 504 576 q 555 647 544 621 q 568 689 566 673 q 570 723 570 704 q 553 786 570 760 q 509 826 536 813 q 454 846 481 840 q 400 852 427 852 q 136 746 295 852 l 136 920 q 458 1031 299 1031 q 604 1012 538 1031 q 711 963 670 993 q 781 895 753 933 q 821 821 809 857 q 832 751 832 785 q 640 457 832 557 z "},"ȝ":{"ha":844,"x_min":68,"x_max":755,"o":"m 562 313 q 660 273 619 298 q 720 219 701 248 q 747 164 739 190 q 755 113 755 139 q 68 -294 755 -163 l 68 -138 q 107 -130 83 -135 q 175 -112 130 -124 q 261 -84 219 -99 q 350 -48 303 -70 q 431 -4 397 -27 q 489 48 466 19 q 511 108 511 77 q 471 187 511 158 q 379 216 430 216 q 306 203 344 216 l 174 156 l 174 296 l 317 348 q 404 389 368 366 q 458 429 440 411 q 486 469 476 447 q 497 502 496 490 q 498 528 498 513 q 483 580 498 558 q 443 612 467 602 q 394 628 418 623 q 345 633 370 633 q 108 547 251 633 l 108 688 q 414 778 247 778 q 540 764 484 778 q 631 727 596 749 q 690 673 667 704 q 724 612 714 643 q 734 548 734 581 q 684 410 734 471 q 562 313 635 348 z "},"Ȟ":{"ha":1162,"x_min":127,"x_max":1035,"o":"m 127 1013 l 389 1013 l 389 627 l 774 627 l 774 1013 l 1035 1013 l 1035 0 l 774 0 l 774 429 l 389 429 l 389 0 l 127 0 l 127 1013 m 473 1109 l 321 1288 l 442 1288 l 577 1178 l 712 1288 l 833 1288 l 682 1109 l 473 1109 z "},"ȟ":{"ha":989,"x_min":-16,"x_max":880,"o":"m 880 463 l 880 0 l 636 0 l 636 75 l 636 353 q 632 490 636 452 q 616 545 627 527 q 578 582 602 568 q 522 595 553 595 q 403 536 446 595 q 359 374 359 477 l 359 0 l 117 0 l 117 1055 l 359 1055 l 359 648 q 476 746 414 715 q 612 778 538 778 q 812 697 744 778 q 880 463 880 616 m 135 1109 l -16 1288 l 104 1288 l 239 1178 l 374 1288 l 495 1288 l 344 1109 l 135 1109 z "},"Ƞ":{"ha":1162,"x_min":117,"x_max":1015,"o":"m 117 1013 l 369 1013 l 369 859 q 523 990 444 950 q 700 1031 602 1031 q 934 924 854 1031 q 1015 612 1015 817 l 1015 -289 l 770 -289 l 770 469 q 736 726 770 679 q 593 788 692 788 q 427 710 487 788 q 366 495 366 632 l 366 0 l 117 0 l 117 1013 z "},"ȡ":{"ha":1201,"x_min":62,"x_max":1141,"o":"m 944 156 q 1034 216 1035 156 q 1015 233 1034 233 q 936 199 964 233 l 911 167 q 944 156 926 156 m 473 157 q 593 214 551 157 q 633 379 633 271 q 593 545 633 488 q 473 602 551 602 q 355 545 396 602 q 314 379 314 488 q 355 214 314 271 q 473 157 396 157 m 878 349 q 1001 411 929 411 q 1099 373 1065 411 q 1141 222 1143 326 q 1097 54 1141 113 q 932 -18 1044 -17 q 822 0 870 -18 q 777 -104 798 -50 l 666 -56 q 711 58 680 -18 q 692 80 700 68 q 614 10 661 34 q 383 -20 554 -20 q 153 92 243 -20 q 62 379 62 203 q 153 666 62 555 q 383 778 243 778 q 522 746 462 778 q 633 648 583 715 l 633 1055 l 878 1055 l 878 349 z "},"Ȣ":{"ha":1124,"x_min":85,"x_max":1039,"o":"m 563 453 q 395 413 454 453 q 335 298 335 373 q 395 184 335 224 q 563 144 454 144 q 730 184 673 144 q 788 298 788 224 q 730 414 788 374 q 563 453 673 453 m 604 913 l 604 1030 q 899 964 794 1025 q 1013 768 1013 897 q 957 625 1013 682 q 789 539 900 567 q 976 446 913 511 q 1039 285 1039 382 q 919 57 1039 134 q 563 -20 799 -20 q 205 57 326 -20 q 85 285 85 134 q 148 446 85 382 q 334 539 211 511 q 168 618 220 559 q 111 734 111 680 q 226 876 111 808 q 518 928 304 922 l 518 824 q 406 800 442 825 q 350 722 350 762 q 406 642 350 675 q 563 616 449 616 q 719 656 653 616 q 774 769 774 688 q 719 875 774 842 q 604 913 665 907 z "},"ȣ":{"ha":915,"x_min":60,"x_max":855,"o":"m 560 826 l 801 897 q 833 768 833 844 q 786 625 833 683 q 647 539 739 567 q 802 446 749 511 q 855 285 855 382 q 755 57 855 134 q 458 -20 655 -20 q 161 57 261 -20 q 60 285 60 134 q 112 446 60 382 q 268 539 165 511 q 129 625 176 567 q 82 768 82 682 q 115 897 82 844 l 355 826 q 329 742 329 794 q 363 649 329 682 q 458 616 396 616 q 553 649 519 616 q 586 742 586 682 q 560 826 586 794 m 458 453 q 346 413 385 453 q 307 298 307 373 q 346 184 307 224 q 458 144 385 144 q 570 184 531 144 q 608 298 608 224 q 570 414 608 374 q 458 453 531 453 z "},"Ȥ":{"ha":1007,"x_min":62,"x_max":945,"o":"m 945 0 q 829 -256 941 -182 q 658 -300 762 -300 l 467 -300 l 467 -140 l 580 -140 q 675 -109 649 -140 q 701 0 699 -80 l 62 0 l 62 158 l 606 815 l 78 815 l 78 1013 l 929 1013 l 929 854 l 386 197 l 945 197 l 945 0 z "},"ȥ":{"ha":808,"x_min":62,"x_max":742,"o":"m 742 0 q 626 -256 738 -182 q 455 -300 559 -300 l 264 -300 l 264 -140 l 377 -140 q 472 -109 446 -140 q 498 0 496 -80 l 62 0 l 62 170 l 463 586 l 79 586 l 79 760 l 742 760 l 742 590 l 342 174 l 742 174 l 742 0 z "},"Ȧ":{"ha":1075,"x_min":7,"x_max":1068,"o":"m 444 1288 l 630 1288 l 630 1121 l 444 1121 l 444 1288 m 742 184 l 334 184 l 269 0 l 7 0 l 382 1013 l 693 1013 l 1068 0 l 806 0 l 742 184 m 399 372 l 676 372 l 538 775 l 399 372 z "},"ȧ":{"ha":937,"x_min":60,"x_max":828,"o":"m 352 1055 l 595 1055 l 595 857 l 352 857 l 352 1055 m 457 342 q 343 316 381 342 q 304 240 304 290 q 335 168 304 194 q 421 142 366 142 q 536 191 490 142 q 583 314 583 240 l 583 342 l 457 342 m 828 433 l 828 0 l 583 0 l 583 113 q 473 12 534 43 q 325 -20 412 -20 q 133 49 207 -20 q 60 228 60 118 q 152 424 60 361 q 440 486 243 486 l 583 486 l 583 505 q 538 590 583 563 q 396 616 492 616 q 251 601 318 616 q 126 554 184 585 l 126 739 q 283 768 204 758 q 440 778 361 778 q 737 697 646 778 q 828 433 828 616 z "},"Ȩ":{"ha":949,"x_min":127,"x_max":847,"o":"m 127 1013 l 832 1013 l 832 815 l 389 815 l 389 627 l 806 627 l 806 429 l 389 429 l 389 197 l 847 197 l 847 0 l 127 0 l 127 1013 m 501 5 q 559 -73 541 -37 q 578 -141 578 -109 q 536 -236 578 -205 q 408 -267 494 -267 q 341 -263 376 -267 q 271 -250 307 -258 l 271 -146 q 333 -162 304 -157 q 383 -168 361 -168 q 445 -152 422 -168 q 467 -109 467 -136 q 452 -64 467 -92 q 407 5 437 -36 l 501 5 z "},"ȩ":{"ha":942,"x_min":60,"x_max":875,"o":"m 875 382 l 875 313 l 307 313 q 369 184 316 227 q 517 142 422 142 q 674 164 593 142 q 839 233 754 187 l 839 46 q 667 -3 753 14 q 494 -20 581 -20 q 174 85 288 -20 q 60 379 60 190 q 172 671 60 565 q 481 778 284 778 q 767 670 660 778 q 875 382 875 562 m 625 463 q 585 574 625 532 q 479 616 545 616 q 365 577 409 616 q 310 463 321 537 l 625 463 m 506 0 q 564 -78 545 -42 q 583 -146 583 -114 q 541 -241 583 -210 q 413 -272 499 -272 q 346 -268 380 -272 q 276 -254 311 -263 l 275 -151 q 337 -167 309 -162 q 388 -172 366 -172 q 449 -157 427 -172 q 471 -114 471 -141 q 457 -68 471 -96 q 412 0 442 -41 l 506 0 z "},"Ȫ":{"ha":1181,"x_min":69,"x_max":1111,"o":"m 590 842 q 405 753 471 842 q 339 505 339 665 q 405 258 339 346 q 590 170 471 170 q 776 258 710 170 q 842 505 842 346 q 776 753 842 665 q 590 842 710 842 m 590 1031 q 972 891 834 1031 q 1111 505 1111 751 q 972 120 1111 260 q 590 -20 834 -20 q 208 120 347 -20 q 69 505 69 260 q 208 891 69 751 q 590 1031 347 1031 z "},"ȫ":{"ha":954,"x_min":60,"x_max":895,"o":"m 478 604 q 355 546 397 604 q 313 379 313 488 q 355 212 313 270 q 478 154 397 154 q 600 212 557 154 q 642 379 642 270 q 600 546 642 488 q 478 604 557 604 m 478 778 q 784 672 674 778 q 895 379 895 566 q 784 86 895 192 q 478 -20 674 -20 q 171 86 281 -20 q 60 379 60 192 q 171 672 60 566 q 478 778 281 778 m 262 1075 l 422 1075 l 422 908 l 262 908 l 262 1075 m 530 1075 l 690 1075 l 690 908 l 530 908 l 530 1075 m 279 1269 l 707 1269 l 707 1141 l 279 1141 l 279 1269 z "},"Ȭ":{"ha":1181,"x_min":69,"x_max":1111,"o":"m 590 842 q 405 753 471 842 q 339 505 339 665 q 405 258 339 346 q 590 170 471 170 q 776 258 710 170 q 842 505 842 346 q 776 753 842 665 q 590 842 710 842 m 590 1031 q 972 891 834 1031 q 1111 505 1111 751 q 972 120 1111 260 q 590 -20 834 -20 q 208 120 347 -20 q 69 505 69 260 q 208 891 69 751 q 590 1031 347 1031 z "},"ȭ":{"ha":954,"x_min":60,"x_max":895,"o":"m 478 604 q 355 546 397 604 q 313 379 313 488 q 355 212 313 270 q 478 154 397 154 q 600 212 557 154 q 642 379 642 270 q 600 546 642 488 q 478 604 557 604 m 478 778 q 784 672 674 778 q 895 379 895 566 q 784 86 895 192 q 478 -20 674 -20 q 171 86 281 -20 q 60 379 60 192 q 171 672 60 566 q 478 778 281 778 z "},"Ȯ":{"ha":1181,"x_min":69,"x_max":1111,"o":"m 497 1288 l 683 1288 l 683 1121 l 497 1121 l 497 1288 m 590 842 q 405 753 471 842 q 339 505 339 665 q 405 258 339 346 q 590 170 471 170 q 776 258 710 170 q 842 505 842 346 q 776 753 842 665 q 590 842 710 842 m 590 1031 q 972 891 834 1031 q 1111 505 1111 751 q 972 120 1111 260 q 590 -20 834 -20 q 208 120 347 -20 q 69 505 69 260 q 208 891 69 751 q 590 1031 347 1031 z "},"ȯ":{"ha":954,"x_min":60,"x_max":895,"o":"m 357 1055 l 600 1055 l 600 857 l 357 857 l 357 1055 m 478 604 q 355 546 397 604 q 313 379 313 488 q 355 212 313 270 q 478 154 397 154 q 600 212 557 154 q 642 379 642 270 q 600 546 642 488 q 478 604 557 604 m 478 778 q 784 672 674 778 q 895 379 895 566 q 784 86 895 192 q 478 -20 674 -20 q 171 86 281 -20 q 60 379 60 192 q 171 672 60 566 q 478 778 281 778 z "},"Ȱ":{"ha":1181,"x_min":69,"x_max":1111,"o":"m 590 842 q 405 753 471 842 q 339 505 339 665 q 405 258 339 346 q 590 170 471 170 q 776 258 710 170 q 842 505 842 346 q 776 753 842 665 q 590 842 710 842 m 590 1031 q 972 891 834 1031 q 1111 505 1111 751 q 972 120 1111 260 q 590 -20 834 -20 q 208 120 347 -20 q 69 505 69 260 q 208 891 69 751 q 590 1031 347 1031 z "},"ȱ":{"ha":954,"x_min":60,"x_max":895,"o":"m 357 1055 l 600 1055 l 600 857 l 357 857 l 357 1055 m 478 604 q 355 546 397 604 q 313 379 313 488 q 355 212 313 270 q 478 154 397 154 q 600 212 557 154 q 642 379 642 270 q 600 546 642 488 q 478 604 557 604 m 478 778 q 784 672 674 778 q 895 379 895 566 q 784 86 895 192 q 478 -20 674 -20 q 171 86 281 -20 q 60 379 60 192 q 171 672 60 566 q 478 778 281 778 m 264 1270 l 692 1270 l 692 1142 l 264 1142 l 264 1270 z "},"Ȳ":{"ha":1006,"x_min":-14,"x_max":1019,"o":"m 290 1269 l 717 1269 l 717 1141 l 290 1141 l 290 1269 m -14 1013 l 272 1013 l 503 652 l 733 1013 l 1019 1013 l 633 427 l 633 0 l 372 0 l 372 427 l -14 1013 z "},"ȳ":{"ha":905,"x_min":17,"x_max":880,"o":"m 235 1059 l 663 1059 l 663 932 l 235 932 l 235 1059 m 17 760 l 260 760 l 464 244 l 637 760 l 880 760 l 561 -72 q 449 -249 513 -199 q 279 -300 385 -300 l 139 -300 l 139 -140 l 215 -140 q 305 -121 277 -140 q 349 -50 333 -101 l 355 -29 l 17 760 z "},"ȴ":{"ha":683,"x_min":117,"x_max":623,"o":"m 435 156 q 524 216 526 156 q 506 233 524 233 q 427 199 455 233 l 401 167 q 435 156 416 156 m 359 349 q 483 411 411 411 q 576 378 542 411 q 623 222 625 332 q 578 53 623 113 q 414 -18 526 -18 q 304 0 352 -18 q 259 -104 279 -50 l 148 -56 q 193 58 161 -18 q 117 379 117 134 l 117 1055 l 359 1055 l 359 349 z "},"ȵ":{"ha":1204,"x_min":117,"x_max":1144,"o":"m 880 349 q 1004 411 932 411 q 1093 382 1059 411 q 1144 222 1145 338 q 1093 45 1143 104 q 935 -18 1040 -18 q 825 0 873 -18 q 780 -104 800 -50 l 669 -56 q 713 58 682 -18 q 636 354 633 139 q 632 490 637 445 q 616 545 627 527 q 578 582 602 568 q 522 595 553 595 q 403 536 446 595 q 359 374 359 477 l 359 0 l 117 0 l 117 760 l 359 760 l 359 648 q 476 746 414 715 q 612 778 538 778 q 812 697 744 778 q 880 463 880 616 l 880 349 m 956 156 q 1045 216 1046 159 q 1027 233 1044 233 q 947 199 976 235 l 922 167 q 956 156 937 156 z "},"ȶ":{"ha":711,"x_min":18,"x_max":651,"o":"m 451 163 q 541 223 542 165 q 522 240 540 240 q 443 205 471 241 l 418 174 q 451 163 433 163 m 382 975 l 382 760 l 632 760 l 632 586 l 382 586 l 382 345 q 511 410 439 410 q 607 374 572 410 q 651 220 652 328 q 608 54 650 113 q 441 -19 556 -19 q 332 -1 380 -19 q 287 -106 307 -52 l 176 -57 q 216 46 190 -15 q 199 60 207 52 q 139 264 139 120 l 139 586 l 18 586 l 18 760 l 139 760 l 139 975 l 382 975 z "},"ȷ":{"ha":476,"x_min":-46,"x_max":359,"o":"m 117 760 l 359 760 l 359 14 q 286 -219 359 -139 q 74 -300 213 -300 l -46 -300 l -46 -140 l -4 -140 q 91 -109 65 -140 q 117 14 117 -78 l 117 760 z "},"ȸ":{"ha":1511,"x_min":62,"x_max":1449,"o":"m 473 157 q 593 214 551 157 q 633 379 633 271 q 593 545 633 488 q 473 602 551 602 q 355 545 396 602 q 314 379 314 488 q 355 214 314 271 q 473 157 396 157 m 918 214 q 1038 157 960 157 q 1157 214 1116 157 q 1198 379 1198 271 q 1157 545 1198 488 q 1038 602 1116 602 q 918 544 960 602 q 878 416 884 497 l 878 342 q 918 214 884 261 m 876 1055 l 878 1055 l 878 650 q 987 746 927 715 q 1128 778 1048 778 q 1358 666 1268 778 q 1449 379 1449 555 q 1358 92 1449 203 q 1128 -20 1268 -20 q 987 12 1048 -20 q 878 108 927 43 l 878 0 l 876 0 l 633 0 l 633 110 q 523 12 583 43 q 383 -20 463 -20 q 153 92 243 -20 q 62 379 62 203 q 153 666 62 555 q 383 778 243 778 q 522 746 462 778 q 633 648 583 715 l 633 1055 l 876 1055 z "},"ȹ":{"ha":1511,"x_min":62,"x_max":1449,"o":"m 473 602 q 355 545 396 602 q 314 379 314 488 q 355 214 314 271 q 473 157 396 157 q 593 214 551 157 q 633 379 633 271 q 593 545 633 488 q 473 602 551 602 m 1157 545 q 1038 602 1116 602 q 918 544 960 602 q 878 416 884 497 l 878 342 q 918 214 884 261 q 1038 157 960 157 q 1157 214 1116 157 q 1198 379 1198 271 q 1157 545 1198 488 m 878 108 l 878 -289 l 876 -289 l 633 -289 l 633 110 q 523 12 583 43 q 383 -20 463 -20 q 153 92 243 -20 q 62 379 62 203 q 153 666 62 555 q 383 777 243 777 q 523 745 463 777 q 633 647 583 714 l 633 760 l 876 760 l 878 760 l 878 650 q 987 746 927 715 q 1128 778 1048 778 q 1358 666 1268 778 q 1449 379 1449 555 q 1358 92 1449 203 q 1128 -20 1268 -20 q 987 12 1048 -20 q 878 108 927 43 z "},"Ⱥ":{"ha":1075,"x_min":-19,"x_max":1094,"o":"m 742 184 l 334 184 l 269 0 l 108 0 l 58 -50 l 7 0 l 7 0 l 7 1 l -19 26 l 37 83 l 382 1013 l 693 1013 l 767 812 l 1017 1063 l 1094 985 l 809 700 l 1068 0 l 806 0 l 742 184 m 437 482 l 587 632 l 538 775 l 437 482 m 481 372 l 676 372 l 626 517 l 481 372 z "},"Ȼ":{"ha":1019,"x_min":-47,"x_max":1066,"o":"m 30 -50 l -47 26 l 142 215 q 69 505 69 336 q 217 890 69 748 q 618 1031 365 1031 q 781 1012 703 1031 q 898 971 841 997 l 989 1063 l 1066 985 l 930 849 l 930 746 q 866 785 898 768 l 386 305 q 419 259 400 280 q 639 170 499 170 q 787 193 717 170 q 930 265 858 216 l 930 56 q 781 -1 859 18 q 618 -20 703 -20 q 217 122 365 -20 l 210 129 l 30 -50 m 346 419 l 755 828 q 639 842 699 842 q 419 752 499 842 q 339 505 339 663 q 346 419 339 459 z "},"ȼ":{"ha":823,"x_min":-9,"x_max":833,"o":"m 66 -64 l -9 0 l 125 144 q 60 379 60 239 q 176 673 60 567 q 497 778 292 778 q 614 768 557 778 q 689 749 652 761 l 760 825 l 833 757 l 730 647 l 730 538 q 663 576 697 561 l 349 239 q 369 213 358 225 q 528 154 426 154 q 636 171 585 154 q 730 221 687 188 l 730 22 q 614 -9 673 1 q 497 -20 556 -20 q 193 71 306 -20 l 66 -64 m 314 347 l 553 604 q 528 604 540 604 q 369 545 426 604 q 313 379 313 486 q 314 347 313 363 z "},"Ƚ":{"ha":885,"x_min":-2,"x_max":847,"o":"m 127 1013 l 389 1013 l 389 597 l 525 597 l 525 421 l 389 421 l 389 197 l 847 197 l 847 0 l 127 0 l 127 421 l -2 421 l -2 597 l 127 597 l 127 1013 z "},"Ⱦ":{"ha":947,"x_min":-83,"x_max":1030,"o":"m 941 895 l 941 815 l 861 815 l 604 559 l 604 0 l 343 0 l 343 298 l -6 -50 l -83 26 l 343 452 l 343 815 l 7 815 l 7 1013 l 903 1013 l 954 1063 l 1030 985 l 941 895 m 604 713 l 706 815 l 604 815 l 604 713 z "},"ȿ":{"ha":827,"x_min":72,"x_max":827,"o":"m 710 736 l 710 551 q 559 600 632 584 q 422 616 487 616 q 320 600 353 616 q 286 546 286 582 q 312 501 286 517 q 403 478 337 486 l 446 472 q 696 394 632 448 q 761 224 761 340 q 671 41 761 102 q 429 -20 588 -16 l 566 -126 q 681 -174 628 -174 l 827 -174 l 827 -334 l 686 -334 q 468 -252 573 -334 l 312 -130 q 91 26 132 9 l 83 28 l 83 212 q 232 159 156 177 q 387 142 309 142 q 494 161 458 142 q 530 220 530 181 q 506 269 530 252 q 407 293 482 283 l 364 298 q 137 374 202 319 q 72 541 72 429 q 155 720 72 661 q 408 778 237 778 q 549 768 475 778 q 710 736 623 758 z "},"ɀ":{"ha":808,"x_min":62,"x_max":827,"o":"m 79 760 l 742 760 l 742 590 l 264 96 q 410 -5 332 56 l 566 -126 q 681 -174 628 -174 l 827 -174 l 827 -334 l 686 -334 q 468 -252 573 -334 l 312 -130 q 62 0 159 -12 l 62 170 l 463 586 l 79 586 l 79 760 z "},"Ɂ":{"ha":1086,"x_min":55,"x_max":1029,"o":"m 345 823 q 292 823 292 823 q 251 809 262 823 q 229 752 230 784 q 228 720 228 743 l 55 720 l 55 772 q 87 922 55 878 q 122 958 100 938 q 267 1009 173 1000 q 345 1013 301 1013 l 629 1013 q 925 926 822 1013 q 1029 682 1029 841 q 925 437 1029 523 q 629 351 822 351 l 606 351 l 606 0 l 345 0 l 345 541 l 601 541 q 718 578 677 541 q 760 682 760 614 q 718 787 760 750 q 601 823 677 823 l 345 823 z "},"ɂ":{"ha":853,"x_min":58,"x_max":796,"o":"m 368 306 q 486 343 444 306 q 527 448 527 380 q 486 552 527 515 q 368 589 444 589 q 279 486 279 589 l 58 486 q 369 778 61 779 q 692 692 588 778 q 796 448 796 606 q 692 202 796 288 q 503 124 620 142 l 503 0 l 242 0 l 242 306 l 368 306 z "},"Ƀ":{"ha":1059,"x_min":8,"x_max":961,"o":"m 533 621 q 627 648 595 621 q 659 728 659 675 q 627 807 659 780 q 533 835 595 835 l 389 835 l 389 621 l 533 621 m 542 178 q 660 211 621 178 q 700 311 700 244 q 661 410 700 377 q 542 443 621 443 l 389 443 l 389 376 l 547 376 l 547 244 l 389 244 l 389 178 l 542 178 m 785 542 q 915 452 869 517 q 961 290 961 386 q 862 72 961 144 q 561 0 763 0 l 127 0 l 127 244 l 8 244 l 8 376 l 127 376 l 127 1013 l 519 1013 q 825 949 730 1013 q 920 745 920 885 q 885 619 920 671 q 785 542 850 567 z "},"Ʉ":{"ha":1128,"x_min":33,"x_max":1096,"o":"m 389 472 l 389 406 q 430 226 389 280 q 564 172 471 172 q 698 226 657 172 q 739 406 739 280 l 739 472 l 389 472 m 127 1013 l 389 1013 l 389 604 l 739 604 l 739 1013 l 1000 1013 l 1000 604 l 1096 604 l 1096 472 l 1000 472 l 1000 406 q 892 85 1000 191 q 564 -20 785 -20 q 235 85 343 -20 q 127 406 127 191 l 127 472 l 33 472 l 33 604 l 127 604 l 127 1013 z "},"Ʌ":{"ha":1075,"x_min":7,"x_max":1068,"o":"m 806 0 l 538 775 l 269 0 l 7 0 l 382 1013 l 693 1013 l 1068 0 l 806 0 z "},"Ɇ":{"ha":949,"x_min":127,"x_max":847,"o":"m 705 1141 l 822 1141 l 783 1013 l 832 1013 l 832 815 l 724 815 l 667 627 l 806 627 l 806 429 l 608 429 l 538 197 l 847 197 l 847 0 l 478 0 l 439 -129 l 323 -129 l 362 0 l 127 0 l 127 1013 l 667 1013 l 705 1141 m 422 197 l 491 429 l 389 429 l 389 197 l 422 197 m 551 627 l 607 815 l 389 815 l 389 627 l 551 627 z "},"ɇ":{"ha":942,"x_min":60,"x_max":875,"o":"m 875 382 l 875 313 l 492 313 l 415 158 q 517 142 458 142 q 674 164 593 142 q 839 233 754 187 l 839 46 q 667 -3 753 14 q 494 -20 581 -20 q 336 -1 407 -20 l 271 -129 l 155 -129 l 239 38 q 174 85 203 58 q 60 379 60 190 q 172 671 60 565 q 481 778 284 778 q 602 764 546 778 l 665 888 l 781 888 l 699 724 q 768 670 736 701 q 875 382 875 562 m 452 463 l 526 610 q 479 616 504 616 q 365 577 409 616 q 310 463 321 537 l 452 463 m 333 227 l 376 313 l 307 313 q 333 227 313 262 m 568 463 l 625 463 q 608 542 625 508 l 568 463 z "},"Ɉ":{"ha":517,"x_min":-78,"x_max":500,"o":"m 127 1013 l 389 1013 l 389 564 l 500 564 l 500 383 l 389 383 l 389 98 q 286 -184 389 -91 q -25 -278 183 -278 l -78 -278 l -78 -81 l -37 -81 q 86 -35 44 -81 q 127 98 127 10 l 127 383 l 0 383 l 0 564 l 127 564 l 127 1013 z "},"ɉ":{"ha":476,"x_min":-46,"x_max":500,"o":"m 117 760 l 359 760 l 359 429 l 500 429 l 500 297 l 359 297 l 359 14 q 286 -219 359 -139 q 74 -300 213 -300 l -46 -300 l -46 -140 l -4 -140 q 91 -109 65 -140 q 117 14 117 -78 l 117 297 l -24 297 l -24 429 l 117 429 l 117 760 m 117 1055 l 359 1055 l 359 857 l 117 857 l 117 1055 z "},"Ɋ":{"ha":1195,"x_min":67,"x_max":1287,"o":"m 579 170 q 759 256 696 170 q 821 505 821 342 q 759 755 821 669 q 579 842 696 842 q 400 755 463 842 q 338 505 338 669 q 400 256 338 342 q 579 170 463 170 m 821 151 q 674 21 754 62 q 490 -20 595 -20 q 186 127 305 -20 q 67 505 67 274 q 186 882 67 736 q 490 1029 305 1029 q 674 987 594 1029 q 821 859 754 946 l 821 1013 l 1068 1013 l 1068 98 q 1110 -35 1068 10 q 1233 -81 1152 -81 l 1287 -81 l 1287 -278 l 1234 -278 q 923 -184 1026 -278 q 821 98 821 -91 l 821 151 z "}}}
